<svg version="1.1" xmlns="http://www.w3.org/2000/svg" xmlns:xlink="http://www.w3.org/1999/xlink" x="0px" y="0px" viewBox="50 45 850 200" xml:space="preserve">
<style type="text/css">
.st1 {
  fill: none;
  stroke: #a7491a;
  stroke-width: 2;
  stroke-linecap: round;
  stroke-linejoin: round;
  stroke-miterlimit: 10;
}
</style>
<g class="arthur-rackham-stroke1">
<path class="st1 pJltqeOU_0" d="M90.1,203.1c0,0,2.6,6,11.1,6c26.8,0,76.4-90.6,85-90.6c5.2,0-13,64.5-41.1,115.4
c5.9-36.2,23.8-66.4,35.1-66.4c8.1,0,12.5,17.6,8.5,46.9c20.5-65.3,38.3-86.1,43.1-86.1c4.3,0,0.9,23.6-19.1,79.6
c24.9-65.2,48.1-104.9,52.4-104.9c3.5,0-2.6,24.1-22.2,84c6.3-16.8,10.1-22.5,12-22.5c4,0,0,17.8,4.9,17.8c1.9,0,8.2-3.1,14.6-14.7
c-5.9,14.5,2.3,14.3,11.5-2.3c-7.1,18,6.2,10.1,13-4.2c0,0-2.8,9,0.2,9c1.5,0-2.4,4.3,0.5,4.3c22,0,74.7-77.1,79-77.1
c11.9,0-36.4,106.1-36.4,106.1"></path>
<path class="st1 pJltqeOU_1" d="M90.1,203.1c-0.3,0.3,2.1,6.6,10.9,6.6c26.8,0,76.2-90.5,84.9-90.5c5.2,0-12.7,63.8-40.6,114.4
c6-36,23.5-65.8,34.7-65.8c8,0,12.4,17.4,8.6,46.8c20.3-64.4,38-85.7,42.8-85.7c4.3,0,0.9,23.4-18.8,79.2
c24.8-64.5,47.8-104.2,52-104.2c3.5,0-2.5,23.4-21.8,83.3c6.2-16.5,10-22.1,11.8-22.1c3.9,0-0.1,17.6,4.9,17.6c1.9,0,8.1-3,14.7-15
c-6.1,14.4,2.2,14.6,11.6-2.4c-7.3,18.2,6.2,10.2,13-4.2c0,0-2.9,9,0,9c1.5,0-2.4,4.4,0.6,4.4c22,0,74.3-76.5,78.6-76.5
c11.5,0-34.4,101.5-35.8,105.3"></path>
<path class="st1 pJltqeOU_2" d="M90.1,203.1c-0.5,0.5,1.6,7.2,10.7,7.2c26.7,0,75.9-90.5,84.7-90.5c5.2,0-12.5,63.1-40.1,113.3
c6.1-35.9,23.3-65.1,34.4-65.1c7.8,0,12.3,17.2,8.8,46.7c20.1-63.4,37.7-85.4,42.5-85.4c4.3,0,0.9,23.1-18.6,78.9
c24.6-63.8,47.4-103.5,51.6-103.5c3.4,0-2.3,22.6-21.3,82.6c6.2-16.3,9.9-21.6,11.6-21.6c3.8,0-0.1,17.5,4.9,17.5
c1.9,0,7.9-2.8,14.8-15.2c-6.2,14.3,2,14.9,11.6-2.4c-7.5,18.4,6.2,10.2,13-4.2c0,0-3.1,9-0.1,9c1.5,0-2.5,4.4,0.7,4.4
c21.9,0,73.8-75.9,78.2-75.9c11.2,0-32.5,96.8-35.3,104.4"></path>
<path class="st1 pJltqeOU_3" d="M90.1,203.1c-0.8,0.8,1.1,7.8,10.5,7.8c26.7,0,75.6-90.5,84.6-90.5c5.2,0-12.2,62.3-39.6,112.3
c6.2-35.7,23-64.4,34-64.4c7.7,0,12.2,17,8.9,46.6c19.9-62.4,37.4-85,42.2-85c4.3,0,1,22.9-18.3,78.6
c24.5-63.1,47.1-102.8,51.2-102.8c3.3,0-2.1,21.9-20.9,81.9c6.1-16,9.7-21.2,11.4-21.2c3.8,0-0.2,17.3,4.8,17.3
c1.9,0,7.8-2.7,15-15.4c-6.4,14.2,1.9,15.2,11.7-2.5c-7.7,18.6,6.2,10.3,13.1-4.2c0,0-3.3,9-0.3,9c1.5,0-2.6,4.5,0.8,4.5
c21.9,0,73.4-75.3,77.8-75.3c10.9,0-30.6,92.2-34.7,103.5"></path>
<path class="st1 pJltqeOU_4" d="M90.1,203.1c-1,1,0.6,8.4,10.3,8.4c26.6,0,75.4-90.4,84.4-90.4c5.2,0-11.9,61.6-39.1,111.3
c6.2-35.6,22.7-63.8,33.6-63.8c7.6,0,12.1,16.8,9.1,46.5c19.7-61.5,37.1-84.6,41.8-84.6c4.3,0,1,22.6-18,78.2
c24.3-62.4,46.7-102.1,50.8-102.1c3.3,0-1.9,21.2-20.5,81.1c6.1-15.8,9.6-20.7,11.3-20.7c3.7,0-0.2,17.1,4.8,17.1
c1.9,0,7.6-2.6,15.1-15.6c-6.6,14.1,1.7,15.5,11.7-2.6c-8,18.8,6.2,10.4,13.1-4.3c0,0-3.4,9-0.5,9c1.5,0-2.7,4.6,0.9,4.6
c21.8,0,73-74.6,77.4-74.6c10.5,0-28.7,87.5-34.2,102.7"></path>
<path class="st1 pJltqeOU_5" d="M90.1,203.1c-1.3,1.3,0.2,9,10.1,9c26.6,0,75.1-90.4,84.3-90.4c5.2,0-11.6,60.9-38.6,110.3
c6.3-35.4,22.5-63.1,33.2-63.1c7.5,0,12,16.6,9.3,46.4c19.5-60.5,36.8-84.2,41.5-84.2c4.3,0,1,22.4-17.7,77.9
c24.2-61.7,46.4-101.5,50.3-101.5c3.2,0-1.8,20.4-20.1,80.4c6-15.6,9.5-20.2,11.1-20.2c3.6,0-0.3,17,4.8,17
c1.9,0,7.5-2.5,15.2-15.8c-6.7,14.1,1.5,15.8,11.8-2.7c-8.2,19,6.3,10.5,13.1-4.3c0,0-3.6,9.1-0.6,9.1c1.5,0-2.7,4.6,0.9,4.6
c21.7,0,72.5-74,77-74c10.2,0-26.8,82.9-33.6,101.8"></path>
<path class="st1 pJltqeOU_6" d="M90.1,203.1c-1.6,1.6-0.3,9.6,9.9,9.6c26.6,0,74.8-90.3,84.1-90.3c5.2,0-11.4,60.1-38.1,109.3
c6.4-35.3,22.2-62.4,32.8-62.4c7.3,0,11.9,16.4,9.4,46.3c19.3-59.5,36.5-83.9,41.2-83.9c4.3,0,1,22.2-17.5,77.6
c24-61,46-100.8,49.9-100.8c3.1,0-1.6,19.7-19.6,79.7c5.9-15.3,9.3-19.8,10.9-19.8c3.5,0-0.3,16.8,4.8,16.8
c1.9,0,7.3-2.4,15.4-16.1c-6.9,14,1.4,16.1,11.8-2.8c-8.4,19.2,6.3,10.6,13.1-4.3c0,0-3.8,9.1-0.8,9.1c1.5,0-2.8,4.7,1,4.7
c21.7,0,72.1-73.4,76.6-73.4c9.8,0-24.9,78.2-33.1,100.9"></path>
<path class="st1 pJltqeOU_7" d="M90.1,203.1c-1.8,1.8-0.8,10.3,9.7,10.3c26.5,0,74.6-90.3,84-90.3c5.2,0-11.1,59.4-37.6,108.3
c6.5-35.1,22-61.8,32.4-61.8c7.2,0,11.9,16.2,9.6,46.1c19.1-58.6,36.2-83.5,40.9-83.5c4.3,0,1.1,21.9-17.2,77.3
c23.9-60.3,45.7-100.1,49.5-100.1c3.1,0-1.4,18.9-19.2,79c5.9-15.1,9.2-19.3,10.8-19.3c3.5,0-0.4,16.6,4.7,16.6
c1.9,0,7.2-2.3,15.5-16.3c-7.1,13.9,1.2,16.4,11.9-2.9c-8.6,19.4,6.3,10.7,13.1-4.3c0,0-3.9,9.1-0.9,9.1c1.5,0-2.9,4.7,1.1,4.7
c21.6,0,71.7-72.8,76.2-72.8c9.5,0-23,73.6-32.5,100.1"></path>
<path class="st1 pJltqeOU_8" d="M90.1,203.1c-2.1,2.1-1.3,10.9,9.5,10.9c26.5,0,74.3-90.2,83.8-90.2c5.3,0-10.8,58.7-37,107.3
c6.5-35,21.7-61.1,32.1-61.1c7.1,0,11.8,16,9.8,46c18.9-57.6,35.8-83.1,40.6-83.1c4.3,0,1.1,21.7-16.9,76.9
c23.7-59.6,45.3-99.4,49.1-99.4c3,0-1.2,18.2-18.8,78.2c5.8-14.9,9-18.9,10.6-18.9c3.4,0-0.4,16.5,4.7,16.5c1.9,0,7-2.1,15.6-16.5
c-7.2,13.8,1,16.7,11.9-3c-8.9,19.6,6.3,10.8,13.1-4.3c0,0-4.1,9.1-1.1,9.1c1.5,0-3,4.8,1.2,4.8c21.5,0,71.2-72.1,75.8-72.1
c9.2,0-21,68.9-32,99.2"></path>
<path class="st1 pJltqeOU_9" d="M90.1,203.1c-2.3,2.3-1.8,11.5,9.3,11.5c26.4,0,74-90.2,83.7-90.2c5.3,0-10.5,58-36.5,106.3
c6.6-34.8,21.4-60.4,31.7-60.4c7,0,11.7,15.8,9.9,45.9c18.6-56.6,35.5-82.7,40.3-82.7c4.3,0,1.1,21.5-16.6,76.6
c23.6-58.9,45-98.7,48.7-98.7c2.9,0-1.1,17.4-18.4,77.5c5.8-14.6,8.9-18.4,10.4-18.4c3.3,0-0.5,16.3,4.7,16.3
c1.9,0,6.9-2,15.8-16.7c-7.4,13.7,0.9,17,12-3.1c-9.1,19.8,6.3,10.8,13.1-4.4c0,0-4.2,9.1-1.3,9.1c1.5,0-3.1,4.9,1.3,4.9
c21.5,0,70.8-71.5,75.4-71.5c8.8,0-19.1,64.3-31.4,98.3"></path>
<path class="st1 pJltqeOU_10" d="M90.1,203.1c-2.6,2.6-2.3,12.1,9.1,12.1c26.4,0,73.8-90.1,83.5-90.1c5.3,0-10.2,57.2-36,105.3
c6.7-34.7,21.2-59.7,31.3-59.7c6.8,0,11.6,15.6,10.1,45.8c18.4-55.7,35.2-82.4,40-82.4c4.3,0,1.2,21.2-16.3,76.3
c23.4-58.2,44.6-98.1,48.3-98.1c2.9,0-0.9,16.7-18,76.8c5.7-14.4,8.8-18,10.3-18c3.2,0-0.5,16.1,4.7,16.1c1.9,0,6.7-1.9,15.9-16.9
c-7.5,13.6,0.7,17.3,12-3.1c-9.3,20,6.3,10.9,13.1-4.4c0,0-4.4,9.2-1.4,9.2c1.5,0-3.1,4.9,1.4,4.9c21.4,0,70.3-70.9,75-70.9
c8.5,0-17.2,59.6-30.8,97.5"></path>
<path class="st1 pJltqeOU_11" d="M90.1,203.1c-2.9,2.9-2.7,12.7,8.9,12.7c26.4,0,73.5-90.1,83.4-90.1c5.3,0-10,56.5-35.5,104.3
c6.8-34.5,20.9-59.1,30.9-59.1c6.7,0,11.5,15.4,10.2,45.7c18.2-54.7,34.9-82,39.7-82c4.3,0,1.2,21-16.1,76
c23.3-57.5,44.3-97.4,47.9-97.4c2.8,0-0.7,16-17.5,76.1c5.7-14.1,8.6-17.5,10.1-17.5c3.2,0-0.6,15.9,4.6,15.9
c1.9,0,6.6-1.8,16.1-17.2c-7.7,13.6,0.5,17.6,12.1-3.2c-9.5,20.2,6.3,11,13.2-4.4c0,0-4.6,9.2-1.6,9.2c1.5,0-3.2,5,1.5,5
c21.3,0,69.9-70.3,74.5-70.3c8.1,0-15.3,54.9-30.3,96.6"></path>
<path class="st1 pJltqeOU_12" d="M90.1,203.1c-3.1,3.1-3.2,13.3,8.7,13.3c26.3,0,73.2-90.1,83.3-90.1c5.3,0-9.7,55.8-35,103.3
c6.8-34.4,20.7-58.4,30.5-58.4c6.6,0,11.4,15.2,10.4,45.6c18-53.7,34.6-81.6,39.4-81.6c4.3,0,1.2,20.7-15.8,75.6
c23.2-56.8,43.9-96.7,47.5-96.7c2.8,0-0.6,15.2-17.1,75.3c5.6-13.9,8.5-17.1,9.9-17.1c3.1,0-0.6,15.8,4.6,15.8
c1.9,0,6.4-1.7,16.2-17.4c-7.9,13.5,0.4,17.9,12.1-3.3c-9.7,20.4,6.3,11.1,13.2-4.4c0,0-4.7,9.2-1.8,9.2c1.5,0-3.3,5,1.6,5
c21.3,0,69.5-69.6,74.1-69.6c7.8,0-13.4,50.3-29.7,95.7"></path>
<path class="st1 pJltqeOU_13" d="M90.1,203.1c-3.4,3.4-3.7,13.9,8.5,13.9c26.3,0,73-90,83.1-90c5.3,0-9.4,55-34.5,102.3
c6.9-34.3,20.4-57.7,30.1-57.7c6.4,0,11.3,15,10.6,45.5c17.8-52.8,34.3-81.2,39.1-81.2c4.3,0,1.2,20.5-15.5,75.3
c23-56.1,43.6-96,47.1-96c2.7,0-0.4,14.5-16.7,74.6c5.5-13.7,8.4-16.6,9.7-16.6c3,0-0.7,15.6,4.6,15.6c1.9,0,6.3-1.6,16.3-17.6
c-8,13.4,0.2,18.2,12.2-3.4c-10,20.6,6.4,11.2,13.2-4.5c0,0-4.9,9.2-1.9,9.2c1.5,0-3.4,5.1,1.7,5.1c21.2,0,69-69,73.7-69
c7.5,0-11.5,45.6-29.2,94.9"></path>
<path class="st1 pJltqeOU_14" d="M90.1,203.1c-3.6,3.6-4.2,14.5,8.3,14.5c26.2,0,72.7-90,83-90c5.3,0-9.1,54.3-34,101.3
c7-34.1,20.2-57.1,29.8-57.1c6.3,0,11.2,14.8,10.7,45.4c17.6-51.8,34-80.9,38.8-80.9c4.3,0,1.3,20.3-15.2,75
C234.2,156,254.6,116,258,116c2.6,0-0.2,13.7-16.3,73.9c5.5-13.4,8.2-16.2,9.6-16.2c3,0-0.7,15.4,4.6,15.4c1.9,0,6.1-1.5,16.5-17.8
c-8.2,13.3,0.1,18.5,12.2-3.5c-10.2,20.8,6.4,11.3,13.2-4.5c0,0-5,9.2-2.1,9.2c1.5,0-3.4,5.1,1.8,5.1c21.2,0,68.6-68.4,73.3-68.4
c7.1,0-9.6,41-28.6,94"></path>
<path class="st1 pJltqeOU_15" d="M90.1,203.1c-3.9,3.9-4.7,15.2,8.1,15.2c26.2,0,72.5-89.9,82.8-89.9c5.3,0-8.9,53.6-33.5,100.2
c7.1-34,19.9-56.4,29.4-56.4c6.2,0,11.1,14.6,10.9,45.3c17.4-50.8,33.7-80.5,38.5-80.5c4.3,0,1.3,20-15,74.6
c22.7-54.6,42.9-94.7,46.3-94.7c2.6,0,0,13-15.8,73.2c5.4-13.2,8.1-15.7,9.4-15.7c2.9,0-0.8,15.3,4.6,15.3c1.9,0,6-1.3,16.6-18
c-8.4,13.2-0.1,18.8,12.3-3.6c-10.4,21,6.4,11.4,13.2-4.5c0,0-5.2,9.2-2.2,9.2c1.5,0-3.5,5.2,1.9,5.2c21.1,0,68.2-67.8,72.9-67.8
c6.8,0-7.6,36.3-28.1,93.2"></path>
<path class="st1 pJltqeOU_16" d="M90.1,203.1c-4.2,4.2-5.2,15.8,7.9,15.8c26.2,0,72.2-89.9,82.7-89.9c5.3,0-8.6,52.8-33,99.2
c7.1-33.8,19.6-55.7,29-55.7c6.1,0,11.1,14.4,11.1,45.2c17.2-49.9,33.4-80.1,38.2-80.1c4.3,0,1.3,19.8-14.7,74.3
c22.6-53.9,42.6-94,45.8-94c2.5,0,0.1,12.3-15.4,72.4c5.4-12.9,7.9-15.3,9.2-15.3c2.8,0-0.8,15.1,4.5,15.1c1.9,0,5.8-1.2,16.7-18.3
c-8.5,13.1-0.3,19.1,12.3-3.7c-10.6,21.2,6.4,11.4,13.2-4.5c0,0-5.4,9.3-2.4,9.3c1.5,0-3.6,5.3,2,5.3c21,0,67.7-67.1,72.5-67.1
c6.4,0-5.7,31.7-27.5,92.3"></path>
</g>
<g class="arthur-rackham-stroke2">
<path class="st1 oAeZigLb_0" d="M357.6,122.4c-15-10.4-0.9-47,34.8-47c33.5,0,28.7,56.9-14.9,56.9c-5.2,23.4,24.1,46.4,28.1,75.1"></path>
<path class="st1 oAeZigLb_1" d="M357.6,122.4c-15.9-9.1-1.2-47.3,35.1-47.3c34.1,0,28.2,57.2-15.2,57.2c-5.1,23.6,25.2,46.6,28.1,75"></path>
<path class="st1 oAeZigLb_2" d="M357.6,122.4c-16.7-7.7-1.6-47.6,35.5-47.6c34.8,0,27.7,57.6-15.5,57.6c-5.1,23.8,26.4,46.7,28,74.9"></path>
<path class="st1 oAeZigLb_3" d="M357.6,122.4c-17.5-6.4-2-47.9,35.9-47.9c35.4,0,27.1,58-15.8,58c-5,24.1,27.5,46.8,27.9,74.8"></path>
<path class="st1 oAeZigLb_4" d="M357.6,122.4c-18.3-5-2.3-48.2,36.2-48.2c36.1,0,26.6,58.3-16.1,58.3c-4.9,24.3,28.6,47,27.8,74.8"></path>
<path class="st1 oAeZigLb_5" d="M357.6,122.4c-19.2-3.7-2.7-48.5,36.6-48.5c36.7,0,26.1,58.7-16.4,58.7c-4.8,24.5,29.7,47.1,27.8,74.7"></path>
<path class="st1 oAeZigLb_6" d="M357.6,122.4c-20-2.3-3.1-48.8,37-48.8c37.4,0,25.6,59.1-16.7,59.1c-4.7,24.7,30.8,47.3,27.7,74.6"></path>
<path class="st1 oAeZigLb_7" d="M357.6,122.4c-20.8-1-3.4-49.1,37.4-49.1c38,0,25.1,59.4-17,59.4c-4.7,25,31.9,47.4,27.6,74.5"></path>
<path class="st1 oAeZigLb_8" d="M357.6,122.4c-21.6,0.4-3.8-49.3,37.7-49.3c38.7,0,24.6,59.8-17.3,59.8c-4.6,25.2,33,47.6,27.5,74.5"></path>
<path class="st1 oAeZigLb_9" d="M357.6,122.4c-22.4,1.7-4.2-49.6,38.1-49.6c39.3,0,24.1,60.2-17.6,60.2c-4.5,25.4,34.1,47.7,27.4,74.4"></path>
<path class="st1 oAeZigLb_10" d="M357.6,122.4c-23.3,3.1-4.5-49.9,38.5-49.9c40,0,23.6,60.5-17.8,60.5c-4.4,25.6,35.2,47.8,27.4,74.3"></path>
<path class="st1 oAeZigLb_11" d="M357.6,122.4c-24.1,4.4-4.9-50.2,38.8-50.2c40.6,0,23,60.9-18.1,60.9c-4.3,25.9,36.3,48,27.3,74.2"></path>
<path class="st1 oAeZigLb_12" d="M357.6,122.4c-24.9,5.8-5.3-50.5,39.2-50.5c41.3,0,22.5,61.3-18.4,61.3c-4.3,26.1,37.4,48.1,27.2,74.1"></path>
<path class="st1 oAeZigLb_13" d="M357.6,122.4c-25.7,7.1-5.7-50.8,39.6-50.8c41.9,0,22,61.6-18.7,61.6c-4.2,26.3,38.6,48.3,27.1,74.1"></path>
<path class="st1 oAeZigLb_14" d="M357.6,122.4c-26.6,8.5-6-51.1,40-51.1c42.6,0,21.5,62-19,62c-4.1,26.5,39.7,48.4,27.1,74"></path>
<path class="st1 oAeZigLb_15" d="M357.6,122.4c-27.4,9.8-6.4-51.4,40.3-51.4c43.2,0,21,62.4-19.3,62.4c-4,26.7,40.8,48.5,27,73.9"></path>
<path class="st1 oAeZigLb_16" d="M357.6,122.4c-28.2,11.2-6.8-51.7,40.7-51.7c43.9,0,20.5,62.7-19.6,62.7c-3.9,27,41.9,48.7,26.9,73.8"></path>
</g>
<g class="arthur-rackham-stroke3">
<path class="st1 CkxPVGyP_0" d="M432.5,135.2c7.3-4.5,11.1-11.5,4.8-11.5c-8.4,0-26.3,16.7-26.3,30.2c0,9.8,14.8,3.8,28.4-19.9
c-9.5,22.2,4.2,17.9,22.8,5"></path>
<path class="st1 CkxPVGyP_1" d="M432.5,135.2c7-4.4,10.7-11.2,4.6-11.2c-8.3,0-25.8,16.4-25.8,29.5c0,9.7,14.7,3.9,28.2-19.8
c-9.2,21.5,3.9,17.9,22.7,5.3"></path>
<path class="st1 CkxPVGyP_2" d="M432.5,135.2c6.7-4.2,10.3-10.9,4.4-10.9c-8.2,0-25.3,16.1-25.3,28.8c0,9.6,14.6,3.9,28.1-19.8
c-8.8,20.8,3.7,18,22.5,5.6"></path>
<path class="st1 CkxPVGyP_3" d="M432.5,135.2c6.4-4.1,9.9-10.6,4.1-10.6c-8,0-24.9,15.8-24.9,28.1c0,9.5,14.5,4,28-19.7
c-8.5,20.1,3.5,18,22.4,5.9"></path>
<path class="st1 CkxPVGyP_4" d="M432.5,135.2c6.1-4,9.5-10.3,3.9-10.3c-7.9,0-24.4,15.5-24.4,27.4c0,9.5,14.5,4.1,27.8-19.6
c-8.1,19.4,3.3,18,22.3,6.2"></path>
<path class="st1 CkxPVGyP_5" d="M432.5,135.2c5.8-3.8,9.1-10,3.7-10c-7.8,0-23.9,15.2-23.9,26.7c0,9.4,14.4,4.1,27.7-19.5
c-7.8,18.7,3,18,22.2,6.5"></path>
<path class="st1 CkxPVGyP_6" d="M432.5,135.2c5.5-3.7,8.7-9.7,3.5-9.7c-7.7,0-23.4,14.9-23.4,26c0,9.3,14.3,4.2,27.6-19.5
c-7.4,18.1,2.8,18.1,22,6.8"></path>
<path class="st1 CkxPVGyP_7" d="M432.5,135.2c5.1-3.5,8.3-9.4,3.3-9.4c-7.6,0-22.9,14.6-22.9,25.4c0,9.2,14.2,4.2,27.5-19.4
c-7.1,17.4,2.6,18.1,21.9,7.1"></path>
<path class="st1 CkxPVGyP_8" d="M432.5,135.2c4.8-3.4,7.8-9.1,3-9.1c-7.5,0-22.5,14.4-22.5,24.7c0,9.2,14.1,4.3,27.3-19.3
c-6.7,16.7,2.3,18.1,21.8,7.5"></path>
<path class="st1 CkxPVGyP_9" d="M432.5,135.2c4.5-3.3,7.4-8.8,2.8-8.8c-7.4,0-22,14.1-22,24c0,9.1,14,4.3,27.2-19.2c-6.4,16,2.1,18.2,21.6,7.8
"></path>
<path class="st1 CkxPVGyP_10" d="M432.5,135.2c4.2-3.1,7-8.5,2.6-8.5c-7.2,0-21.5,13.8-21.5,23.3c0,9,14,4.4,27.1-19.2
c-6,15.3,1.9,18.2,21.5,8.1"></path>
<path class="st1 CkxPVGyP_11" d="M432.5,135.2c3.9-3,6.6-8.2,2.4-8.2c-7.1,0-21,13.5-21,22.6c0,8.9,13.9,4.5,27-19.1
c-5.7,14.6,1.6,18.2,21.4,8.4"></path>
<path class="st1 CkxPVGyP_12" d="M432.5,135.2c3.6-2.8,6.2-7.9,2.2-7.9c-7,0-20.6,13.2-20.6,21.9c0,8.9,13.8,4.5,26.8-19
c-5.3,13.9,1.4,18.2,21.2,8.7"></path>
<path class="st1 CkxPVGyP_13" d="M432.5,135.2c3.2-2.7,5.8-7.6,1.9-7.6c-6.9,0-20.1,12.9-20.1,21.2c0,8.8,13.7,4.6,26.7-18.9
c-5,13.2,1.2,18.3,21.1,9"></path>
<path class="st1 CkxPVGyP_14" d="M432.5,135.2c2.9-2.6,5.4-7.3,1.7-7.3c-6.8,0-19.6,12.6-19.6,20.5c0,8.7,13.6,4.6,26.6-18.9
c-4.6,12.5,0.9,18.3,21,9.3"></path>
<path class="st1 CkxPVGyP_15" d="M432.5,135.2c2.6-2.4,5-7,1.5-7c-6.7,0-19.1,12.3-19.1,19.9c0,8.7,13.6,4.7,26.4-18.8
c-4.3,11.8,0.7,18.3,20.8,9.6"></path>
<path class="st1 CkxPVGyP_16" d="M432.5,135.2c2.3-2.3,4.6-6.7,1.3-6.7c-6.5,0-18.6,12-18.6,19.2c0,8.6,13.5,4.8,26.3-18.7
c-3.9,11.2,0.5,18.4,20.7,9.9"></path>
</g>
<g class="arthur-rackham-stroke4">
<path class="st1 DQcZGLgR_0" d="M472.1,125.9c4.2-2.2,7-9.7,3.4-9.7c-7.9,0-22.4,22.8-13.2,22.8c9.9,0,38.4-29.8,50.6-49.8
c-9.9,21.1-43.7,56.9-24.1,56.9"></path>
<path class="st1 DQcZGLgR_1" d="M472.1,125.9c3.9-2.1,6.8-9.5,3.1-9.5c-7.8,0-21.9,22.3-12.8,22.3c9.9,0,38.3-29.6,50.6-49.7
c-9.9,21-43.1,56.9-24.3,57.1"></path>
<path class="st1 DQcZGLgR_2" d="M472.1,125.9c3.7-1.9,6.6-9.3,2.9-9.3c-7.6,0-21.4,21.8-12.4,21.8c9.9,0,38.2-29.4,50.5-49.7
c-9.9,20.8-42.5,56.8-24.4,57.3"></path>
<path class="st1 DQcZGLgR_3" d="M472,125.9c3.4-1.8,6.4-9,2.7-9c-7.4,0-20.9,21.3-12,21.3c10,0,38-29.2,50.5-49.7
c-9.9,20.6-41.8,56.8-24.6,57.6"></path>
<path class="st1 DQcZGLgR_4" d="M472,125.9c3.1-1.7,6.2-8.8,2.5-8.8c-7.3,0-20.4,20.8-11.6,20.8c10,0,37.9-29,50.4-49.7
c-9.9,20.5-41.2,56.8-24.7,57.8"></path>
<path class="st1 DQcZGLgR_5" d="M472,125.9c2.9-1.5,6-8.5,2.2-8.5c-7.1,0-19.9,20.3-11.2,20.3c10,0,37.7-28.8,50.4-49.6
c-9.9,20.3-40.6,56.8-24.9,58.1"></path>
<path class="st1 DQcZGLgR_6" d="M472,126c2.6-1.4,5.8-8.3,2-8.3c-6.9,0-19.4,19.8-10.8,19.8c10.1,0,37.6-28.6,50.4-49.6
c-9.9,20.1-39.9,56.8-25,58.3"></path>
<path class="st1 DQcZGLgR_7" d="M472,126c2.4-1.2,5.6-8.1,1.8-8.1c-6.8,0-19,19.3-10.4,19.3c10.1,0,37.5-28.4,50.3-49.6
c-9.9,19.9-39.3,56.8-25.2,58.5"></path>
<path class="st1 DQcZGLgR_8" d="M472,126c2.1-1.1,5.4-7.8,1.6-7.8c-6.6,0-18.5,18.8-9.9,18.8c10.1,0,37.3-28.3,50.3-49.6
c-9.9,19.8-38.7,56.8-25.3,58.8"></path>
<path class="st1 DQcZGLgR_9" d="M471.9,126c1.8-1,5.2-7.6,1.3-7.6c-6.4,0-18,18.3-9.5,18.3c10.2,0,37.2-28.1,50.2-49.5
c-9.9,19.6-38,56.8-25.5,59"></path>
<path class="st1 DQcZGLgR_10" d="M471.9,126c1.6-0.8,4.9-7.4,1.1-7.4c-6.3,0-17.5,17.8-9.1,17.8c10.2,0,37-27.9,50.2-49.5
c-9.9,19.4-37.4,56.8-25.6,59.2"></path>
<path class="st1 DQcZGLgR_11" d="M471.9,126c1.3-0.7,4.7-7.1,0.9-7.1c-6.1,0-17,17.3-8.7,17.3c10.2,0,36.9-27.7,50.2-49.5
c-9.9,19.3-36.8,56.8-25.8,59.5"></path>
<path class="st1 DQcZGLgR_12" d="M471.9,126c1-0.6,4.5-6.9,0.7-6.9c-5.9,0-16.5,16.7-8.3,16.7c10.3,0,36.8-27.5,50.1-49.4
c-9.9,19.1-36.1,56.8-25.9,59.7"></path>
<path class="st1 DQcZGLgR_13" d="M471.9,126.1c0.8-0.4,4.3-6.7,0.5-6.7c-5.8,0-16,16.2-7.9,16.2c10.3,0,36.6-27.3,50.1-49.4
c-9.9,18.9-35.5,56.8-26.1,60"></path>
<path class="st1 DQcZGLgR_14" d="M471.9,126.1c0.5-0.3,4.1-6.4,0.2-6.4c-5.6,0-15.5,15.7-7.5,15.7c10.3,0,36.5-27.1,50.1-49.4
c-9.9,18.8-34.9,56.8-26.2,60.2"></path>
<path class="st1 DQcZGLgR_15" d="M471.8,126.1c0.3-0.1,3.9-6.2,0-6.2c-5.4,0-15.1,15.2-7.1,15.2c10.4,0,36.3-26.9,50-49.4
c-9.9,18.6-34.2,56.7-26.4,60.4"></path>
<path class="st1 DQcZGLgR_16" d="M471.8,126.1c0,0,3.7-5.9-0.2-5.9c-5.3,0-14.6,14.7-6.6,14.7c10.4,0,36.2-26.7,50-49.3
c-9.9,18.4-33.6,56.7-26.5,60.7"></path>
</g>
<g class="arthur-rackham-stroke5">
<path class="st1 BBXdWhRI_0" d="M512.5,117.5c5.3-3.5,6.5-9.7,3.2-9.7c-7.7,0-22.6,24.9-13.5,24.9c9.9,0,37.3-29.8,63-75.2
c0,0-39.5,68.2-27.6,68.2c6.2,0,13.1-19.6,17-22.4c-20.6,51.7,73.4-27.9,58.3-27.9c-11,0-40.5,39.9-31,39.9
c6.8,0,25.9-20.6,25.9-20.6c-18,22.4-2.5,23.1,20.3-7.5c-10.2,12.2-8.6,15.9-5.7,15.9c0,0,1.9-6.2,22.3-20.7
c-8,8.8-8.5,14.4-5.3,14.4c0,0,9.1-13.1,19.4-18.3"></path>
<path class="st1 BBXdWhRI_1" d="M512.5,117.5c5-3.3,6.3-9.4,3-9.4c-7.6,0-22.1,24.3-13.1,24.3c9.8,0,37.2-29.8,63-75.3
c0,0-39.1,68.1-27.5,68.1c6.1,0,13.2-19.9,17.2-22.6c-20.4,51.6,72.6-27,57.7-27c-10.9,0-39.7,39.2-30.4,39.2
c6.7,0,25.6-20.3,25.6-20.3c-17.7,22.2-2.4,22.5,20.3-7.7c-9.8,12.1-8.4,15.8-5.7,15.8c0,0,1.9-6,22.3-20.5
c-7.9,8.8-8.4,14.2-5.4,14.2c0,0,8.9-12.7,19.2-17.9"></path>
<path class="st1 BBXdWhRI_2" d="M512.5,117.5c4.7-3.1,6.1-9.1,2.8-9.1c-7.4,0-21.6,23.7-12.7,23.7c9.6,0,37.2-29.9,62.9-75.4
c0,0-38.8,68.1-27.5,68.1c5.9,0,13.2-20.3,17.3-22.7c-20.2,51.4,71.7-26.1,57-26.1c-10.7,0-39,38.4-29.7,38.4
c6.5,0,25.4-20,25.4-20c-17.3,21.9-2.2,21.9,20.3-7.9c-9.5,12-8.2,15.7-5.7,15.7c0,0,2-5.8,22.3-20.3c-7.7,8.8-8.3,14.1-5.5,14.1
c0,0,8.7-12.2,19-17.5"></path>
<path class="st1 BBXdWhRI_3" d="M512.5,117.5c4.3-2.8,5.9-8.8,2.6-8.8c-7.3,0-21.1,23.2-12.3,23.2c9.5,0,37.2-30,62.9-75.5
c0,0-38.4,68-27.4,68c5.7,0,13.3-20.6,17.5-22.9c-20,51.2,70.9-25.2,56.4-25.2c-10.6,0-38.2,37.7-29.1,37.7
c6.4,0,25.2-19.7,25.2-19.7c-17,21.6-2.1,21.3,20.4-8.1c-9.1,11.8-8,15.5-5.6,15.5c0,0,2-5.6,22.4-20.1c-7.6,8.8-8.1,13.9-5.5,13.9
c0,0,8.5-11.8,18.8-17"></path>
<path class="st1 BBXdWhRI_4" d="M512.5,117.5c4-2.6,5.7-8.5,2.4-8.5c-7.1,0-20.6,22.6-11.9,22.6c9.4,0,37.1-30.1,62.9-75.5
c0,0-38.1,67.9-27.3,67.9c5.5,0,13.3-21,17.6-23.1c-19.7,51.1,70-24.3,55.8-24.3c-10.5,0-37.5,37-28.5,37c6.2,0,25-19.4,25-19.4
c-16.7,21.4-1.9,20.8,20.4-8.3c-8.8,11.7-7.8,15.4-5.6,15.4c0,0,2-5.4,22.4-19.9c-7.5,8.8-8,13.8-5.6,13.8c0,0,8.3-11.4,18.6-16.6"></path>
<path class="st1 BBXdWhRI_5" d="M512.5,117.5c3.7-2.4,5.5-8.3,2.2-8.3c-7,0-20.1,22-11.5,22c9.3,0,37.1-30.2,62.8-75.6
c0,0-37.7,67.8-27.2,67.8c5.3,0,13.4-21.3,17.8-23.3c-19.5,50.9,69.2-23.4,55.1-23.4c-10.3,0-36.8,36.3-27.9,36.3
c6.1,0,24.8-19.1,24.8-19.1c-16.3,21.1-1.8,20.2,20.4-8.5c-8.4,11.6-7.6,15.3-5.6,15.3c0,0,2.1-5.2,22.4-19.7
c-7.3,8.8-7.9,13.6-5.7,13.6c0,0,8.1-10.9,18.4-16.2"></path>
<path class="st1 BBXdWhRI_6" d="M512.5,117.5c3.3-2.2,5.3-8,2-8c-6.8,0-19.6,21.5-11.1,21.5c9.1,0,37.1-30.3,62.8-75.7
c0,0-37.4,67.7-27.1,67.7c5.1,0,13.5-21.6,17.9-23.4c-19.3,50.7,68.3-22.5,54.5-22.5c-10.2,0-36,35.5-27.2,35.5
c5.9,0,24.6-18.8,24.6-18.8c-16,20.8-1.6,19.6,20.5-8.6c-8.1,11.5-7.4,15.1-5.6,15.1c0,0,2.1-5,22.5-19.5
c-7.2,8.8-7.8,13.5-5.8,13.5c0,0,7.9-10.5,18.2-15.7"></path>
<path class="st1 BBXdWhRI_7" d="M512.5,117.5c3-2,5.1-7.7,1.8-7.7c-6.7,0-19.2,20.9-10.6,20.9c9,0,37-30.4,62.8-75.8c0,0-37,67.6-27.1,67.6
c4.9,0,13.5-22,18.1-23.6c-19.1,50.5,67.4-21.6,53.9-21.6c-10,0-35.3,34.8-26.6,34.8c5.8,0,24.3-18.5,24.3-18.5
c-15.7,20.6-1.5,19,20.5-8.8c-7.7,11.3-7.2,15-5.5,15c0,0,2.1-4.8,22.5-19.3c-7,8.8-7.6,13.3-5.8,13.3c0,0,7.7-10.1,18-15.3"></path>
<path class="st1 BBXdWhRI_8" d="M512.5,117.5c2.7-1.7,4.8-7.4,1.6-7.4c-6.5,0-18.7,20.3-10.2,20.3c8.9,0,37-30.4,62.7-75.9
c0,0-36.7,67.5-27,67.5c4.8,0,13.6-22.3,18.2-23.8c-18.9,50.4,66.6-20.7,53.2-20.7c-9.9,0-34.5,34.1-26,34.1
c5.7,0,24.1-18.2,24.1-18.2c-15.3,20.3-1.3,18.5,20.6-9c-7.4,11.2-7,14.9-5.5,14.9c0,0,2.2-4.6,22.5-19.1
c-6.9,8.8-7.5,13.2-5.9,13.2c0,0,7.5-9.7,17.8-14.9"></path>
<path class="st1 BBXdWhRI_9" d="M512.5,117.5c2.3-1.5,4.6-7.1,1.3-7.1c-6.3,0-18.2,19.8-9.8,19.8c8.8,0,37-30.5,62.7-76
c0,0-36.4,67.4-26.9,67.4c4.6,0,13.7-22.7,18.4-23.9c-18.7,50.2,65.7-19.8,52.6-19.8c-9.7,0-33.8,33.4-25.4,33.4
c5.5,0,23.9-17.9,23.9-17.9c-15,20-1.1,17.9,20.6-9.2c-7,11.1-6.8,14.7-5.5,14.7c0,0,2.2-4.4,22.6-18.9c-6.7,8.8-7.4,13-6,13
c0,0,7.3-9.2,17.6-14.4"></path>
<path class="st1 BBXdWhRI_10" d="M512.5,117.5c2-1.3,4.4-6.8,1.1-6.8c-6.2,0-17.7,19.2-9.4,19.2c8.6,0,36.9-30.6,62.7-76.1
c0,0-36,67.4-26.8,67.4c4.4,0,13.7-23,18.5-24.1c-18.5,50,64.9-18.9,52-18.9c-9.6,0-33.1,32.6-24.7,32.6c5.4,0,23.7-17.6,23.7-17.6
c-14.7,19.7-1,17.3,20.6-9.4c-6.7,11-6.6,14.6-5.5,14.6c0,0,2.2-4.2,22.6-18.7c-6.6,8.8-7.3,12.9-6.1,12.9c0,0,7.1-8.8,17.4-14"></path>
<path class="st1 BBXdWhRI_11" d="M512.5,117.5c1.7-1.1,4.2-6.6,0.9-6.6c-6,0-17.2,18.7-9,18.7c8.5,0,36.9-30.7,62.6-76.2
c0,0-35.7,67.3-26.7,67.3c4.2,0,13.8-23.4,18.7-24.3c-18.3,49.9,64-18,51.3-18c-9.4,0-32.3,31.9-24.1,31.9
c5.2,0,23.5-17.3,23.5-17.3c-14.4,19.5-0.8,16.8,20.7-9.6c-6.3,10.8-6.4,14.4-5.5,14.4c0,0,2.2-4,22.6-18.5
c-6.5,8.8-7.1,12.7-6.1,12.7c0,0,6.9-8.4,17.2-13.6"></path>
<path class="st1 BBXdWhRI_12" d="M512.5,117.5c1.3-0.9,4-6.3,0.7-6.3c-5.9,0-16.7,18.1-8.6,18.1c8.4,0,36.9-30.8,62.6-76.2
c0,0-35.3,67.2-26.6,67.2c4,0,13.8-23.7,18.9-24.4c-18.1,49.7,63.1-17.1,50.7-17.1c-9.3,0-31.6,31.2-23.5,31.2
c5.1,0,23.3-17,23.3-17c-14,19.2-0.7,16.2,20.7-9.8c-6,10.7-6.2,14.3-5.4,14.3c0,0,2.3-3.8,22.6-18.3c-6.3,8.8-7,12.6-6.2,12.6
c0,0,6.7-7.9,17-13.1"></path>
<path class="st1 BBXdWhRI_13" d="M512.5,117.5c1-0.7,3.8-6,0.5-6c-5.7,0-16.2,17.5-8.2,17.5c8.3,0,36.8-30.9,62.6-76.3c0,0-35,67.1-26.6,67.1
c3.8,0,13.9-24.1,19-24.6C542,144.7,622.2,78.9,610,78.9c-9.1,0-30.8,30.5-22.9,30.5c5,0,23.1-16.7,23.1-16.7
c-13.7,18.9-0.5,15.6,20.7-10c-5.6,10.6-5.9,14.2-5.4,14.2c0,0,2.3-3.6,22.7-18.1c-6.2,8.8-6.9,12.4-6.3,12.4
c0,0,6.5-7.5,16.8-12.7"></path>
<path class="st1 BBXdWhRI_14" d="M512.5,117.5c0.7-0.4,3.6-5.7,0.3-5.7c-5.6,0-15.7,17-7.7,17c8.1,0,36.8-31,62.5-76.4c0,0-34.6,67-26.5,67
c3.6,0,14-24.4,19.2-24.8c-17.7,49.4,61.4-15.3,49.4-15.3c-9,0-30.1,29.7-22.2,29.7c4.8,0,22.8-16.4,22.8-16.4
c-13.4,18.7-0.4,15,20.8-10.1c-5.3,10.5-5.7,14-5.4,14c0,0,2.3-3.4,22.7-17.9c-6,8.8-6.8,12.3-6.4,12.3c0,0,6.3-7.1,16.6-12.3"></path>
<path class="st1 BBXdWhRI_15" d="M512.5,117.5c0.3-0.2,3.4-5.4,0.1-5.4c-5.4,0-15.2,16.4-7.3,16.4c8,0,36.8-31.1,62.5-76.5
c0,0-34.3,66.9-26.4,66.9c3.5,0,14-24.8,19.3-25c-17.5,49.2,60.6-14.4,48.8-14.4c-8.8,0-29.4,29-21.6,29c4.7,0,22.6-16.1,22.6-16.1
c-13,18.4-0.2,14.5,20.8-10.3C626.4,92.4,625.8,96,626,96c0,0,2.4-3.2,22.7-17.7c-5.9,8.8-6.6,12.1-6.4,12.1c0,0,6-6.6,16.4-11.8"></path>
<path class="st1 BBXdWhRI_16" d="M512.5,117.5c0,0,3.2-5.2-0.1-5.2c-5.3,0-14.8,15.8-6.9,15.8c7.9,0,36.7-31.1,62.5-76.6
c0,0-33.9,66.8-26.3,66.8c3.3,0,14.1-25.1,19.5-25.1c-17.3,49,59.7-13.5,48.2-13.5c-8.7,0-28.6,28.3-21,28.3
c4.5,0,22.4-15.8,22.4-15.8c-12.7,18.1-0.1,13.9,20.9-10.5c-4.6,10.2-5.3,13.8-5.3,13.8s2.4-3,22.8-17.5c-5.7,8.8-6.5,12-6.5,12
s5.8-6.2,16.2-11.4"></path>
</g>
<g class="arthur-rackham-stroke6">
<path class="st1 jIaJNUNA_0" d="M651.5,84.4c-11,21.4,17.9,8.3,17.9,15.4c0,16.2-107.8,76.9-129.5,110.1c86.8-66.5,331.1-209.7,321-96.7"></path>
<path class="st1 jIaJNUNA_1" d="M652,84c-11.1,21.3,17.8,8.3,17.8,15.5c0,16.2-107.3,76.8-129.3,109.9c86.8-66.5,331.8-210.6,320.4-96.2"></path>
<path class="st1 jIaJNUNA_2" d="M652.4,83.7c-11.2,21.2,17.8,8.3,17.8,15.6c0,16.2-106.8,76.8-129.2,109.7c86.8-66.5,332.5-211.4,319.8-95.7"></path>
<path class="st1 jIaJNUNA_3" d="M652.9,83.3c-11.3,21.2,17.8,8.3,17.8,15.7c0,16.3-106.4,76.7-129,109.5c86.8-66.5,333.1-212.3,319.3-95.2"></path>
<path class="st1 jIaJNUNA_4" d="M653.3,82.9C641.9,104,671,91.3,671,98.7c0,16.3-105.9,76.6-128.8,109.2C629,141.4,876.1-5.2,860.9,113.3"></path>
<path class="st1 jIaJNUNA_5" d="M653.8,82.6c-11.5,21.1,17.7,8.4,17.7,15.8c0,16.3-105.4,76.6-128.7,109c86.8-66.5,334.5-214,318.1-94.2"></path>
<path class="st1 jIaJNUNA_6" d="M654.2,82.2c-11.6,21,17.7,8.4,17.7,15.9c0,16.4-104.9,76.5-128.5,108.8C630.2,140.4,878.6-8,860.9,113.3"></path>
<path class="st1 jIaJNUNA_7" d="M654.7,81.8c-11.7,20.9,17.6,8.4,17.6,16c0,16.4-104.4,76.4-128.3,108.6c86.8-66.5,335.9-215.7,316.9-93.1"></path>
<path class="st1 jIaJNUNA_8" d="M655.1,81.5c-11.8,20.9,17.6,8.4,17.6,16.1c0,16.4-104,76.4-128.2,108.4c86.8-66.5,336.6-216.6,316.3-92.6"></path>
<path class="st1 jIaJNUNA_9" d="M655.6,81.1c-11.9,20.8,17.6,8.4,17.6,16.2c0,16.5-103.5,76.3-128,108.1c86.8-66.5,337.3-217.5,315.7-92.1"></path>
<path class="st1 jIaJNUNA_10" d="M656,80.7c-12,20.8,17.5,8.5,17.5,16.3c0,16.5-103,76.2-127.8,107.9c86.8-66.5,338-218.3,315.2-91.6"></path>
<path class="st1 jIaJNUNA_11" d="M656.5,80.3C644.4,101,674,88.8,674,96.7c0,16.5-102.5,76.2-127.7,107.7c86.8-66.5,338.7-219.2,314.6-91.1"></path>
<path class="st1 jIaJNUNA_12" d="M656.9,80c-12.2,20.6,17.5,8.5,17.5,16.4c0,16.6-102.1,76.1-127.5,107.5c86.8-66.5,339.4-220,314-90.6"></path>
<path class="st1 jIaJNUNA_13" d="M657.4,79.6c-12.3,20.6,17.4,8.5,17.4,16.5c0,16.6-101.6,76-127.3,107.2c86.8-66.5,340-220.9,313.4-90.1"></path>
<path class="st1 jIaJNUNA_14" d="M657.8,79.2c-12.4,20.5,17.4,8.5,17.4,16.6c0,16.6-101.1,76-127.2,107c86.8-66.5,340.7-221.8,312.8-89.6"></path>
<path class="st1 jIaJNUNA_15" d="M658.3,78.9c-12.5,20.4,17.4,8.5,17.4,16.7c0,16.7-100.6,75.9-127,106.8c86.8-66.5,341.4-222.6,312.2-89.1"></path>
<path class="st1 jIaJNUNA_16" d="M658.7,78.5c-12.5,20.4,17.3,8.5,17.3,16.8c0,16.7-100.2,75.8-126.8,106.6c86.8-66.5,342.1-223.5,311.7-88.6"></path>
</g>
<style>
.pJltqeOU_0{stroke-dasharray:1150 1152;stroke-dashoffset:1151;animation:pJltqeOU_draw 2000ms linear 0ms forwards;}.pJltqeOU_1{stroke-dasharray:1145 1147;stroke-dashoffset:1146;animation:pJltqeOU_draw 2000ms linear 0ms forwards;}.pJltqeOU_2{stroke-dasharray:1139 1141;stroke-dashoffset:1140;animation:pJltqeOU_draw 2000ms linear 0ms forwards;}.pJltqeOU_3{stroke-dasharray:1133 1135;stroke-dashoffset:1134;animation:pJltqeOU_draw 2000ms linear 0ms forwards;}.pJltqeOU_4{stroke-dasharray:1127 1129;stroke-dashoffset:1128;animation:pJltqeOU_draw 2000ms linear 0ms forwards;}.pJltqeOU_5{stroke-dasharray:1122 1124;stroke-dashoffset:1123;animation:pJltqeOU_draw 2000ms linear 0ms forwards;}.pJltqeOU_6{stroke-dasharray:1116 1118;stroke-dashoffset:1117;animation:pJltqeOU_draw 2000ms linear 0ms forwards;}.pJltqeOU_7{stroke-dasharray:1111 1113;stroke-dashoffset:1112;animation:pJltqeOU_draw 2000ms linear 0ms forwards;}.pJltqeOU_8{stroke-dasharray:1106 1108;stroke-dashoffset:1107;animation:pJltqeOU_draw 2000ms linear 0ms forwards;}.pJltqeOU_9{stroke-dasharray:1100 1102;stroke-dashoffset:1101;animation:pJltqeOU_draw 2000ms linear 0ms forwards;}.pJltqeOU_10{stroke-dasharray:1095 1097;stroke-dashoffset:1096;animation:pJltqeOU_draw 2000ms linear 0ms forwards;}.pJltqeOU_11{stroke-dasharray:1090 1092;stroke-dashoffset:1091;animation:pJltqeOU_draw 2000ms linear 0ms forwards;}.pJltqeOU_12{stroke-dasharray:1084 1086;stroke-dashoffset:1085;animation:pJltqeOU_draw 2000ms linear 0ms forwards;}.pJltqeOU_13{stroke-dasharray:1079 1081;stroke-dashoffset:1080;animation:pJltqeOU_draw 2000ms linear 0ms forwards;}.pJltqeOU_14{stroke-dasharray:1074 1076;stroke-dashoffset:1075;animation:pJltqeOU_draw 2000ms linear 0ms forwards;}.pJltqeOU_15{stroke-dasharray:1069 1071;stroke-dashoffset:1070;animation:pJltqeOU_draw 2000ms linear 0ms forwards;}.pJltqeOU_16{stroke-dasharray:1063 1065;stroke-dashoffset:1064;animation:pJltqeOU_draw 2000ms linear 0ms forwards;}@keyframes pJltqeOU_draw{100%{stroke-dashoffset:0;}}@keyframes pJltqeOU_fade{0%{stroke-opacity:1;}93.54838709677419%{stroke-opacity:1;}100%{stroke-opacity:0;}}
.oAeZigLb_0{stroke-dasharray:247 249;stroke-dashoffset:248;animation:oAeZigLb_draw 700ms ease-out 0ms forwards;}.oAeZigLb_1{stroke-dasharray:249 251;stroke-dashoffset:250;animation:oAeZigLb_draw 700ms ease-out 0ms forwards;}.oAeZigLb_2{stroke-dasharray:250 252;stroke-dashoffset:251;animation:oAeZigLb_draw 700ms ease-out 0ms forwards;}.oAeZigLb_3{stroke-dasharray:252 254;stroke-dashoffset:253;animation:oAeZigLb_draw 700ms ease-out 0ms forwards;}.oAeZigLb_4{stroke-dasharray:254 256;stroke-dashoffset:255;animation:oAeZigLb_draw 700ms ease-out 0ms forwards;}.oAeZigLb_5{stroke-dasharray:255 257;stroke-dashoffset:256;animation:oAeZigLb_draw 700ms ease-out 0ms forwards;}.oAeZigLb_6{stroke-dasharray:257 259;stroke-dashoffset:258;animation:oAeZigLb_draw 700ms ease-out 0ms forwards;}.oAeZigLb_7{stroke-dasharray:259 261;stroke-dashoffset:260;animation:oAeZigLb_draw 700ms ease-out 0ms forwards;}.oAeZigLb_8{stroke-dasharray:261 263;stroke-dashoffset:262;animation:oAeZigLb_draw 700ms ease-out 0ms forwards;}.oAeZigLb_9{stroke-dasharray:263 265;stroke-dashoffset:264;animation:oAeZigLb_draw 700ms ease-out 0ms forwards;}.oAeZigLb_10{stroke-dasharray:265 267;stroke-dashoffset:266;animation:oAeZigLb_draw 700ms ease-out 0ms forwards;}.oAeZigLb_11{stroke-dasharray:267 269;stroke-dashoffset:268;animation:oAeZigLb_draw 700ms ease-out 0ms forwards;}.oAeZigLb_12{stroke-dasharray:270 272;stroke-dashoffset:271;animation:oAeZigLb_draw 700ms ease-out 0ms forwards;}.oAeZigLb_13{stroke-dasharray:272 274;stroke-dashoffset:273;animation:oAeZigLb_draw 700ms ease-out 0ms forwards;}.oAeZigLb_14{stroke-dasharray:274 276;stroke-dashoffset:275;animation:oAeZigLb_draw 700ms ease-out 0ms forwards;}.oAeZigLb_15{stroke-dasharray:277 279;stroke-dashoffset:278;animation:oAeZigLb_draw 700ms ease-out 0ms forwards;}.oAeZigLb_16{stroke-dasharray:279 281;stroke-dashoffset:280;animation:oAeZigLb_draw 700ms ease-out 0ms forwards;}@keyframes oAeZigLb_draw{100%{stroke-dashoffset:0;}}@keyframes oAeZigLb_fade{0%{stroke-opacity:1;}91.83673469387755%{stroke-opacity:1;}100%{stroke-opacity:0;}}
.CkxPVGyP_0{stroke-dasharray:146 148;stroke-dashoffset:147;animation:CkxPVGyP_draw 500ms ease 0ms forwards;}.CkxPVGyP_1{stroke-dasharray:143 145;stroke-dashoffset:144;animation:CkxPVGyP_draw 500ms ease 0ms forwards;}.CkxPVGyP_2{stroke-dasharray:141 143;stroke-dashoffset:142;animation:CkxPVGyP_draw 500ms ease 0ms forwards;}.CkxPVGyP_3{stroke-dasharray:139 141;stroke-dashoffset:140;animation:CkxPVGyP_draw 500ms ease 0ms forwards;}.CkxPVGyP_4{stroke-dasharray:136 138;stroke-dashoffset:137;animation:CkxPVGyP_draw 500ms ease 0ms forwards;}.CkxPVGyP_5{stroke-dasharray:134 136;stroke-dashoffset:135;animation:CkxPVGyP_draw 500ms ease 0ms forwards;}.CkxPVGyP_6{stroke-dasharray:132 134;stroke-dashoffset:133;animation:CkxPVGyP_draw 500ms ease 0ms forwards;}.CkxPVGyP_7{stroke-dasharray:130 132;stroke-dashoffset:131;animation:CkxPVGyP_draw 500ms ease 0ms forwards;}.CkxPVGyP_8{stroke-dasharray:128 130;stroke-dashoffset:129;animation:CkxPVGyP_draw 500ms ease 0ms forwards;}.CkxPVGyP_9{stroke-dasharray:125 127;stroke-dashoffset:126;animation:CkxPVGyP_draw 500ms ease 0ms forwards;}.CkxPVGyP_10{stroke-dasharray:123 125;stroke-dashoffset:124;animation:CkxPVGyP_draw 500ms ease 0ms forwards;}.CkxPVGyP_11{stroke-dasharray:121 123;stroke-dashoffset:122;animation:CkxPVGyP_draw 500ms ease 0ms forwards;}.CkxPVGyP_12{stroke-dasharray:119 121;stroke-dashoffset:120;animation:CkxPVGyP_draw 500ms ease 0ms forwards;}.CkxPVGyP_13{stroke-dasharray:117 119;stroke-dashoffset:118;animation:CkxPVGyP_draw 500ms ease 0ms forwards;}.CkxPVGyP_14{stroke-dasharray:115 117;stroke-dashoffset:116;animation:CkxPVGyP_draw 500ms ease 0ms forwards;}.CkxPVGyP_15{stroke-dasharray:113 115;stroke-dashoffset:114;animation:CkxPVGyP_draw 500ms ease 0ms forwards;}.CkxPVGyP_16{stroke-dasharray:111 113;stroke-dashoffset:112;animation:CkxPVGyP_draw 500ms ease 0ms forwards;}@keyframes CkxPVGyP_draw{100%{stroke-dashoffset:0;}}@keyframes CkxPVGyP_fade{0%{stroke-opacity:1;}91.48936170212767%{stroke-opacity:1;}100%{stroke-opacity:0;}}
.DQcZGLgR_0{stroke-dasharray:186 188;stroke-dashoffset:187;animation:DQcZGLgR_draw 500ms ease 0ms forwards;}.DQcZGLgR_1{stroke-dasharray:185 187;stroke-dashoffset:186;animation:DQcZGLgR_draw 500ms ease 0ms forwards;}.DQcZGLgR_2{stroke-dasharray:184 186;stroke-dashoffset:185;animation:DQcZGLgR_draw 500ms ease 0ms forwards;}.DQcZGLgR_3{stroke-dasharray:183 185;stroke-dashoffset:184;animation:DQcZGLgR_draw 500ms ease 0ms forwards;}.DQcZGLgR_4{stroke-dasharray:181 183;stroke-dashoffset:182;animation:DQcZGLgR_draw 500ms ease 0ms forwards;}.DQcZGLgR_5{stroke-dasharray:180 182;stroke-dashoffset:181;animation:DQcZGLgR_draw 500ms ease 0ms forwards;}.DQcZGLgR_6{stroke-dasharray:179 181;stroke-dashoffset:180;animation:DQcZGLgR_draw 500ms ease 0ms forwards;}.DQcZGLgR_7{stroke-dasharray:178 180;stroke-dashoffset:179;animation:DQcZGLgR_draw 500ms ease 0ms forwards;}.DQcZGLgR_8{stroke-dasharray:177 179;stroke-dashoffset:178;animation:DQcZGLgR_draw 500ms ease 0ms forwards;}.DQcZGLgR_9{stroke-dasharray:176 178;stroke-dashoffset:177;animation:DQcZGLgR_draw 500ms ease 0ms forwards;}.DQcZGLgR_10{stroke-dasharray:175 177;stroke-dashoffset:176;animation:DQcZGLgR_draw 500ms ease 0ms forwards;}.DQcZGLgR_11{stroke-dasharray:173 175;stroke-dashoffset:174;animation:DQcZGLgR_draw 500ms ease 0ms forwards;}.DQcZGLgR_12{stroke-dasharray:172 174;stroke-dashoffset:173;animation:DQcZGLgR_draw 500ms ease 0ms forwards;}.DQcZGLgR_13{stroke-dasharray:171 173;stroke-dashoffset:172;animation:DQcZGLgR_draw 500ms ease 0ms forwards;}.DQcZGLgR_14{stroke-dasharray:170 172;stroke-dashoffset:171;animation:DQcZGLgR_draw 500ms ease 0ms forwards;}.DQcZGLgR_15{stroke-dasharray:169 171;stroke-dashoffset:170;animation:DQcZGLgR_draw 500ms ease 0ms forwards;}.DQcZGLgR_16{stroke-dasharray:168 170;stroke-dashoffset:169;animation:DQcZGLgR_draw 500ms ease 0ms forwards;}@keyframes DQcZGLgR_draw{100%{stroke-dashoffset:0;}}@keyframes DQcZGLgR_fade{0%{stroke-opacity:1;}91.48936170212767%{stroke-opacity:1;}100%{stroke-opacity:0;}}
.BBXdWhRI_0{stroke-dasharray:588 590;stroke-dashoffset:589;animation:BBXdWhRI_draw 1500ms ease-out 0ms forwards;}.BBXdWhRI_1{stroke-dasharray:583 585;stroke-dashoffset:584;animation:BBXdWhRI_draw 1500ms ease-out 0ms forwards;}.BBXdWhRI_2{stroke-dasharray:577 579;stroke-dashoffset:578;animation:BBXdWhRI_draw 1500ms ease-out 0ms forwards;}.BBXdWhRI_3{stroke-dasharray:572 574;stroke-dashoffset:573;animation:BBXdWhRI_draw 1500ms ease-out 0ms forwards;}.BBXdWhRI_4{stroke-dasharray:567 569;stroke-dashoffset:568;animation:BBXdWhRI_draw 1500ms ease-out 0ms forwards;}.BBXdWhRI_5{stroke-dasharray:561 563;stroke-dashoffset:562;animation:BBXdWhRI_draw 1500ms ease-out 0ms forwards;}.BBXdWhRI_6{stroke-dasharray:556 558;stroke-dashoffset:557;animation:BBXdWhRI_draw 1500ms ease-out 0ms forwards;}.BBXdWhRI_7{stroke-dasharray:551 553;stroke-dashoffset:552;animation:BBXdWhRI_draw 1500ms ease-out 0ms forwards;}.BBXdWhRI_8{stroke-dasharray:546 548;stroke-dashoffset:547;animation:BBXdWhRI_draw 1500ms ease-out 0ms forwards;}.BBXdWhRI_9{stroke-dasharray:541 543;stroke-dashoffset:542;animation:BBXdWhRI_draw 1500ms ease-out 0ms forwards;}.BBXdWhRI_10{stroke-dasharray:536 538;stroke-dashoffset:537;animation:BBXdWhRI_draw 1500ms ease-out 0ms forwards;}.BBXdWhRI_11{stroke-dasharray:531 533;stroke-dashoffset:532;animation:BBXdWhRI_draw 1500ms ease-out 0ms forwards;}.BBXdWhRI_12{stroke-dasharray:526 528;stroke-dashoffset:527;animation:BBXdWhRI_draw 1500ms ease-out 0ms forwards;}.BBXdWhRI_13{stroke-dasharray:521 523;stroke-dashoffset:522;animation:BBXdWhRI_draw 1500ms ease-out 0ms forwards;}.BBXdWhRI_14{stroke-dasharray:516 518;stroke-dashoffset:517;animation:BBXdWhRI_draw 1500ms ease-out 0ms forwards;}.BBXdWhRI_15{stroke-dasharray:511 513;stroke-dashoffset:512;animation:BBXdWhRI_draw 1500ms ease-out 0ms forwards;}.BBXdWhRI_16{stroke-dasharray:506 508;stroke-dashoffset:507;animation:BBXdWhRI_draw 1500ms ease-out 0ms forwards;}@keyframes BBXdWhRI_draw{100%{stroke-dashoffset:0;}}@keyframes BBXdWhRI_fade{0%{stroke-opacity:1;}92.98245614035088%{stroke-opacity:1;}100%{stroke-opacity:0;}}
.jIaJNUNA_0{stroke-dasharray:589 591;stroke-dashoffset:590;animation:jIaJNUNA_draw 500ms ease-in-out 0ms forwards;}.jIaJNUNA_1{stroke-dasharray:589 591;stroke-dashoffset:590;animation:jIaJNUNA_draw 500ms ease-in-out 0ms forwards;}.jIaJNUNA_2{stroke-dasharray:589 591;stroke-dashoffset:590;animation:jIaJNUNA_draw 500ms ease-in-out 0ms forwards;}.jIaJNUNA_3{stroke-dasharray:590 592;stroke-dashoffset:591;animation:jIaJNUNA_draw 500ms ease-in-out 0ms forwards;}.jIaJNUNA_4{stroke-dasharray:590 592;stroke-dashoffset:591;animation:jIaJNUNA_draw 500ms ease-in-out 0ms forwards;}.jIaJNUNA_5{stroke-dasharray:590 592;stroke-dashoffset:591;animation:jIaJNUNA_draw 500ms ease-in-out 0ms forwards;}.jIaJNUNA_6{stroke-dasharray:590 592;stroke-dashoffset:591;animation:jIaJNUNA_draw 500ms ease-in-out 0ms forwards;}.jIaJNUNA_7{stroke-dasharray:590 592;stroke-dashoffset:591;animation:jIaJNUNA_draw 500ms ease-in-out 0ms forwards;}.jIaJNUNA_8{stroke-dasharray:590 592;stroke-dashoffset:591;animation:jIaJNUNA_draw 500ms ease-in-out 0ms forwards;}.jIaJNUNA_9{stroke-dasharray:591 593;stroke-dashoffset:592;animation:jIaJNUNA_draw 500ms ease-in-out 0ms forwards;}.jIaJNUNA_10{stroke-dasharray:591 593;stroke-dashoffset:592;animation:jIaJNUNA_draw 500ms ease-in-out 0ms forwards;}.jIaJNUNA_11{stroke-dasharray:591 593;stroke-dashoffset:592;animation:jIaJNUNA_draw 500ms ease-in-out 0ms forwards;}.jIaJNUNA_12{stroke-dasharray:591 593;stroke-dashoffset:592;animation:jIaJNUNA_draw 500ms ease-in-out 0ms forwards;}.jIaJNUNA_13{stroke-dasharray:591 593;stroke-dashoffset:592;animation:jIaJNUNA_draw 500ms ease-in-out 0ms forwards;}.jIaJNUNA_14{stroke-dasharray:592 594;stroke-dashoffset:593;animation:jIaJNUNA_draw 500ms ease-in-out 0ms forwards;}.jIaJNUNA_15{stroke-dasharray:592 594;stroke-dashoffset:593;animation:jIaJNUNA_draw 500ms ease-in-out 0ms forwards;}.jIaJNUNA_16{stroke-dasharray:592 594;stroke-dashoffset:593;animation:jIaJNUNA_draw 500ms ease-in-out 0ms forwards;}@keyframes jIaJNUNA_draw{100%{stroke-dashoffset:0;}}@keyframes jIaJNUNA_fade{0%{stroke-opacity:1;}91.48936170212767%{stroke-opacity:1;}100%{stroke-opacity:0;}}
  .arthur-rackham-stroke1 path {animation-delay: 0s}
  .arthur-rackham-stroke2 path {animation-delay: 2.2s}
  .arthur-rackham-stroke3 path {animation-delay: 3s}
  .arthur-rackham-stroke4 path {animation-delay: 3.5s}
  .arthur-rackham-stroke5 path {animation-delay: 4s}
  .arthur-rackham-stroke6 path {animation-delay: 5.5s}
</style>
</svg>