<svg version="1.1" xmlns="http://www.w3.org/2000/svg" xmlns:xlink="http://www.w3.org/1999/xlink" x="0px" y="0px" viewBox="0 0 502.1 185.8" style="" xml:space="preserve">
<style type="text/css">
.st3 {
  fill: none;
  stroke: #e0c975;
  stroke-width: 1.5px;
  stroke-miterlimit: 10;
}
</style>
<g class="edward-hopper-stroke1">
<path class="st3 DAXexJwX_0" d="M109.7,46.4c5.7-0.1,5-12.6-2-12.6C87.9,34.1,53,53.2,53.1,61.9c0.1,5.6,48.5,10,48.5,3.5"></path>
<path class="st3 DAXexJwX_1" d="M109.7,46.4c5.4,0,4.6-12.4-2.3-12.4c-19.3,0.2-54,19.1-54,27.7c0.1,5.5,48.2,9.8,48.1,3.7"></path>
<path class="st3 DAXexJwX_2" d="M109.7,46.4c5.1,0,4.3-12.3-2.6-12.2c-18.8,0.2-53.4,18.9-53.3,27.3c0,5.5,47.9,9.7,47.8,3.9"></path>
<path class="st3 DAXexJwX_3" d="M109.7,46.4c4.8,0,3.9-12.1-2.9-12c-18.3,0.2-52.8,18.7-52.7,27c0,5.4,47.5,9.6,47.5,4.1"></path>
<path class="st3 DAXexJwX_4" d="M109.7,46.4c4.5,0,3.6-11.9-3.1-11.8c-17.8,0.2-52.2,18.4-52.1,26.6c0,5.4,47.2,9.4,47.2,4.3"></path>
<path class="st3 DAXexJwX_5" d="M109.7,46.4c4.2,0,3.2-11.7-3.4-11.7C88.9,34.9,54.7,53,54.7,61c0,5.3,46.9,9.3,46.8,4.4"></path>
<path class="st3 DAXexJwX_6" d="M109.7,46.4c3.9,0,2.9-11.5-3.7-11.5c-16.9,0.2-51,18-50.9,25.9c0,5.3,46.5,9.2,46.5,4.6"></path>
<path class="st3 DAXexJwX_7" d="M109.7,46.4c3.6,0,2.5-11.4-4-11.3C89.3,35.3,55.3,53,55.4,60.7c0,5.2,46.2,9,46.2,4.8"></path>
<path class="st3 DAXexJwX_8" d="M109.7,46.4c3.3,0,2.2-11.2-4.2-11.1c-15.9,0.1-49.8,17.6-49.7,25.2c0,5.2,45.9,8.9,45.8,5"></path>
<path class="st3 DAXexJwX_9" d="M109.7,46.4c2.9,0,1.9-11-4.5-10.9C89.8,35.7,56,52.9,56,60.3c0,5.2,45.6,8.8,45.5,5.2"></path>
<path class="st3 DAXexJwX_10" d="M109.7,46.4c2.6,0,1.5-10.8-4.8-10.7C90,35.8,56.3,52.9,56.4,60.1c0,5.1,45.2,8.6,45.2,5.3"></path>
<path class="st3 DAXexJwX_11" d="M109.7,46.4c2.3,0,1.2-10.6-5.1-10.6c-14.4,0.1-48,17-47.9,24.1c0,5.1,44.9,8.5,44.9,5.5"></path>
<path class="st3 DAXexJwX_12" d="M109.7,46.4c2,0,0.8-10.4-5.3-10.4C90.4,36.2,57,52.8,57,59.8c0,5,44.6,8.4,44.5,5.7"></path>
<path class="st3 DAXexJwX_13" d="M109.7,46.4c1.7,0,0.5-10.3-5.6-10.2c-13.5,0.1-46.8,16.5-46.7,23.4c0,5,44.2,8.2,44.2,5.9"></path>
<path class="st3 DAXexJwX_14" d="M109.7,46.4c1.4,0,0.1-10.1-5.9-10c-13,0.1-46.2,16.3-46.1,23c0,4.9,43.9,8.1,43.9,6.1"></path>
<path class="st3 DAXexJwX_15" d="M109.7,46.4c1.1,0-0.2-9.9-6.2-9.8C91,36.7,57.9,52.7,58,59.2c0,4.9,43.6,8,43.6,6.2"></path>
<path class="st3 DAXexJwX_16" d="M109.7,46.4c0.8,0-0.6-9.7-6.4-9.7c-12,0.1-45,15.9-44.9,22.3c0,4.8,43.2,7.8,43.2,6.4"></path>
<path class="st3 DAXexJwX_17" d="M109.7,46.4c0.5,0-0.9-9.5-6.7-9.5c-11.5,0.1-44.4,15.7-44.3,21.9c0,4.8,42.9,7.7,42.9,6.6"></path>
<path class="st3 DAXexJwX_18" d="M109.7,46.4c0.2,0-1.3-9.3-7-9.3C91.6,37.3,58.9,52.6,59,58.7c0,4.7,42.6,7.6,42.6,6.8"></path>
<path class="st3 DAXexJwX_19" d="M109.7,46.4c-0.2,0-1.6-9.2-7.3-9.1c-10.6,0.1-43.1,15.3-43.1,21.2c0,4.7,42.3,7.4,42.2,7"></path>
<path class="st3 DAXexJwX_20" d="M109.7,46.4c-0.5,0-2-9-7.5-8.9C92,37.6,59.6,52.6,59.6,58.3c0,4.6,41.9,7.3,41.9,7.1"></path>
<path class="st3 DAXexJwX_21" d="M109.7,46.4c-0.8,0-2.3-8.8-7.8-8.7C92.2,37.8,59.9,52.5,60,58.2c0,4.6,41.6,7.1,41.6,7.3"></path>
<path class="st3 DAXexJwX_22" d="M109.7,46.4c-1.1,0-2.7-8.6-8.1-8.6C92.5,38,60.2,52.5,60.3,58c0,4.5,41.3,7,41.3,7.5"></path>
<path class="st3 DAXexJwX_23" d="M109.7,46.4c-1.4,0-3-8.4-8.4-8.4c-8.6,0.1-40.7,14.4-40.7,19.7c0,4.5,40.9,6.9,40.9,7.7"></path>
<path class="st3 DAXexJwX_24" d="M109.7,46.4c-1.7,0-3.4-8.2-8.6-8.2c-8.2,0.1-40.1,14.2-40.1,19.4c0,4.4,40.6,6.7,40.6,7.9"></path>
<path class="st3 DAXexJwX_25" d="M109.7,46.4c-2,0-3.7-8.1-8.9-8c-7.7,0.1-39.5,14-39.5,19c0,4.4,40.3,6.6,40.3,8"></path>
<path class="st3 DAXexJwX_26" d="M109.7,46.4c-2.3,0-4.1-7.9-9.2-7.8c-7.2,0.1-38.9,13.8-38.9,18.6c0,4.3,39.9,6.5,40,8.2"></path>
<path class="st3 DAXexJwX_27" d="M109.7,46.4c-2.6,0-4.4-7.7-9.5-7.6c-6.7,0.1-38.3,13.6-38.3,18.3c0,4.3,39.6,6.3,39.6,8.4"></path>
<path class="st3 DAXexJwX_28" d="M109.7,46.4c-2.9,0-4.8-7.5-9.8-7.5C93.7,39,62.2,52.3,62.3,56.9c0,4.3,39.3,6.2,39.3,8.6"></path>
<path class="st3 DAXexJwX_29" d="M109.7,46.4c-3.3,0-5.1-7.3-10-7.3c-5.7,0.1-37.1,13.1-37.1,17.6c0,4.2,39,6.1,39,8.8"></path>
<path class="st3 DAXexJwX_30" d="M109.7,46.4c-3.6,0-5.5-7.1-10.3-7.1c-5.3,0-36.5,12.9-36.5,17.2c0,4.2,38.6,5.9,38.6,8.9"></path>
<path class="st3 DAXexJwX_31" d="M109.7,46.4c-3.9,0-5.8-7-10.6-6.9S63.2,52.2,63.2,56.4c0,4.1,38.3,5.8,38.3,9.1"></path>
</g>
<g class="edward-hopper-stroke2">
<path class="st3 KcdveJYJ_0" d="M101.8,65.9c0-1-0.6-1.7-2.3-1.7c-25.4,0.2-78.4,38-78.3,47.5c0,2.3,4.8,3.5,7.1,3.5
c4.8,0,31.6-14.4,42.7-14.5c3.8,0,2.5,2.4,4.3,2.4"></path>
<path class="st3 KcdveJYJ_1" d="M101.8,65.9c0-0.9-0.6-1.6-2.2-1.5c-1.6,0.1-3.3,0.3-5.1,0.6c-26.7,4.3-73,37.8-72.9,46.6
c0,2.3,4.7,3.5,7.1,3.4c4.1-0.1,21.9-9.3,34.4-12.9c3.3-0.9,6.1-1.4,8.2-1.3c3.6,0,2.3,2.5,4,2.4"></path>
<path class="st3 KcdveJYJ_2" d="M101.8,65.9c0-0.9-0.6-1.5-2.2-1.4c-1.6,0.1-3.3,0.3-5.1,0.6c-26.6,4.2-72.8,37.6-72.7,46.2
c0,2.3,4.7,3.4,7.2,3.3c4.4-0.2,22.2-9.4,34.6-12.8c3.4-0.9,6-1.2,7.9-1.1c3.5,0.1,2.1,2.5,3.7,2.5"></path>
<path class="st3 KcdveJYJ_3" d="M101.8,65.9c0-0.8-0.6-1.4-2.1-1.2c-1.6,0.1-3.3,0.4-5,0.7c-26.4,4.1-72.6,37.4-72.5,45.8
c0,2.2,4.7,3.3,7.3,3.1c4.6-0.3,22.5-9.5,34.8-12.8c3.4-0.9,5.9-1.1,7.7-0.8c3.3,0.1,1.9,2.5,3.4,2.5"></path>
<path class="st3 KcdveJYJ_4" d="M101.8,65.9c0-0.7-0.6-1.3-2.1-1.1c-1.5,0.2-3.2,0.5-5,0.8c-26.3,4-72.4,37.1-72.3,45.4c0,2.2,4.6,3.2,7.3,3
c4.9-0.4,22.9-9.6,35-12.7c3.5-0.9,5.8-0.9,7.5-0.5c3.1,0.2,1.7,2.5,3.1,2.5"></path>
<path class="st3 KcdveJYJ_5" d="M101.8,65.9c0-0.7-0.6-1.2-2.1-1c-1.5,0.2-3.2,0.6-4.9,0.8c-26.2,3.9-72.2,36.9-72.1,45c0,2.2,4.6,3.1,7.4,2.8
c5.1-0.5,23.2-9.7,35.1-12.7c3.5-0.9,5.8-0.7,7.2-0.3c2.9,0.3,1.5,2.6,2.8,2.5"></path>
<path class="st3 KcdveJYJ_6" d="M101.8,65.9c0-0.6-0.6-1.1-2-0.8c-1.5,0.2-3.2,0.7-4.8,0.9c-26.1,3.7-72,36.7-71.9,44.6c0,2.2,4.5,3.1,7.4,2.7
c5.4-0.6,23.5-9.8,35.3-12.7c3.6-0.9,5.7-0.5,7,0c2.8,0.3,1.3,2.6,2.5,2.6"></path>
<path class="st3 KcdveJYJ_7" d="M101.8,65.9c0-0.6-0.6-1-2-0.7c-1.5,0.3-3.1,0.7-4.8,1c-26,3.6-71.8,36.4-71.7,44.2c0,2.1,4.5,3,7.5,2.6
c5.6-0.8,23.8-9.9,35.5-12.6c3.6-0.8,5.6-0.4,6.8,0.3c2.6,0.4,1.1,2.6,2.2,2.6"></path>
<path class="st3 KcdveJYJ_8" d="M101.8,65.9c0-0.5-0.6-0.9-1.9-0.6c-1.5,0.3-3.1,0.8-4.7,1c-25.9,3.5-71.6,36.2-71.5,43.8
c0,2.1,4.5,2.9,7.6,2.4c5.9-0.9,24.2-10,35.7-12.6c3.7-0.8,5.5-0.2,6.5,0.5c2.4,0.4,0.9,2.6,1.9,2.6"></path>
<path class="st3 KcdveJYJ_9" d="M101.8,65.9c0-0.5-0.6-0.8-1.9-0.4c-1.4,0.4-3.1,0.9-4.7,1.1c-25.8,3.4-71.4,36-71.3,43.4
c0,2.1,4.4,2.8,7.6,2.3c6.1-1,24.5-10.1,35.8-12.5c3.7-0.8,5.4,0,6.3,0.8c2.2,0.5,0.7,2.6,1.6,2.6"></path>
<path class="st3 KcdveJYJ_10" d="M101.8,65.9c0-0.4-0.6-0.6-1.8-0.3c-1.4,0.4-3,1-4.6,1.2c-25.7,3.2-71.2,35.7-71.1,43c0,2.1,4.4,2.7,7.7,2.2
c6.4-1.1,24.8-10.2,36-12.5c3.8-0.8,5.4,0.2,6,1.1c2.1,0.5,0.5,2.7,1.3,2.7"></path>
<path class="st3 KcdveJYJ_11" d="M101.8,65.9c0-0.3-0.6-0.5-1.8-0.2c-1.4,0.4-3,1.1-4.6,1.3c-25.6,3.1-71,35.5-70.9,42.6c0,2,4.4,2.6,7.7,2
c6.7-1.2,25.1-10.3,36.2-12.5c3.9-0.7,5.3,0.3,5.8,1.3c1.9,0.6,0.3,2.7,1,2.7"></path>
<path class="st3 KcdveJYJ_12" d="M101.8,65.9c0-0.3-0.6-0.4-1.8,0c-1.4,0.5-3,1.1-4.5,1.3c-25.5,3-70.7,35.3-70.7,42.2c0,2,4.3,2.6,7.8,1.9
c6.9-1.3,25.5-10.4,36.4-12.4c3.9-0.7,5.2,0.5,5.6,1.6c1.7,0.7,0.1,2.7,0.7,2.7"></path>
<path class="st3 KcdveJYJ_13" d="M101.8,65.9c0-0.2-0.5-0.3-1.7,0.1c-1.4,0.5-2.9,1.2-4.5,1.4c-25.4,2.8-70.5,35-70.5,41.8c0,2,4.3,2.5,7.9,1.8
c7.2-1.4,25.8-10.5,36.5-12.4c4-0.7,5.1,0.7,5.3,1.9c1.6,0.7-0.1,2.7,0.4,2.7"></path>
<path class="st3 KcdveJYJ_14" d="M101.8,65.9c0-0.2-0.5-0.2-1.7,0.2c-1.4,0.6-2.9,1.3-4.4,1.5c-25.3,2.7-70.3,34.8-70.3,41.4
c0,2,4.3,2.4,7.9,1.6c7.4-1.5,26.1-10.6,36.7-12.3c4-0.7,5,0.9,5.1,2.2c1.4,0.8-0.3,2.8,0.1,2.8"></path>
<path class="st3 KcdveJYJ_15" d="M101.8,65.9c0-0.1-0.5-0.1-1.6,0.4c-1.3,0.6-2.9,1.4-4.3,1.5c-25.2,2.6-70.1,34.6-70.1,41c0,1.9,4.2,2.3,8,1.5
c7.7-1.6,26.5-10.6,36.9-12.3c4.1-0.6,5,1,4.9,2.4c1.2,0.8-0.5,2.8-0.2,2.8"></path>
<path class="st3 KcdveJYJ_16" d="M101.8,65.9c0-0.1-0.5,0-1.6,0.5c-1.3,0.7-2.9,1.5-4.3,1.6c-25,2.5-69.9,34.3-69.9,40.6c0,1.9,4.2,2.2,8,1.4
c7.9-1.7,26.8-10.7,37.1-12.3c4.2-0.6,4.9,1.2,4.6,2.7c1,0.9-0.6,2.8-0.5,2.8"></path>
<path class="st3 KcdveJYJ_17" d="M101.8,65.9c0,0-0.5,0.1-1.5,0.7c-1.3,0.7-2.8,1.5-4.2,1.7c-24.9,2.3-69.7,34.1-69.7,40.2
c0,1.9,4.1,2.1,8.1,1.2c8.2-1.9,27.1-10.8,37.2-12.2c4.2-0.6,4.8,1.4,4.4,3c0.9,0.9-0.8,2.8-0.8,2.8"></path>
<path class="st3 KcdveJYJ_18" d="M101.8,65.9c0,0-0.5,0.2-1.5,0.8c-1.3,0.7-2.8,1.6-4.2,1.7c-24.8,2.2-69.5,33.8-69.5,39.8
c0,1.9,4.1,2.1,8.2,1.1c8.4-2,27.4-10.9,37.4-12.2c4.3-0.6,4.7,1.5,4.1,3.2c0.7,1-1,2.8-1.1,2.8"></path>
<path class="st3 KcdveJYJ_19" d="M101.8,65.9c0,0.1-0.5,0.3-1.5,0.9c-1.3,0.8-2.8,1.7-4.1,1.8c-24.7,2-69.3,33.6-69.3,39.4c0,1.8,4.1,2,8.2,1
c8.7-2.1,27.8-10.9,37.6-12.1c4.3-0.5,4.6,1.7,3.9,3.5c0.5,1.1-1.2,2.9-1.4,2.9"></path>
<path class="st3 KcdveJYJ_20" d="M101.8,65.9c0,0.2-0.5,0.4-1.4,1.1c-1.2,0.8-2.7,1.8-4.1,1.9c-24.6,1.9-69.1,33.4-69.1,39c0,1.8,4,1.9,8.3,0.8
c8.9-2.2,28.1-11,37.8-12.1c4.4-0.5,4.6,1.9,3.7,3.8c0.3,1.1-1.4,2.9-1.7,2.9"></path>
<path class="st3 KcdveJYJ_21" d="M101.8,65.9c0,0.2-0.5,0.6-1.4,1.2c-1.2,0.9-2.7,1.9-4,2c-24.5,1.8-68.9,33.1-68.9,38.6c0,1.8,4,1.8,8.3,0.7
c9.2-2.3,28.4-11.1,37.9-12.1c4.4-0.5,4.5,2.1,3.4,4c0.2,1.2-1.6,2.9-2,2.9"></path>
<path class="st3 KcdveJYJ_22" d="M101.8,65.9c0,0.3-0.5,0.7-1.3,1.3c-1.2,0.9-2.7,1.9-4,2c-24.4,1.6-68.7,32.9-68.7,38.2c0,1.8,4,1.7,8.4,0.6
c9.5-2.4,28.8-11.1,38.1-12c4.5-0.4,4.4,2.2,3.2,4.3c0,1.2-1.8,2.9-2.3,2.9"></path>
<path class="st3 KcdveJYJ_23" d="M101.8,65.9c0,0.3-0.5,0.8-1.3,1.5c-1.2,1-2.6,2-3.9,2.1c-24.3,1.5-68.5,32.7-68.5,37.8c0,1.7,3.9,1.6,8.5,0.4
c9.7-2.5,29.1-11.2,38.3-12c4.6-0.4,4.3,2.4,3,4.6c-0.2,1.3-2,3-2.6,3"></path>
<path class="st3 KcdveJYJ_24" d="M101.8,65.9c0,0.4-0.5,0.9-1.2,1.6c-1.1,1-2.6,2.1-3.8,2.2C72.5,71,28.4,102.1,28.5,107c0,1.7,3.9,1.5,8.5,0.3
c10-2.7,29.4-11.2,38.5-11.9c4.6-0.4,4.2,2.6,2.7,4.8c-0.4,1.3-2.2,3-2.9,3"></path>
<path class="st3 KcdveJYJ_25" d="M101.8,65.9c0,0.4-0.5,1-1.2,1.7c-1.1,1.1-2.6,2.2-3.8,2.2c-24.1,1.2-68.1,32.2-68.1,36.9
c0,1.7,3.9,1.5,8.6,0.2c10.2-2.8,29.8-11.3,38.6-11.9c4.7-0.3,4.2,2.8,2.5,5.1c-0.5,1.4-2.4,3-3.2,3"></path>
<path class="st3 KcdveJYJ_26" d="M101.8,65.9c0,0.5-0.4,1.1-1.2,1.9c-1.1,1.1-2.5,2.3-3.7,2.3c-24,1-67.9,32-67.9,36.5c0,1.7,3.8,1.4,8.7,0
c10.5-2.9,30.1-11.3,38.8-11.9c4.7-0.3,4.1,2.9,2.2,5.4c-0.7,1.5-2.6,3-3.5,3"></path>
<path class="st3 KcdveJYJ_27" d="M101.8,65.9c0,0.5-0.4,1.2-1.1,2c-1.1,1.2-2.5,2.3-3.7,2.4c-23.9,0.9-67.7,31.7-67.7,36.1
c0,1.6,3.8,1.3,8.7-0.1c10.7-3,30.4-11.4,39-11.8c4.8-0.2,4,3.1,2,5.6c-0.9,1.5-2.8,3-3.8,3.1"></path>
<path class="st3 KcdveJYJ_28" d="M101.8,65.9c0,0.6-0.4,1.4-1.1,2.2c-1,1.3-2.5,2.4-3.6,2.4c-23.8,0.7-67.5,31.5-67.5,35.7
c0,1.6,3.7,1.2,8.8-0.2c11-3.1,30.8-11.4,39.2-11.8c4.9-0.2,3.9,3.3,1.8,5.9c-1,1.6-3,3.1-4.1,3.1"></path>
<path class="st3 KcdveJYJ_29" d="M101.8,65.9c0,0.7-0.4,1.5-1,2.3c-1,1.3-2.4,2.5-3.6,2.5C73.6,71.2,29.9,102,30,106c0,1.6,3.7,1.1,8.8-0.4
c11.2-3.2,31.1-11.5,39.3-11.7c4.9-0.1,3.8,3.5,1.5,6.2c-1.2,1.6-3.2,3.1-4.4,3.1"></path>
<path class="st3 KcdveJYJ_30" d="M101.8,65.9c0,0.7-0.4,1.6-1,2.4c-1,1.4-2.4,2.6-3.5,2.6c-23.6,0.4-67.1,31-67,34.9c0,1.6,3.7,1,8.9-0.5
c11.5-3.3,31.4-11.5,39.5-11.7c5-0.1,3.8,3.6,1.3,6.4c-1.4,1.7-3.4,3.1-4.7,3.1"></path>
<path class="st3 KcdveJYJ_31" d="M101.8,65.9c0,2-2.7,5.2-4.4,5.2c-23.5,0.2-66.9,30.8-66.8,34.5c0,4.9,37.1-12.2,48.6-12.3
c8.1-0.1-0.2,9.8-3.9,9.9"></path>
</g>
<g class="edward-hopper-stroke3">
<path class="st3 YctEnsyQ_0" d="M116.6,94.6c-0.1-7.4-24,11.3-24,14.6"></path>
<path class="st3 YctEnsyQ_1" d="M116.6,94.6c-0.1-7-24,11.5-24,14.6"></path>
<path class="st3 YctEnsyQ_2" d="M116.6,94.6c-0.1-6.6-24,11.7-24,14.6"></path>
<path class="st3 YctEnsyQ_3" d="M116.6,94.6c-0.1-6.2-24,11.9-24,14.6"></path>
<path class="st3 YctEnsyQ_4" d="M116.6,94.6c-0.1-5.8-24,12.1-24,14.6"></path>
<path class="st3 YctEnsyQ_5" d="M116.6,94.6c0-5.4-24,12.3-24,14.6"></path>
<path class="st3 YctEnsyQ_6" d="M116.6,94.6c0-5-24,12.5-24,14.6"></path>
<path class="st3 YctEnsyQ_7" d="M116.6,94.6c0-4.6-24,12.8-24,14.6"></path>
<path class="st3 YctEnsyQ_8" d="M116.6,94.6c0-4.2-24,13-24,14.6"></path>
<path class="st3 YctEnsyQ_9" d="M116.6,94.6c0-3.8-24,13.2-24,14.6"></path>
<path class="st3 YctEnsyQ_10" d="M116.6,94.6c0-3.4-24,13.4-24,14.6"></path>
<path class="st3 YctEnsyQ_11" d="M116.6,94.6c0-3-24,13.6-24,14.6"></path>
<path class="st3 YctEnsyQ_12" d="M116.6,94.6c0-2.6-24,13.8-24,14.6"></path>
<path class="st3 YctEnsyQ_13" d="M116.6,94.6c0-2.2-24,14-24,14.6"></path>
<path class="st3 YctEnsyQ_14" d="M116.6,94.6c0-1.8-24,14.2-24,14.6"></path>
<path class="st3 YctEnsyQ_15" d="M116.6,94.6c0-1.4-24,14.5-24,14.6"></path>
<path class="st3 YctEnsyQ_16" d="M116.6,94.6c0-1-24,14.7-24,14.6"></path>
<path class="st3 YctEnsyQ_17" d="M116.6,94.6c0-0.6-24,14.9-24,14.6"></path>
<path class="st3 YctEnsyQ_18" d="M116.6,94.6c0-0.2-24,15.1-24,14.6"></path>
<path class="st3 YctEnsyQ_19" d="M116.6,94.6c0,0.2-24,15.3-24,14.6"></path>
<path class="st3 YctEnsyQ_20" d="M116.6,94.6c0,0.6-24,15.5-24,14.6"></path>
<path class="st3 YctEnsyQ_21" d="M116.6,94.6c0,1-24,15.7-24,14.6"></path>
<path class="st3 YctEnsyQ_22" d="M116.6,94.6c0,1.4-24,15.9-24,14.6"></path>
<path class="st3 YctEnsyQ_23" d="M116.6,94.6c0,1.8-24,16.2-24,14.6"></path>
<path class="st3 YctEnsyQ_24" d="M116.6,94.6c0,2.2-24,16.4-24,14.6"></path>
<path class="st3 YctEnsyQ_25" d="M116.6,94.6c0,2.6-24,16.6-24,14.6"></path>
<path class="st3 YctEnsyQ_26" d="M116.6,94.6c0,3-24,16.8-24,14.6"></path>
<path class="st3 YctEnsyQ_27" d="M116.6,94.6c0,3.3-24,17-24,14.6"></path>
<path class="st3 YctEnsyQ_28" d="M116.6,94.6c0,3.7-24,17.2-24,14.6"></path>
<path class="st3 YctEnsyQ_29" d="M116.6,94.6c0,4.1-24,17.4-24,14.6"></path>
<path class="st3 YctEnsyQ_30" d="M116.6,94.6c0,4.5-24,17.6-24,14.6"></path>
<path class="st3 YctEnsyQ_31" d="M116.6,94.6c0,4.9-24,17.9-24,14.6"></path>
</g>
<g class="edward-hopper-stroke4">
<path class="st3 QadJgMyB_0" d="M205,32.9c-1.3,0-2.8,0.4-3.7,1.3c-18.2,18.5-69.8,76.4-69.7,85.3c0,0.5,0.2,0.8,0.7,0.8"></path>
<path class="st3 QadJgMyB_1" d="M205,32.9c-1.2,0-2.7,0.4-3.5,1.3c-11.4,11.6-37.2,39.7-53.1,60.2c-0.9,1.2-1.7,2.3-2.6,3.4
c-7.9,10.3-14,18.7-14.1,21.7c0,0.5,0.2,0.8,0.7,0.8"></path>
<path class="st3 QadJgMyB_2" d="M205,32.9c-1.1,0-2.5,0.4-3.3,1.3c-11.3,11.5-38,40.1-53.2,60.4c-0.9,1.2-1.6,2.3-2.5,3.5
c-7.5,10.1-14,18.6-14.3,21.5c0,0.5,0.2,0.8,0.6,0.8"></path>
<path class="st3 QadJgMyB_3" d="M205,32.9c-1,0-2.3,0.4-3.2,1.3c-11.2,11.4-38.8,40.5-53.2,60.5c-0.9,1.2-1.5,2.4-2.3,3.5
c-7.2,9.9-14.1,18.4-14.5,21.4c-0.1,0.5,0.1,0.7,0.6,0.7"></path>
<path class="st3 QadJgMyB_4" d="M205,32.9c-0.9,0-2.1,0.4-3,1.3c-11,11.3-39.5,41-53.2,60.6c-0.9,1.2-1.4,2.4-2.2,3.5
c-6.9,9.8-14.2,18.3-14.7,21.2c-0.1,0.5,0.1,0.7,0.5,0.7"></path>
<path class="st3 QadJgMyB_5" d="M205,32.9c-0.8,0-2,0.4-2.8,1.3C191.3,45.5,161.9,75.7,149,95c-0.8,1.3-1.3,2.4-2.1,3.6
c-6.5,9.6-14.3,18.1-14.9,21.1c-0.1,0.5,0,0.7,0.4,0.7"></path>
<path class="st3 QadJgMyB_6" d="M205,32.9c-0.7,0-1.8,0.4-2.7,1.3c-10.8,11.1-41,42-53.2,60.8c-0.8,1.3-1.2,2.5-2,3.6
c-6.2,9.3-14.4,18-15.1,20.9c-0.1,0.5,0,0.7,0.4,0.7"></path>
<path class="st3 QadJgMyB_7" d="M205,32.9c-0.6,0-1.6,0.5-2.5,1.3c-10.7,11-41.7,42.5-53.2,61c-0.8,1.3-1.1,2.5-1.9,3.6
c-5.9,9.1-14.4,17.8-15.4,20.8c-0.1,0.5,0,0.7,0.3,0.7"></path>
<path class="st3 QadJgMyB_8" d="M205,32.9c-0.6,0-1.4,0.5-2.3,1.4c-10.6,10.9-42.3,43-53.2,61.1c-0.8,1.3-1,2.5-1.7,3.7
c-5.6,8.9-14.5,17.7-15.6,20.6c-0.2,0.5-0.1,0.7,0.3,0.7"></path>
<path class="st3 QadJgMyB_9" d="M205,32.9c-0.5,0-1.3,0.5-2.2,1.4c-10.5,10.8-43,43.5-53.2,61.2c-0.8,1.4-0.9,2.5-1.6,3.7
c-5.2,8.7-14.6,17.6-15.8,20.5c-0.2,0.4-0.1,0.7,0.2,0.7"></path>
<path class="st3 QadJgMyB_10" d="M205,32.9c-0.4,0-1.1,0.5-2,1.4c-10.3,10.7-43.7,44.1-53.2,61.3c-0.8,1.4-0.8,2.6-1.5,3.7
c-4.9,8.5-14.7,17.4-16,20.3c-0.2,0.4-0.2,0.7,0.1,0.7"></path>
<path class="st3 QadJgMyB_11" d="M205,32.9c-0.3,0-0.9,0.5-1.8,1.4C193,44.9,158.9,79,150,95.7c-0.7,1.4-0.7,2.6-1.4,3.7
c-4.6,8.3-14.7,17.3-16.2,20.2c-0.2,0.4-0.2,0.7,0.1,0.7"></path>
<path class="st3 QadJgMyB_12" d="M205,32.9c-0.2,0-0.8,0.5-1.6,1.4c-10.1,10.5-44.9,45.3-53.2,61.5c-0.7,1.4-0.6,2.6-1.3,3.8
c-4.3,8-14.8,17.1-16.4,20c-0.2,0.4-0.2,0.7,0,0.7"></path>
<path class="st3 QadJgMyB_13" d="M205,32.9c-0.1,0-0.6,0.5-1.5,1.4c-10,10.4-45.5,45.9-53.3,61.7c-0.7,1.5-0.5,2.6-1.2,3.8
c-4,7.8-14.9,17-16.7,19.9c-0.3,0.4-0.3,0.7-0.1,0.7"></path>
<path class="st3 QadJgMyB_14" d="M205,32.9c0,0-0.4,0.5-1.3,1.4c-9.9,10.3-46.1,46.5-53.3,61.8c-0.7,1.5-0.4,2.6-1,3.8
c-3.8,7.5-14.9,16.8-16.9,19.7c-0.3,0.4-0.3,0.6-0.1,0.6"></path>
<path class="st3 QadJgMyB_15" d="M205,32.9c0.1,0-0.2,0.5-1.1,1.4c-9.8,10.2-46.6,47.1-53.3,61.9c-0.7,1.5-0.3,2.7-0.9,3.9
c-3.5,7.3-15,16.7-17.1,19.6c-0.3,0.4-0.3,0.6-0.2,0.6"></path>
<path class="st3 QadJgMyB_16" d="M205,32.9c0.1,0-0.1,0.5-1,1.4c-9.6,10.1-47.2,47.7-53.3,62c-0.7,1.5-0.3,2.7-0.8,3.9
c-3.2,7-15.1,16.6-17.3,19.4c-0.3,0.4-0.4,0.6-0.2,0.6"></path>
<path class="st3 QadJgMyB_17" d="M205,32.9c0.2,0,0.1,0.5-0.8,1.4c-9.5,10-47.7,48.4-53.3,62.1c-0.6,1.6-0.2,2.7-0.7,3.9
c-2.9,6.8-15.1,16.4-17.5,19.3c-0.3,0.4-0.4,0.6-0.3,0.6"></path>
<path class="st3 QadJgMyB_18" d="M205,32.9c0.3,0,0.3,0.5-0.6,1.4c-9.4,9.9-48.2,49-53.3,62.3c-0.6,1.6-0.1,2.7-0.6,4
c-2.7,6.5-15.2,16.3-17.7,19.1c-0.3,0.4-0.5,0.6-0.4,0.6"></path>
<path class="st3 QadJgMyB_19" d="M205,32.9c0.4,0,0.4,0.5-0.5,1.5c-9.3,9.8-48.7,49.7-53.3,62.4c-0.6,1.6,0,2.7-0.4,4c-2.4,6.3-15.2,16.2-18,19
c-0.4,0.4-0.5,0.6-0.4,0.6"></path>
<path class="st3 QadJgMyB_20" d="M205,32.9c0.5,0,0.6,0.5-0.3,1.5c-9.2,9.7-49.2,50.4-53.3,62.5c-0.6,1.7,0.1,2.8-0.3,4
c-2.2,6-15.3,16-18.2,18.8c-0.4,0.4-0.5,0.6-0.5,0.6"></path>
<path class="st3 QadJgMyB_21" d="M205,32.9c0.6,0,0.8,0.5-0.1,1.5c-9,9.6-49.6,51-53.3,62.6c-0.5,1.7,0.2,2.8-0.2,4.1
c-1.9,5.7-15.4,15.9-18.4,18.7c-0.4,0.4-0.6,0.6-0.5,0.6"></path>
<path class="st3 QadJgMyB_22" d="M205,32.9c0.7,0,1,0.5,0,1.5c-8.9,9.4-50.1,51.7-53.3,62.7c-0.5,1.7,0.3,2.8-0.1,4.1
c-1.7,5.5-15.4,15.8-18.6,18.5c-0.4,0.4-0.6,0.6-0.6,0.6"></path>
<path class="st3 QadJgMyB_23" d="M205,32.9c0.8,0,1.1,0.5,0.2,1.5c-8.8,9.3-50.5,52.4-53.3,62.8c-0.5,1.8,0.4,2.8,0,4.1
c-1.5,5.2-15.5,15.6-18.8,18.4c-0.4,0.4-0.7,0.6-0.7,0.6"></path>
<path class="st3 QadJgMyB_24" d="M205,32.9c0.8,0,1.3,0.5,0.4,1.5c-8.7,9.2-50.9,53.1-53.3,63c-0.4,1.8,0.5,2.8,0.1,4.2
c-1.3,4.9-15.5,15.5-19,18.2c-0.5,0.4-0.7,0.6-0.7,0.6"></path>
<path class="st3 QadJgMyB_25" d="M205,32.9c0.9,0,1.5,0.5,0.5,1.5c-8.6,9.1-51.3,53.7-53.4,63.1c-0.4,1.9,0.6,2.9,0.3,4.2
c-1.1,4.6-15.6,15.4-19.3,18.1c-0.5,0.3-0.7,0.5-0.8,0.5"></path>
<path class="st3 QadJgMyB_26" d="M205,32.9c1,0,1.6,0.5,0.7,1.5c-8.5,9-51.7,54.4-53.4,63.2c-0.4,1.9,0.6,2.9,0.4,4.2
c-0.9,4.3-15.7,15.2-19.5,17.9c-0.5,0.3-0.8,0.5-0.8,0.5"></path>
<path class="st3 QadJgMyB_27" d="M205,32.9c1.1,0,1.8,0.5,0.9,1.5c-8.3,8.9-52.1,55.1-53.4,63.3c-0.3,1.9,0.7,2.9,0.5,4.2
c-0.7,4.1-15.7,15.1-19.7,17.8c-0.5,0.3-0.8,0.5-0.9,0.5"></path>
<path class="st3 QadJgMyB_28" d="M205,32.9c1.2,0,2,0.5,1,1.5c-8.2,8.8-52.4,55.7-53.4,63.4c-0.2,2,0.8,2.9,0.6,4.3c-0.5,3.8-15.8,15-19.9,17.6
c-0.5,0.3-0.9,0.5-1,0.5"></path>
<path class="st3 QadJgMyB_29" d="M205,32.9c1.3,0,2.2,0.5,1.2,1.5c-8.1,8.7-52.8,56.4-53.4,63.6c-0.2,2,0.9,2.9,0.7,4.3
c-0.3,3.5-15.8,14.9-20.1,17.5c-0.5,0.3-0.9,0.5-1,0.5"></path>
<path class="st3 QadJgMyB_30" d="M205,32.9c1.4,0,2.3,0.5,1.4,1.6c-8,8.6-53.1,57-53.4,63.7c-0.1,2,0.9,2.9,0.8,4.3
c-0.1,3.3-15.9,14.7-20.3,17.3c-0.6,0.3-0.9,0.5-1.1,0.5"></path>
<path class="st3 QadJgMyB_31" d="M205,32.9c1.5,0,2.5,0.5,1.5,1.6c-7.9,8.5-53.5,57.6-53.4,63.8c0,2.1,1,3,1,4.4c0,3.4-20.2,17.6-21.7,17.7"></path>
</g>
<g class="edward-hopper-stroke5">
<path class="st3 ofuHrYYV_0" d="M235.7,34.4c-2,0-5.3,1.4-6.6,3.5c-2.4,3.7-40.4,60.2-45,67.1c-3.6,5.5-10.3,7.8-10.3,10.6
c0,1.8-1.2,6.9,1.5,6.9"></path>
<path class="st3 ofuHrYYV_1" d="M235.7,34.4c-1,0-2.3,0.4-3.7,1.2c-1.1,0.6-2.2,1.4-2.8,2.4c-2.5,3.9-40.3,60-44.9,67.1
c-0.8,1.2-1.7,2.3-2.7,3.2c-3.4,3.3-7.5,5.2-7.6,7.4c-0.1,1.8-1.4,6.8,1.3,6.8"></path>
<path class="st3 ofuHrYYV_2" d="M235.7,34.4c-0.9,0-2.2,0.5-3.5,1.2c-1.1,0.6-2.1,1.4-2.8,2.5c-2.7,4.2-40.1,59.8-44.8,67.1
c-0.8,1.2-1.7,2.3-2.7,3.2c-3.4,3.3-7.4,5.2-7.6,7.4c-0.1,1.8-1.5,6.7,1,6.7"></path>
<path class="st3 ofuHrYYV_3" d="M235.7,34.4c-0.8,0-2,0.5-3.4,1.3c-1.1,0.6-2.1,1.4-2.8,2.5c-2.9,4.5-39.9,59.6-44.8,67.1
c-0.8,1.3-1.7,2.3-2.6,3.2c-3.3,3.2-7.3,5.3-7.5,7.5c-0.2,1.8-1.6,6.6,0.7,6.6"></path>
<path class="st3 ofuHrYYV_4" d="M235.7,34.4c-0.7,0-1.9,0.5-3.2,1.3c-1,0.6-2.1,1.4-2.7,2.5C226.6,43,190,97.6,185,105.3
c-0.8,1.3-1.7,2.3-2.6,3.2c-3.2,3.2-7.2,5.3-7.5,7.5c-0.3,1.8-1.8,6.5,0.5,6.5"></path>
<path class="st3 ofuHrYYV_5" d="M235.7,34.4c-0.6,0-1.7,0.5-3.1,1.4c-1,0.6-2,1.5-2.7,2.5c-3.3,5-39.6,59.2-44.7,67.1
c-0.8,1.3-1.7,2.4-2.6,3.2c-3.2,3.2-7,5.3-7.5,7.5c-0.4,1.9-1.9,6.4,0.2,6.4"></path>
<path class="st3 ofuHrYYV_6" d="M235.7,34.4c-0.6,0-1.6,0.5-2.9,1.4c-1,0.6-2,1.5-2.7,2.5c-3.5,5.3-39.4,59-44.6,67.1
c-0.8,1.3-1.7,2.4-2.6,3.2c-3.1,3.1-6.9,5.3-7.5,7.5c-0.5,1.9-2,6.4,0,6.3"></path>
<path class="st3 ofuHrYYV_7" d="M235.7,34.4c-0.5,0-1.4,0.6-2.8,1.5c-0.9,0.6-1.9,1.5-2.7,2.6c-3.7,5.6-39.2,58.8-44.6,67.1
c-0.9,1.3-1.8,2.4-2.6,3.2c-3,3.1-6.8,5.3-7.5,7.5c-0.5,1.9-2.1,6.3-0.3,6.2"></path>
<path class="st3 ofuHrYYV_8" d="M235.7,34.4c-0.4,0-1.2,0.6-2.6,1.5c-0.9,0.6-1.9,1.5-2.6,2.6c-3.8,5.8-39.1,58.6-44.5,67.1
c-0.9,1.3-1.8,2.4-2.6,3.2c-3,3.1-6.7,5.3-7.5,7.6c-0.6,1.9-2.3,6.2-0.6,6.2"></path>
<path class="st3 ofuHrYYV_9" d="M235.7,34.4c-0.3,0-1.1,0.6-2.5,1.6c-0.9,0.6-1.9,1.5-2.6,2.6c-4,6.1-38.9,58.4-44.5,67.1
c-0.9,1.4-1.8,2.4-2.5,3.3c-2.9,3-6.6,5.3-7.4,7.6c-0.7,1.9-2.4,6.1-0.8,6.1"></path>
<path class="st3 ofuHrYYV_10" d="M235.7,34.4c-0.2,0-0.9,0.6-2.3,1.6c-0.9,0.6-1.8,1.5-2.6,2.6c-4.2,6.4-38.7,58.2-44.4,67.1
c-0.9,1.4-1.8,2.5-2.5,3.3c-2.8,3-6.5,5.3-7.4,7.6c-0.8,2-2.5,6-1.1,6"></path>
<path class="st3 ofuHrYYV_11" d="M235.7,34.4c-0.2,0-0.8,0.6-2.2,1.7c-0.8,0.6-1.8,1.5-2.6,2.6c-4.4,6.6-38.6,58.1-44.4,67.1
c-0.9,1.4-1.8,2.5-2.5,3.3c-2.8,3-6.4,5.3-7.4,7.6c-0.9,2-2.6,5.9-1.3,5.9"></path>
<path class="st3 ofuHrYYV_12" d="M235.7,34.4c-0.1,0-0.6,0.6-2,1.7c-0.8,0.6-1.8,1.5-2.5,2.7c-4.6,6.9-38.4,57.9-44.3,67
c-0.9,1.4-1.8,2.5-2.5,3.3c-2.7,2.9-6.3,5.3-7.4,7.6c-1,2-2.8,5.8-1.6,5.8"></path>
<path class="st3 ofuHrYYV_13" d="M235.7,34.4c0,0-0.5,0.7-1.9,1.8c-0.8,0.6-1.7,1.5-2.5,2.7c-4.8,7.2-38.2,57.7-44.3,67
c-0.9,1.4-1.8,2.5-2.5,3.3c-2.6,2.9-6.2,5.3-7.4,7.6c-1.1,2-2.9,5.7-1.8,5.7"></path>
<path class="st3 ofuHrYYV_14" d="M235.7,34.4c0.1,0-0.3,0.7-1.7,1.8c-0.7,0.6-1.7,1.5-2.5,2.7c-5,7.5-38.1,57.5-44.2,67
c-0.9,1.5-1.8,2.6-2.5,3.3c-2.6,2.8-6.1,5.3-7.4,7.7c-1.1,2-3,5.6-2.1,5.6"></path>
<path class="st3 ofuHrYYV_15" d="M235.7,34.4c0.2,0-0.1,0.7-1.6,1.9c-0.7,0.6-1.7,1.5-2.5,2.7c-5.1,7.7-37.9,57.3-44.1,67
c-0.9,1.5-1.8,2.6-2.4,3.3c-2.5,2.8-6,5.4-7.3,7.7c-1.2,2.1-3.1,5.5-2.4,5.5"></path>
<path class="st3 ofuHrYYV_16" d="M235.7,34.4c0.3,0,0,0.7-1.5,1.9c-0.7,0.6-1.6,1.5-2.5,2.7c-5.3,8-37.7,57.1-44.1,67c-1,1.5-1.8,2.6-2.4,3.3
c-2.4,2.8-5.9,5.4-7.3,7.7c-1.3,2.1-3.3,5.5-2.6,5.4"></path>
<path class="st3 ofuHrYYV_17" d="M235.7,34.4c0.3,0,0.2,0.7-1.3,2c-0.7,0.6-1.6,1.5-2.4,2.8c-5.5,8.3-37.5,56.9-44,67c-1,1.5-1.8,2.6-2.4,3.3
c-2.4,2.7-5.8,5.4-7.3,7.7c-1.4,2.1-3.4,5.4-2.9,5.4"></path>
<path class="st3 ofuHrYYV_18" d="M235.7,34.4c0.4,0,0.3,0.7-1.2,2c-0.6,0.6-1.5,1.5-2.4,2.8c-5.7,8.6-37.4,56.7-44,67c-1,1.5-1.8,2.7-2.4,3.3
c-2.3,2.7-5.6,5.4-7.3,7.7c-1.5,2.1-3.5,5.3-3.1,5.3"></path>
<path class="st3 ofuHrYYV_19" d="M235.7,34.4c0.5,0,0.5,0.7-1,2.1c-0.6,0.6-1.5,1.5-2.4,2.8c-5.9,8.8-37.2,56.5-43.9,67c-1,1.5-1.8,2.7-2.4,3.3
c-2.2,2.7-5.5,5.4-7.3,7.8c-1.6,2.1-3.6,5.2-3.4,5.2"></path>
<path class="st3 ofuHrYYV_20" d="M235.7,34.4c0.6,0,0.6,0.7-0.9,2.1c-0.6,0.5-1.5,1.5-2.4,2.8c-6.1,9.1-37,56.3-43.9,67c-1,1.6-1.8,2.7-2.4,3.3
c-2.2,2.6-5.4,5.4-7.3,7.8c-1.7,2.1-3.8,5.1-3.6,5.1"></path>
<path class="st3 ofuHrYYV_21" d="M235.7,34.4c0.7,0,0.8,0.7-0.7,2.2c-0.6,0.5-1.4,1.5-2.3,2.8c-6.2,9.4-36.9,56.1-43.8,67
c-1,1.6-1.8,2.7-2.3,3.4c-2.1,2.6-5.3,5.4-7.2,7.8c-1.7,2.2-3.9,5-3.9,5"></path>
<path class="st3 ofuHrYYV_22" d="M235.7,34.4c0.7,0,0.9,0.8-0.6,2.2c-0.5,0.5-1.4,1.5-2.3,2.9c-6.4,9.6-36.7,55.9-43.8,67
c-1,1.6-1.8,2.7-2.3,3.4c-2,2.6-5.2,5.4-7.2,7.8c-1.8,2.2-4,4.9-4.2,4.9"></path>
<path class="st3 ofuHrYYV_23" d="M235.7,34.4c0.8,0,1.1,0.8-0.4,2.3c-0.5,0.5-1.4,1.5-2.3,2.9c-6.6,9.9-36.5,55.7-43.7,67
c-1,1.6-1.8,2.8-2.3,3.4c-2,2.5-5.1,5.4-7.2,7.8c-1.9,2.2-4.1,4.8-4.4,4.8"></path>
<path class="st3 ofuHrYYV_24" d="M235.7,34.4c0.9,0,1.2,0.8-0.3,2.3c-0.5,0.5-1.3,1.5-2.3,2.9c-6.8,10.2-36.4,55.5-43.7,67
c-1,1.6-1.8,2.8-2.3,3.4c-1.9,2.5-5,5.4-7.2,7.8c-2,2.2-4.3,4.7-4.7,4.7"></path>
<path class="st3 ofuHrYYV_25" d="M235.7,34.4c1,0,1.4,0.8-0.1,2.4c-0.5,0.5-1.3,1.5-2.2,2.9c-7,10.5-36.2,55.4-43.6,67
c-1.1,1.6-1.9,2.8-2.3,3.4c-1.8,2.5-4.9,5.4-7.2,7.9c-2.1,2.2-4.4,4.6-4.9,4.6"></path>
<path class="st3 ofuHrYYV_26" d="M235.7,34.4c1.1,0,1.5,0.8,0,2.4c-0.4,0.5-1.2,1.5-2.2,2.9c-7.2,10.7-36,55.2-43.6,67
c-1.1,1.7-1.9,2.8-2.3,3.4c-1.8,2.4-4.8,5.4-7.2,7.9c-2.2,2.2-4.5,4.6-5.2,4.6"></path>
<path class="st3 ofuHrYYV_27" d="M235.7,34.4c1.1,0,1.7,0.8,0.2,2.4c-0.4,0.5-1.2,1.5-2.2,3c-7.4,11-35.9,55-43.5,66.9
c-1.1,1.7-1.9,2.9-2.2,3.4c-1.7,2.4-4.7,5.4-7.2,7.9c-2.3,2.3-4.7,4.5-5.5,4.5"></path>
<path class="st3 ofuHrYYV_28" d="M235.7,34.4c1.2,0,1.8,0.8,0.3,2.5c-0.4,0.5-1.2,1.5-2.2,3c-7.5,11.3-35.7,54.8-43.4,66.9
c-1.1,1.7-1.9,2.9-2.2,3.4c-1.6,2.4-4.6,5.4-7.1,7.9c-2.3,2.3-4.8,4.4-5.7,4.4"></path>
<path class="st3 ofuHrYYV_29" d="M235.7,34.4c1.3,0,1.9,0.8,0.5,2.5c-0.4,0.5-1.1,1.5-2.1,3c-7.7,11.6-35.5,54.6-43.4,66.9
c-1.1,1.7-1.9,2.9-2.2,3.4c-1.6,2.3-4.5,5.4-7.1,7.9c-2.4,2.3-4.9,4.3-6,4.3"></path>
<path class="st3 ofuHrYYV_30" d="M235.7,34.4c1.4,0,2.1,0.8,0.6,2.6c-0.4,0.5-1.1,1.5-2.1,3c-7.9,11.8-35.3,54.4-43.3,66.9
c-1.1,1.7-1.9,2.9-2.2,3.4c-1.5,2.3-4.4,5.4-7.1,7.9c-2.5,2.3-5,4.2-6.2,4.2"></path>
<path class="st3 ofuHrYYV_31" d="M235.7,34.4c1.5,0,2.2,0.8,0.8,2.6c-3.3,4.4-44.8,69-47.6,73.4c-2.7,4.4-10.8,12.1-13.6,12.1"></path>
</g>
<g class="edward-hopper-stroke6">
<path class="st3 XuRougRb_0" d="M149.7,87.9c0,1.3,2.1,3.1,6.7,3.1c8.7-0.1,57.1-10.8,78-11c4.3,0,20.2-0.3,20.2,2.7
c0.1,14.9-19,26.3-25.4,26.3c-2.2,0,18.1-27.5,28.9-30.3c25.3-6.5,100.9-61,74.4-60.8c-17.4,0.2-79.8,110.5-107.8,144.2
c-3.6,4.4,0.6,4.5,0.6,4.5"></path>
<path class="st3 XuRougRb_1" d="M149.7,87.9c0,0.6,0.5,1.3,1.4,1.8c1.1,0.7,2.8,1.1,5.3,1.1c8.3-0.1,50.2-9.3,73.1-10.8
c1.8-0.1,3.6-0.2,5.2-0.2c4.5,0,20.2-0.3,20.2,2.8c0.1,14.8-18.9,26-25.5,26.4c-1,0.1,1.5-4.2,5.6-9.5C241.2,91.6,251,81,257.6,79
c5-1.5,11.9-4.6,19.5-8.7c31.5-17,76.3-52.3,55.4-52.1c-15.5,0.1-70,93.2-99.8,133.9c-1.3,1.8-2.4,3.4-3.7,5
c-1.4,1.9-2.8,3.6-4.1,5.1c-3.6,4.3,0.4,4.4,0.4,4.4"></path>
<path class="st3 XuRougRb_2" d="M149.7,87.9c0,0.5,0.5,1.2,1.4,1.7c1.1,0.6,2.9,1.1,5.4,1.1c8.6-0.2,50.3-9.3,73.3-10.8
c1.8-0.1,3.6-0.2,5.2-0.2c4.7,0,20.2-0.2,20.2,2.9c0.1,14.8-18.8,25.9-25.5,26.5c-1.2,0.1,1.1-3.9,5-9.1
c5.8-7.6,15.5-18.5,22.3-20.7c5-1.6,11.9-4.8,19.5-8.9c31.6-16.7,76.5-52.3,56.1-52.1c-15.2,0.1-70.6,93.8-99.7,133.8
c-1.3,1.9-2.3,3.4-3.6,5.1c-1.4,1.9-2.8,3.6-4.2,5.1c-3.6,4.2,0.2,4.4,0.2,4.4"></path>
<path class="st3 XuRougRb_3" d="M149.7,87.9c0,0.5,0.5,1.1,1.4,1.6c1.1,0.6,2.9,1.1,5.4,1c8.8-0.2,50.4-9.4,73.4-10.8c1.8-0.1,3.6-0.2,5.2-0.2
c4.9,0,20.2-0.2,20.2,3.1c0.1,14.7-18.7,25.7-25.6,26.6c-1.3,0.2,0.8-3.7,4.4-8.7c5.4-7.4,15.2-18.4,22.2-20.9c5-1.8,12-5.1,19.5-9
c31.6-16.6,76.6-52.3,56.7-52.1c-14.8,0.1-71.1,94.5-99.6,133.7c-1.4,1.9-2.2,3.4-3.5,5.1c-1.4,1.9-2.8,3.5-4.2,5
c-3.6,4.1,0,4.3,0,4.3"></path>
<path class="st3 XuRougRb_4" d="M149.7,87.9c0,0.4,0.5,1,1.5,1.5c1.1,0.6,2.9,1,5.4,0.9c9.1-0.3,50.5-9.4,73.6-10.7c1.8-0.1,3.6-0.2,5.2-0.2
c5.1,0,20.2-0.1,20.2,3.2c0.1,14.6-18.6,25.6-25.6,26.7c-1.4,0.2,0.4-3.4,3.8-8.2c5.1-7.1,14.8-18.3,22-21.1c5.1-2,12-5.3,19.5-9.2
c31.6-16.4,76.8-52.2,57.3-52.1c-14.4,0.1-71.7,95.1-99.4,133.6c-1.4,1.9-2.1,3.4-3.4,5.1c-1.4,1.8-2.8,3.5-4.2,5
c-3.6,4-0.2,4.2-0.2,4.2"></path>
<path class="st3 XuRougRb_5" d="M149.7,87.9c0,0.4,0.5,0.9,1.5,1.4c1.1,0.6,2.9,1,5.4,0.9c9.3-0.4,50.6-9.4,73.8-10.7c1.8-0.1,3.6-0.2,5.2-0.2
c5.3,0,20.1,0,20.2,3.3c0.1,14.5-18.4,25.5-25.7,26.8c-1.6,0.3,0-3.2,3.2-7.8c4.8-6.9,14.4-18.2,21.8-21.3c5.1-2.1,12-5.5,19.4-9.3
c31.7-16.2,76.9-52.2,58-52c-14.1,0.1-72.2,95.8-99.3,133.4c-1.4,2-2,3.4-3.3,5.1c-1.4,1.8-2.9,3.5-4.2,5c-3.5,3.9-0.4,4.1-0.4,4.1
"></path>
<path class="st3 XuRougRb_6" d="M149.7,87.9c0,0.4,0.5,0.8,1.5,1.3c1.1,0.5,2.9,0.9,5.4,0.8c9.6-0.4,50.7-9.4,74-10.7c1.8-0.1,3.6-0.2,5.2-0.2
c5.5,0,20.1,0,20.2,3.4c0.1,14.5-18.3,25.4-25.8,27c-1.7,0.4-0.4-2.9,2.6-7.3c4.4-6.6,14.1-18.1,21.6-21.5c5.1-2.3,12-5.7,19.4-9.4
c31.7-16,77.1-52.2,58.6-52c-13.7,0.1-72.8,96.4-99.1,133.3c-1.4,2-1.9,3.4-3.2,5.1c-1.4,1.8-2.9,3.5-4.2,4.9
c-3.5,3.8-0.6,4.1-0.6,4.1"></path>
<path class="st3 XuRougRb_7" d="M149.7,87.9c0,0.3,0.5,0.7,1.5,1.2c1.1,0.5,2.9,0.9,5.4,0.8c9.9-0.5,50.8-9.4,74.1-10.7
c1.8-0.1,3.6-0.2,5.2-0.2c5.7,0,20.1,0.1,20.1,3.5c0.1,14.4-18.2,25.3-25.8,27.1c-1.9,0.4-0.7-2.7,2-6.9c4.1-6.3,13.7-18,21.4-21.7
c5.1-2.5,12-5.9,19.4-9.6c31.7-15.8,77.3-52.2,59.2-52c-13.3,0.1-73.3,97.1-99,133.2c-1.5,2.1-1.8,3.4-3.1,5.2
c-1.4,1.8-2.9,3.4-4.3,4.9c-3.5,3.7-0.8,4-0.8,4"></path>
<path class="st3 XuRougRb_8" d="M149.7,87.9c0,0.3,0.5,0.6,1.5,1.1c1.1,0.5,3,0.8,5.5,0.7c10.1-0.5,50.9-9.5,74.3-10.7
c1.8-0.1,3.6-0.2,5.2-0.1c5.9,0,20.1,0.2,20.1,3.6c0.1,14.3-18.1,25.3-25.9,27.2c-2,0.5-1.1-2.4,1.4-6.5
c3.8-6.1,13.3-17.9,21.3-21.9c5.2-2.6,12.1-6.1,19.4-9.7c31.8-15.6,77.4-52.1,59.9-52c-13,0.1-73.8,97.8-98.9,133.1
c-1.5,2.1-1.7,3.4-3,5.2c-1.3,1.8-2.9,3.4-4.3,4.9c-3.5,3.6-1,3.9-1,3.9"></path>
<path class="st3 XuRougRb_9" d="M149.7,87.9c0,0.2,0.5,0.5,1.5,1c1.2,0.5,3,0.8,5.5,0.7c10.4-0.6,51-9.5,74.5-10.6c1.8-0.1,3.6-0.1,5.3-0.1
c6.1,0,20.1,0.2,20.1,3.7c0.1,14.3-17.9,25.2-25.9,27.3c-2.1,0.6-1.5-2.1,0.8-6c3.4-5.8,13-17.8,21.1-22.1
c5.2-2.8,12.1-6.4,19.3-9.9c31.8-15.4,77.6-52.1,60.5-51.9c-12.6,0.1-74.4,98.5-98.7,133c-1.5,2.2-1.6,3.4-2.9,5.2
c-1.3,1.8-2.9,3.4-4.3,4.8c-3.4,3.5-1.2,3.9-1.2,3.9"></path>
<path class="st3 XuRougRb_10" d="M149.7,87.9c0,0.2,0.5,0.4,1.6,0.9c1.2,0.5,3,0.8,5.5,0.6c10.6-0.7,51.1-9.5,74.7-10.6
c1.8-0.1,3.6-0.1,5.3-0.1c6.3,0,20.1,0.3,20.1,3.8c0.1,14.2-17.8,25.1-26,27.4c-2.3,0.6-1.8-1.9,0.2-5.6
c3.1-5.5,12.6-17.6,20.9-22.3c5.2-2.9,12.1-6.6,19.3-10C303.1,56.7,349,19.8,332.4,20c-12.3,0.1-74.9,99.1-98.6,132.9
c-1.5,2.2-1.5,3.4-2.8,5.2c-1.3,1.8-2.9,3.4-4.3,4.8c-3.4,3.4-1.4,3.8-1.4,3.8"></path>
<path class="st3 XuRougRb_11" d="M149.7,87.9c0,0.1,0.5,0.4,1.6,0.7c1.2,0.4,3,0.7,5.5,0.6c10.9-0.7,51.2-9.5,74.8-10.6
c1.8-0.1,3.6-0.1,5.3-0.1c6.5,0,20.1,0.3,20.1,3.9c0.1,14.1-17.7,25.1-26,27.5c-2.4,0.7-2.2-1.6-0.4-5.2
c2.8-5.3,12.3-17.5,20.7-22.5c5.2-3.1,12.1-6.8,19.3-10.2c31.9-15,77.9-52,61.7-51.9c-11.9,0.1-75.4,99.8-98.5,132.7
c-1.6,2.2-1.4,3.4-2.7,5.2c-1.3,1.8-2.9,3.4-4.3,4.8c-3.4,3.3-1.5,3.7-1.5,3.7"></path>
<path class="st3 XuRougRb_12" d="M149.7,87.9c0,0.1,0.5,0.3,1.6,0.6c1.2,0.4,3,0.7,5.5,0.5c11.1-0.8,51.3-9.6,75-10.6c1.8-0.1,3.6-0.1,5.3-0.1
c6.7,0,20,0.4,20.1,4c0.1,14.1-17.6,25-26.1,27.6c-2.5,0.8-2.6-1.4-1-4.7c2.4-5,11.9-17.4,20.6-22.7c5.3-3.2,12.2-7,19.2-10.3
c31.9-14.8,78.1-52,62.4-51.9C320.8,20.5,256.4,120.9,234,153c-1.6,2.3-1.3,3.4-2.6,5.3c-1.3,1.8-2.9,3.4-4.4,4.7
c-3.4,3.2-1.7,3.7-1.7,3.7"></path>
<path class="st3 XuRougRb_13" d="M149.7,87.9c0,0,0.5,0.2,1.6,0.5c1.2,0.4,3,0.6,5.5,0.4c11.4-0.8,51.4-9.6,75.2-10.6c1.8-0.1,3.6-0.1,5.3-0.1
c6.9,0.1,20,0.5,20.1,4.2c0.1,14-17.4,24.9-26.1,27.7c-2.7,0.8-3-1.1-1.6-4.3c2.1-4.8,11.5-17.3,20.4-22.9
c5.3-3.4,12.2-7.2,19.2-10.4c32-14.6,78.2-52,63-51.8c-11.2,0.1-76.4,101.2-98.2,132.5c-1.6,2.3-1.1,3.4-2.5,5.3
c-1.3,1.8-2.9,3.3-4.4,4.7c-3.3,3.1-1.9,3.6-1.9,3.6"></path>
<path class="st3 XuRougRb_14" d="M149.7,87.9c0,0,0.6,0.1,1.6,0.4c1.2,0.4,3,0.6,5.6,0.4c11.6-0.9,51.5-9.6,75.3-10.6c1.8-0.1,3.6-0.1,5.3-0.1
c7.1,0.1,20,0.5,20.1,4.3c0.1,13.9-17.3,24.9-26.2,27.8c-2.8,0.9-3.3-0.8-2.2-3.8c1.8-4.5,11.2-17.2,20.2-23.1
c5.3-3.5,12.2-7.4,19.2-10.6c32-14.4,78.4-51.9,63.6-51.8c-10.8,0.1-77,101.9-98,132.4c-1.6,2.4-1,3.4-2.4,5.3
c-1.3,1.8-2.9,3.3-4.4,4.7c-3.3,3-2.1,3.5-2.1,3.5"></path>
<path class="st3 XuRougRb_15" d="M149.7,87.9c0-0.1,0.6,0,1.7,0.3c1.2,0.3,3.1,0.5,5.6,0.3c11.9-1,51.6-9.6,75.5-10.5c1.8-0.1,3.6-0.1,5.3-0.1
c7.3,0.1,20,0.6,20,4.4c0.1,13.8-17.2,24.8-26.3,27.9c-2.9,1-3.7-0.6-2.8-3.4c1.4-4.2,10.8-17,20-23.3c5.4-3.7,12.2-7.7,19.2-10.7
c32-14.2,78.5-51.9,64.3-51.8c-10.4,0.1-77.5,102.6-97.9,132.3c-1.7,2.4-0.9,3.4-2.3,5.3c-1.3,1.8-2.9,3.3-4.4,4.6
c-3.3,2.9-2.3,3.5-2.3,3.5"></path>
<path class="st3 XuRougRb_16" d="M149.7,87.9c0-0.1,0.6-0.1,1.7,0.2c1.2,0.3,3.1,0.5,5.6,0.3c12.1-1.1,51.7-9.7,75.7-10.5
c1.8-0.1,3.6-0.1,5.3-0.1c7.5,0.1,20,0.6,20,4.5c0.1,13.8-17,24.8-26.3,28c-3.1,1.1-4.1-0.3-3.4-3c1.1-4,10.5-16.9,19.8-23.5
c5.4-3.8,12.3-7.9,19.1-10.9C299.5,59,346.1,21,332.3,21.2c-10.1,0.1-78,103.2-97.8,132.1c-1.7,2.5-0.8,3.4-2.2,5.4
c-1.3,1.8-2.9,3.3-4.5,4.6c-3.3,2.8-2.5,3.4-2.5,3.4"></path>
<path class="st3 XuRougRb_17" d="M149.7,87.9c0-0.1,0.6-0.2,1.7,0.1c1.2,0.3,3.1,0.4,5.6,0.2c12.4-1.1,51.8-9.7,75.9-10.5
c1.8-0.1,3.6-0.1,5.4-0.1c7.7,0.1,20,0.7,20,4.6c0.1,13.7-16.9,24.7-26.4,28.1c-3.2,1.2-4.5,0-4-2.5c0.7-3.7,10.1-16.8,19.7-23.7
c5.4-4,12.3-8.1,19.1-11c32.1-13.7,78.8-51.8,65.5-51.7c-9.7,0.1-78.5,103.9-97.6,132c-1.7,2.5-0.7,3.4-2.1,5.4
c-1.3,1.8-2.9,3.3-4.5,4.6c-3.2,2.7-2.7,3.3-2.7,3.3"></path>
<path class="st3 XuRougRb_18" d="M149.7,87.9c0-0.2,0.6-0.3,1.7,0c1.2,0.3,3.1,0.4,5.6,0.2c12.6-1.2,51.9-9.7,76-10.5c1.8-0.1,3.7-0.1,5.4-0.1
c7.9,0.1,20,0.8,20,4.7c0.1,13.6-16.8,24.7-26.4,28.3c-3.3,1.2-4.8,0.2-4.6-2.1c0.4-3.4,9.8-16.6,19.5-23.9
c5.5-4.1,12.3-8.3,19.1-11.1c32.2-13.5,79-51.8,66.2-51.7c-9.3,0.1-79,104.6-97.5,131.9c-1.7,2.5-0.6,3.4-2,5.4
c-1.2,1.8-2.9,3.2-4.5,4.5c-3.2,2.7-2.9,3.3-2.9,3.3"></path>
<path class="st3 XuRougRb_19" d="M149.7,87.9c0-0.2,0.6-0.4,1.7-0.1c1.2,0.2,3.1,0.3,5.6,0.1c12.9-1.3,52-9.7,76.2-10.5
c1.8-0.1,3.7-0.1,5.4-0.1c8.1,0.1,19.9,0.8,20,4.8c0.1,13.6-16.6,24.6-26.5,28.4c-3.5,1.3-5.2,0.5-5.2-1.6
c0.1-3.1,9.4-16.5,19.3-24.1c5.5-4.2,12.4-8.5,19.1-11.3c32.2-13.3,79.2-51.8,66.8-51.7c-9,0.1-79.5,105.3-97.3,131.8
c-1.8,2.6-0.5,3.4-1.9,5.4c-1.2,1.8-2.9,3.2-4.5,4.5c-3.2,2.6-3.1,3.2-3.1,3.2"></path>
<path class="st3 XuRougRb_20" d="M149.7,87.9c0-0.3,0.6-0.4,1.7-0.2c1.2,0.2,3.1,0.3,5.7,0c13.2-1.3,52.1-9.8,76.4-10.4
c1.8-0.1,3.7-0.1,5.4-0.1c8.3,0.1,19.9,0.9,20,4.9c0.1,13.5-16.5,24.6-26.5,28.5c-3.6,1.4-5.6,0.8-5.8-1.2
c-0.3-2.9,9.1-16.4,19.1-24.3c5.5-4.4,12.4-8.7,19-11.4C297,60.5,344.1,21.9,332.2,22c-8.6,0.1-79.9,106-97.2,131.7
c-1.8,2.6-0.4,3.4-1.8,5.4c-1.2,1.8-2.9,3.2-4.5,4.5c-3.1,2.5-3.3,3.1-3.3,3.1"></path>
<path class="st3 XuRougRb_21" d="M149.7,87.9c0-0.3,0.6-0.5,1.8-0.3c1.2,0.2,3.2,0.3,5.7,0c13.4-1.4,52.2-9.8,76.6-10.4c1.8-0.1,3.7-0.1,5.4,0
c8.4,0.1,19.9,1,20,5c0.1,13.4-16.4,24.5-26.6,28.6c-3.7,1.5-5.9,1-6.4-0.8c-0.6-2.6,8.7-16.2,19-24.5c5.6-4.5,12.4-8.9,19-11.6
c32.3-12.8,79.5-51.7,68.1-51.6c-8.3,0.1-80.4,106.7-97.1,131.5c-1.8,2.7-0.3,3.4-1.7,5.5c-1.2,1.8-2.9,3.2-4.6,4.4
c-3.1,2.4-3.5,3-3.5,3"></path>
<path class="st3 XuRougRb_22" d="M149.7,87.9c0-0.4,0.6-0.6,1.8-0.5c1.2,0.2,3.2,0.2,5.7-0.1c13.7-1.5,52.3-9.8,76.7-10.4c1.8,0,3.7-0.1,5.4,0
c8.6,0.2,19.9,1,19.9,5.1c0.1,13.3-16.2,24.5-26.6,28.7c-3.9,1.6-6.3,1.3-6.9-0.3c-0.9-2.3,8.4-16.1,18.8-24.7
c5.6-4.7,12.4-9.2,19-11.7c32.4-12.6,79.6-51.7,68.7-51.6c-7.9,0.1-80.9,107.4-96.9,131.4c-1.8,2.7-0.2,3.4-1.6,5.5
c-1.2,1.8-2.9,3.2-4.6,4.4c-3.1,2.3-3.7,3-3.7,3"></path>
<path class="st3 XuRougRb_23" d="M149.7,87.9c0-0.4,0.6-0.7,1.8-0.6c1.3,0.2,3.2,0.2,5.7-0.1c13.9-1.6,52.4-9.8,76.9-10.4c1.8,0,3.7-0.1,5.4,0
c8.8,0.2,19.9,1.1,19.9,5.3c0.1,13.3-16.1,24.4-26.7,28.8c-4,1.6-6.7,1.6-7.5,0.1c-1.2-2,8.1-16,18.6-24.9
c5.7-4.8,12.5-9.4,18.9-11.9c32.4-12.4,79.8-51.7,69.3-51.6c-7.5,0.1-81.4,108.1-96.8,131.3c-1.8,2.8-0.1,3.4-1.5,5.5
c-1.2,1.7-2.9,3.2-4.6,4.4c-3,2.2-3.9,2.9-3.9,2.9"></path>
<path class="st3 XuRougRb_24" d="M149.7,87.9c0-0.5,0.6-0.8,1.8-0.7c1.3,0.1,3.2,0.1,5.7-0.2c14.2-1.6,52.5-9.9,77.1-10.4c1.8,0,3.7-0.1,5.4,0
c9,0.2,19.9,1.1,19.9,5.4c0.1,13.2-15.9,24.4-26.7,28.9c-4.1,1.7-7,1.8-8.1,0.6c-1.5-1.7,7.7-15.8,18.4-25.1
c5.7-5,12.5-9.6,18.9-12c32.5-12.2,80-51.6,70-51.5c-7.2,0.1-81.9,108.8-96.7,131.2c-1.9,2.8,0,3.4-1.4,5.5
c-1.2,1.7-2.9,3.1-4.6,4.3c-3,2.1-4.1,2.8-4.1,2.8"></path>
<path class="st3 XuRougRb_25" d="M149.7,87.9c0-0.5,0.6-0.9,1.8-0.8c1.3,0.1,3.2,0.1,5.8-0.2c14.4-1.7,52.6-9.9,77.3-10.4c1.8,0,3.7,0,5.5,0
c9.2,0.2,19.9,1.2,19.9,5.5c0.1,13.1-15.8,24.3-26.8,29c-4.2,1.8-7.4,2.1-8.7,1c-1.8-1.5,7.4-15.7,18.2-25.3
c5.7-5.1,12.5-9.8,18.9-12.1C294,62.6,341.6,22.9,332.1,23c-6.8,0.1-82.4,109.5-96.5,131.1c-1.9,2.9,0.1,3.4-1.3,5.5
c-1.2,1.7-2.9,3.1-4.6,4.3c-3,2-4.3,2.8-4.3,2.8"></path>
<path class="st3 XuRougRb_26" d="M149.7,87.9c0-0.6,0.6-1,1.9-0.9c1.3,0.1,3.2,0,5.8-0.3c14.7-1.8,52.8-9.9,77.4-10.3c1.8,0,3.7,0,5.5,0
c9.4,0.2,19.8,1.3,19.9,5.6c0.1,13.1-15.7,24.3-26.9,29.1c-4.4,1.9-7.7,2.4-9.3,1.4c-2.1-1.2,7-15.5,18.1-25.5
c5.8-5.2,12.5-10,18.9-12.3c32.6-11.7,80.3-51.6,71.2-51.5c-6.4,0.1-82.9,110.2-96.4,130.9c-1.9,2.9,0.3,3.4-1.2,5.6
c-1.2,1.7-3,3.1-4.7,4.3c-2.9,2-4.5,2.7-4.5,2.7"></path>
<path class="st3 XuRougRb_27" d="M149.7,87.9c0-0.6,0.6-1.1,1.9-1c1.3,0.1,3.2,0,5.8-0.3c14.9-1.9,52.9-9.9,77.6-10.3c1.8,0,3.7,0,5.5,0
c9.6,0.2,19.8,1.3,19.9,5.7c0.1,13-15.5,24.3-26.9,29.2c-4.5,2-8.1,2.6-9.9,1.9c-2.5-1,6.7-15.4,17.9-25.7
c5.8-5.4,12.6-10.2,18.8-12.4c32.6-11.5,80.4-51.5,71.9-51.5c-6.1,0.1-83.3,111-96.2,130.8c-1.9,3,0.4,3.4-1.1,5.6
c-1.2,1.7-3,3.1-4.7,4.2c-2.9,1.9-4.7,2.6-4.7,2.6"></path>
<path class="st3 XuRougRb_28" d="M149.7,87.9c0-0.6,0.7-1.2,1.9-1.1c1.3,0.1,3.3-0.1,5.8-0.4c15.2-2,53-10,77.8-10.3c1.8,0,3.7,0,5.5,0
c9.8,0.2,19.8,1.4,19.9,5.8c0.1,12.9-15.4,24.2-27,29.3c-4.6,2-8.5,2.9-10.5,2.3c-2.8-0.7,6.4-15.3,17.7-25.9
c5.9-5.5,12.6-10.4,18.8-12.6c32.7-11.2,80.6-51.5,72.5-51.4c-5.7,0.1-83.8,111.7-96.1,130.7c-1.9,3,0.5,3.4-1,5.6
c-1.1,1.7-3,3.1-4.7,4.2c-2.9,1.8-4.9,2.6-4.9,2.6"></path>
<path class="st3 XuRougRb_29" d="M149.7,87.9c0-0.7,0.7-1.2,1.9-1.2c1.3,0,3.3-0.1,5.8-0.5c15.4-2.1,53.1-10,78-10.3c1.8,0,3.7,0,5.5,0
c10,0.2,19.8,1.5,19.8,5.9c0.1,12.9-15.2,24.2-27,29.4c-4.8,2.1-8.8,3.1-11.1,2.8c-3.1-0.5,6-15.1,17.5-26.1
c5.9-5.7,12.6-10.6,18.8-12.7c32.7-10.9,80.7-51.5,73.1-51.4c-5.3,0-84.3,112.4-96,130.6c-2,3,0.6,3.4-0.9,5.6
c-1.1,1.7-3,3.1-4.7,4.2c-2.8,1.7-5.1,2.5-5.1,2.5"></path>
<path class="st3 XuRougRb_30" d="M149.7,87.9c0-0.7,0.7-1.3,1.9-1.3c1.3,0,3.3-0.2,5.8-0.5c15.7-2.1,53.2-10,78.1-10.3c1.8,0,3.7,0,5.5,0
c10.2,0.2,19.8,1.5,19.8,6c0.1,12.8-15.1,24.1-27.1,29.5c-4.9,2.2-9.2,3.4-11.7,3.2c-3.4-0.2,5.7-15,17.3-26.3
c6-5.8,12.7-10.8,18.8-12.8C291,64.7,339.2,23.9,332,24c-5,0-84.8,113.1-95.8,130.5c-2,3.1,0.7,3.4-0.8,5.7c-1.1,1.7-3,3.1-4.8,4.1
c-2.8,1.6-5.3,2.4-5.3,2.4"></path>
<path class="st3 XuRougRb_31" d="M149.7,87.9c0-0.8,0.7-1.4,1.9-1.4c9.5-0.1,55.1-10.6,84.2-10.8c12.4-0.1,25.3,0.8,25.3,6.2
c0.2,18-29.9,33.2-39.5,33.3c-5.6,0.1,17.9-33.8,35.9-39.5c32.8-10.5,81.1-51.4,74.4-51.4c-4.6,0-85.2,113.8-95.7,130.3
c-2,3.1,0.8,3.4-0.7,5.7c-2.8,4.3-10.3,6.5-10.3,6.5"></path>
</g>
<g class="edward-hopper-stroke7">
<path class="st3 BdtfwOBA_0" d="M263,104.3c0-1.8,1.2-5.1,2.3-5.9c1-0.7,43.4-31.5,43.5-21.3c0,5.2-12.3,17.4-8.4,17.4
c15.2-0.1,94.4-77.1,90.7-77.1c-6.1,0.1-64.6,69.2-111.5,154.1c-1.5,2.8-3.7,3.7-5.7,3.7"></path>
<path class="st3 BdtfwOBA_1" d="M263,104.3c0-1.7,1.2-4.8,2.4-5.6C266,98.3,282,86.5,294.3,80c7.9-4.2,14-6.1,14-2.1c0,0.9-0.4,2.1-1,3.3
c-2.7,5.8-10.1,13.7-6.7,13.5c15.6-0.9,94.4-77.1,90.8-77.3c-1.4-0.1-5.9,3.6-12.3,10.6c-21,22.8-63.8,79.5-98.6,141.7
c-0.3,0.6-0.7,1.2-1,1.8c-0.3,0.6-0.7,1.1-1.1,1.6c-1.3,1.6-2.9,2.2-4.3,2.2"></path>
<path class="st3 BdtfwOBA_2" d="M263,104.3c0-1.6,1.3-4.5,2.4-5.2c0.7-0.4,16.7-12.6,28.8-18.9c7.8-4.1,13.5-5.6,13.3-1.5c0,0.9-0.4,2.1-1,3.3
c-2.6,5.7-9.6,13.3-6,12.9c16.1-1.6,94.4-77,90.9-77.6c-1.4-0.2-6,3.3-12.4,10.2c-21.5,23.2-65,81.7-98.9,142.1
c-0.3,0.6-0.7,1.2-1.1,1.8c-0.4,0.6-0.7,1.1-1.1,1.6c-1.3,1.5-2.8,2.2-4,2.2"></path>
<path class="st3 BdtfwOBA_3" d="M263,104.3c0-1.4,1.3-4.2,2.4-4.9c0.7-0.4,16.8-13,28.8-19c7.7-3.9,12.9-5.1,12.7-0.9c-0.1,1-0.4,2.1-1,3.3
c-2.5,5.7-9.1,12.8-5.3,12.3c16.6-2.3,94.3-77,91-77.8c-1.4-0.4-6.1,3-12.5,9.9c-21.9,23.5-66.2,83.9-99.3,142.4
c-0.4,0.6-0.7,1.2-1.1,1.8c-0.4,0.6-0.7,1.1-1.1,1.6c-1.2,1.5-2.7,2.2-3.7,2.2"></path>
<path class="st3 BdtfwOBA_4" d="M263,104.3c0-1.3,1.3-3.8,2.4-4.6c0.8-0.4,16.9-13.3,28.8-19.1c7.5-3.8,12.3-4.6,12-0.3c-0.1,1-0.5,2.1-1,3.3
c-2.5,5.6-8.5,12.4-4.5,11.7c17-3,94.2-76.9,91.1-78.1c-1.3-0.5-6.2,2.8-12.5,9.6C357,50.7,311.9,113,279.7,169.6
c-0.4,0.6-0.7,1.2-1.1,1.8c-0.4,0.6-0.8,1.1-1.1,1.6c-1.2,1.5-2.6,2.2-3.5,2.2"></path>
<path class="st3 BdtfwOBA_5" d="M263,104.3c0-1.2,1.3-3.5,2.5-4.2c0.8-0.4,17-13.6,28.7-19.3c7.4-3.6,11.8-4.1,11.4,0.2c-0.1,1-0.5,2.1-1,3.3
c-2.4,5.6-8,12-3.8,11.1c17.5-3.7,94.1-76.9,91.2-78.3c-1.3-0.6-6.3,2.5-12.6,9.3c-22.7,24.3-68.6,88.3-99.9,143.1
c-0.4,0.6-0.7,1.2-1.1,1.8c-0.4,0.6-0.8,1.1-1.1,1.6c-1.1,1.5-2.5,2.3-3.2,2.3"></path>
<path class="st3 BdtfwOBA_6" d="M263,104.3c0-1.1,1.3-3.2,2.5-3.9c0.9-0.4,17-14,28.7-19.4c7.3-3.5,11.2-3.6,10.7,0.8c-0.1,1-0.5,2.2-1,3.3
c-2.3,5.5-7.5,11.6-3.1,10.5c17.9-4.3,94.3-77.5,91.3-78.6c-1.2-1-6.4,2.2-12.7,9c-23.1,24.6-69.8,90.5-100.3,143.5
c-0.4,0.7-0.8,1.2-1.1,1.8c-0.4,0.6-0.8,1.1-1.1,1.6c-1,1.5-2.3,2.3-2.9,2.3"></path>
<path class="st3 BdtfwOBA_7" d="M263,104.3c0-1,1.3-2.9,2.5-3.6c0.9-0.4,17.1-14.3,28.7-19.5c7.2-3.4,10.7-3.1,10.1,1.4c-0.1,1-0.5,2.2-1,3.3
c-2.2,5.4-6.9,11.2-2.4,10c18.4-5,94.3-77.5,91.4-78.8c-1.1-1.2-6.5,2-12.8,8.7c-23.5,25-71,92.6-100.6,143.8
c-0.4,0.7-0.8,1.2-1.2,1.8c-0.4,0.6-0.8,1.1-1.1,1.6c-1,1.5-2.2,2.3-2.6,2.3"></path>
<path class="st3 BdtfwOBA_8" d="M263,104.3c0-0.8,1.3-2.6,2.5-3.3c0.9-0.3,17.2-14.6,28.6-19.6c7-3.2,10.1-2.5,9.4,2c-0.2,1-0.5,2.2-1,3.3
c-2.1,5.4-6.4,10.8-1.6,9.4c18.8-5.6,94.3-77.6,91.5-79.1c-1.1-1.3-6.6,1.7-12.8,8.4c-23.9,25.4-72.2,94.8-101,144.2
c-0.4,0.7-0.8,1.2-1.2,1.8c-0.4,0.6-0.8,1-1.1,1.6c-0.9,1.5-2.1,2.3-2.3,2.3"></path>
<path class="st3 BdtfwOBA_9" d="M263,104.3c0-0.7,1.3-2.3,2.5-2.9c1-0.3,17.3-15,28.6-19.7c6.9-3.1,9.5-2,8.8,2.6c-0.2,1.1-0.6,2.2-1,3.3
c-2,5.3-5.9,10.4-0.9,8.8c19.3-6.3,94.3-77.7,91.6-79.3c-1-1.5-6.7,1.4-12.9,8.1c-24.3,25.7-73.5,97-101.3,144.5
c-0.4,0.7-0.8,1.2-1.2,1.7c-0.4,0.6-0.8,1-1.1,1.6c-0.9,1.4-2,2.4-2,2.4"></path>
<path class="st3 BdtfwOBA_10" d="M263,104.3c0-0.6,1.3-2,2.6-2.6c1-0.3,17.4-15.3,28.6-19.9c6.8-2.9,9-1.5,8.1,3.1c-0.2,1.1-0.6,2.2-1,3.3
c-1.9,5.3-5.3,10-0.2,8.2c19.8-6.9,94.2-77.7,91.7-79.6c-1-1.7-6.8,1.1-13,7.8c-24.7,26.1-74.7,99.1-101.7,144.8
c-0.4,0.7-0.8,1.2-1.2,1.7c-0.4,0.6-0.8,1-1.1,1.6c-0.8,1.4-1.8,2.4-1.8,2.4"></path>
<path class="st3 BdtfwOBA_11" d="M263,104.3c0-0.5,1.3-1.7,2.6-2.3c1.1-0.3,17.5-15.6,28.5-20c6.7-2.8,8.4-1,7.4,3.7c-0.2,1.1-0.6,2.2-1,3.4
c-1.8,5.2-4.8,9.6,0.6,7.6c20.2-7.5,94.2-77.8,91.8-79.8c-0.9-1.8-6.9,0.9-13.1,7.4c-25.1,26.5-76,101.3-102,145.2
c-0.4,0.7-0.8,1.2-1.2,1.7c-0.5,0.6-0.8,1-1.1,1.6c-0.8,1.4-1.7,2.4-1.5,2.4"></path>
<path class="st3 BdtfwOBA_12" d="M263,104.3c0-0.4,1.3-1.4,2.6-1.9c1.1-0.3,17.6-16,28.5-20.1c6.5-2.7,7.8-0.5,6.8,4.3c-0.2,1.1-0.6,2.3-1,3.4
c-1.7,5.2-4.3,9.2,1.3,7c20.7-8.1,94.2-77.8,91.9-80.1c-0.9-2-6.9,0.6-13.1,7.1c-25.5,26.8-77.3,103.4-102.3,145.5
c-0.4,0.7-0.9,1.2-1.3,1.7c-0.5,0.6-0.9,1-1.1,1.6c-0.7,1.4-1.6,2.4-1.2,2.4"></path>
<path class="st3 BdtfwOBA_13" d="M263,104.3c0-0.2,1.3-1.1,2.6-1.6c1.1-0.3,17.7-16.3,28.5-20.2c6.4-2.5,7.3,0,6.1,4.9c-0.3,1.1-0.6,2.3-1,3.4
c-1.6,5.1-3.7,8.8,2,6.4c21.2-8.8,94.2-77.9,92-80.3c-0.9-2.2-7,0.3-13.2,6.8c-25.9,27.2-78.6,105.6-102.7,145.9
c-0.4,0.7-0.9,1.2-1.3,1.7c-0.5,0.6-0.9,1-1.2,1.5c-0.7,1.4-1.5,2.5-0.9,2.5"></path>
<path class="st3 BdtfwOBA_14" d="M263,104.3c0-0.1,1.3-0.8,2.7-1.3c1.2-0.3,17.8-16.6,28.4-20.3c6.3-2.4,6.7,0.5,5.5,5.4
c-0.3,1.1-0.7,2.3-1,3.4c-1.5,5-3.2,8.4,2.7,5.9c21.6-9.4,93.7-77.6,92.1-80.6c-1.2-2.2-7.1,0.1-13.3,6.5
c-26.3,27.6-79.9,107.7-103,146.2c-0.4,0.7-0.9,1.2-1.3,1.7c-0.5,0.6-0.9,1-1.2,1.5c-0.6,1.3-1.4,2.5-0.6,2.5"></path>
<path class="st3 BdtfwOBA_15" d="M263,104.3c0,0,1.3-0.5,2.7-0.9c1.2-0.2,17.9-17,28.4-20.5c6.2-2.3,6.1,1,4.8,6c-0.3,1.1-0.7,2.3-1,3.4
c-1.4,5-2.7,8,3.5,5.3c22.1-10,93.7-77.7,92.2-80.8c-1.1-2.4-7.2-0.2-13.4,6.2c-26.7,27.9-81.2,109.8-103.4,146.6
c-0.4,0.7-0.9,1.2-1.3,1.7c-0.5,0.6-0.9,1-1.2,1.5c-0.6,1.3-1.2,2.5-0.3,2.5"></path>
<path class="st3 BdtfwOBA_16" d="M263,104.3c0,0.1,1.3-0.2,2.7-0.6c1.3-0.2,18-17.3,28.4-20.6c6-2.1,5.6,1.5,4.2,6.6c-0.3,1.2-0.7,2.3-1,3.4
c-1.3,4.9-2.1,7.6,4.2,4.7c22.6-10.6,93.7-77.8,92.3-81.1c-1.1-2.6-7.3-0.5-13.5,5.9c-27.1,28.3-82.5,112-103.7,146.9
c-0.4,0.7-0.9,1.2-1.3,1.7c-0.5,0.5-0.9,0.9-1.2,1.5c-0.5,1.3-1.1,2.6-0.1,2.5"></path>
<path class="st3 BdtfwOBA_17" d="M263,104.3c0,0.3,1.3,0.1,2.7-0.3c1.3-0.2,18.1-17.6,28.4-20.7c5.9-2,5,2.1,3.5,7.2c-0.3,1.2-0.7,2.3-1,3.4
c-1.3,4.9-1.6,7.3,4.9,4.1c23.1-11.2,93.7-77.9,92.4-81.4c-1-2.8-7.4-0.8-13.5,5.6c-27.5,28.6-83.8,114.1-104.1,147.2
c-0.4,0.7-0.9,1.2-1.4,1.7c-0.5,0.5-0.9,0.9-1.2,1.5c-0.5,1.2-1,2.6,0.2,2.6"></path>
<path class="st3 BdtfwOBA_18" d="M263,104.3c0,0.4,1.3,0.4,2.8,0c1.4-0.2,18.2-18,28.3-20.8c5.8-1.8,4.4,2.6,2.9,7.7c-0.4,1.2-0.8,2.4-1,3.4
c-1.2,4.8-1.1,6.9,5.6,3.5c23.5-11.8,93.7-78,92.5-81.6c-1-2.9-7.5-1-13.6,5.3c-27.9,29-85.1,116.2-104.4,147.6
c-0.5,0.7-0.9,1.2-1.4,1.7c-0.5,0.5-0.9,0.9-1.2,1.5c-0.4,1.2-0.9,2.6,0.5,2.6"></path>
<path class="st3 BdtfwOBA_19" d="M263,104.3c0,0.5,1.3,0.7,2.8,0.4c1.4-0.2,18.3-18.3,28.3-20.9c5.7-1.7,3.9,3.1,2.2,8.3
c-0.4,1.2-0.8,2.4-1,3.4c-1.1,4.8-0.5,6.5,6.4,2.9c24-12.4,93.7-78.1,92.6-81.9c-0.9-3.1-7.6-1.3-13.7,4.9
c-28.3,29.4-86.4,118.3-104.8,147.9c-0.5,0.7-1,1.2-1.4,1.7c-0.6,0.5-1,0.9-1.2,1.5c-0.4,1.2-0.8,2.6,0.8,2.6"></path>
<path class="st3 BdtfwOBA_20" d="M263,104.3c0,0.6,1.3,1,2.8,0.7c1.4-0.2,18.4-18.6,28.3-21.1c5.5-1.6,3.3,3.6,1.6,8.9c-0.4,1.2-0.8,2.4-1,3.4
c-1,4.7,0,6.1,7.1,2.3c24.5-13,93.7-78.2,92.7-82.1c-0.9-3.3-7.7-1.6-13.8,4.6c-28.8,29.7-87.8,120.5-105.1,148.3
c-0.5,0.7-1,1.2-1.4,1.7c-0.6,0.5-1,0.9-1.2,1.5c-0.4,1.2-0.6,2.7,1.1,2.6"></path>
<path class="st3 BdtfwOBA_21" d="M263,104.3c0,0.7,1.3,1.3,2.8,1c1.5-0.2,18.5-19,28.2-21.2c5.4-1.4,2.8,4.1,0.9,9.5c-0.4,1.2-0.8,2.4-1,3.4
c-0.9,4.6,0.6,5.7,7.8,1.7c25-13.6,93.7-78.3,92.8-82.4c-0.8-3.5-7.8-1.9-13.8,4.3c-29.2,30.1-89.1,122.6-105.4,148.6
c-0.5,0.8-1,1.2-1.4,1.6c-0.6,0.5-1,0.9-1.2,1.5c-0.3,1.1-0.5,2.7,1.3,2.7"></path>
<path class="st3 BdtfwOBA_22" d="M263,104.3c0,0.9,1.3,1.6,2.8,1.4c1.5-0.1,18.5-19.3,28.2-21.3c5.3-1.3,2.2,4.6,0.2,10c-0.4,1.2-0.8,2.4-1,3.4
c-0.8,4.6,1.1,5.3,8.6,1.2c25.5-14.2,93.7-78.3,92.9-82.6c-0.7-3.7-7.9-2.1-13.9,4c-29.6,30.4-90.5,124.7-105.8,149
c-0.5,0.8-1,1.2-1.5,1.6c-0.6,0.5-1,0.8-1.2,1.5c-0.3,1.1-0.4,2.7,1.6,2.7"></path>
<path class="st3 BdtfwOBA_23" d="M263,104.3c0,1,1.3,1.9,2.9,1.7c1.6-0.1,18.6-19.6,28.2-21.4c5.2-1.1,1.6,5.1-0.4,10.6c-0.5,1.3-0.9,2.4-1,3.4
c-0.7,4.5,1.6,4.9,9.3,0.6c26-14.8,93.7-78.4,93-82.9c-0.6-3.8-8-2.4-14,3.7c-30.1,30.7-91.8,126.8-106.1,149.3
c-0.5,0.8-1,1.2-1.5,1.6c-0.6,0.5-1,0.8-1.2,1.5c-0.3,1.1-0.3,2.7,1.9,2.7"></path>
<path class="st3 BdtfwOBA_24" d="M263,104.3c0,1.1,1.3,2.2,2.9,2c1.6-0.1,18.7-20,28.1-21.5c5-1,1.1,5.6-1.1,11.2c-0.5,1.3-0.9,2.5-1,3.4
c-0.6,4.5,2.2,4.5,10,0c26.5-15.4,93.7-78.5,93.1-83.1c-0.6-4-8.1-2.7-14.1,3.4c-30.5,31.1-93.2,128.9-106.5,149.7
c-0.5,0.8-1,1.2-1.5,1.6c-0.6,0.5-1,0.8-1.2,1.5c-0.2,1.1-0.1,2.8,2.2,2.7"></path>
<path class="st3 BdtfwOBA_25" d="M263,104.3c0,1.2,1.3,2.5,2.9,2.3c1.6-0.1,18.8-20.3,28.1-21.7c4.9-0.9,0.5,6.2-1.7,11.8
c-0.5,1.3-0.9,2.5-1,3.4c-0.5,4.4,2.7,4.1,10.7-0.6c26.9-16,93.7-78.6,93.2-83.4c-0.5-4.2-8.2-3-14.1,3.1
c-30.9,31.4-94.5,131-106.8,150c-0.5,0.8-1.1,1.2-1.5,1.6c-0.6,0.5-1.1,0.8-1.2,1.5c-0.2,1,0,2.8,2.5,2.8"></path>
<path class="st3 BdtfwOBA_26" d="M263,104.3c0,1.4,1.3,2.8,2.9,2.7c1.7-0.1,18.9-20.6,28.1-21.8c4.8-0.7-0.1,6.7-2.4,12.3
c-0.5,1.3-0.9,2.5-1,3.4c-0.4,4.4,3.3,3.8,11.5-1.2c27.4-16.6,93.8-78.6,93.3-83.6c-0.4-4.4-8.3-3.2-14.2,2.8
C349.9,50.7,285.3,152,274,169.3c-0.5,0.8-1.1,1.2-1.5,1.6c-0.6,0.5-1.1,0.8-1.2,1.5c-0.1,1,0.1,2.8,2.8,2.8"></path>
<path class="st3 BdtfwOBA_27" d="M263,104.3c0,1.5,1.3,3.1,3,3c1.7-0.1,19-21,28-21.9c4.7-0.6-0.6,7.2-3,12.9c-0.6,1.3-1,2.5-1,3.4
c-0.3,4.3,3.8,3.4,12.2-1.8c27.9-17.2,93.8-78.7,93.4-83.9c-0.3-4.5-8.4-3.5-14.3,2.5C349.5,50.7,284,153.7,273.7,169.3
c-0.5,0.8-1.1,1.2-1.6,1.6c-0.7,0.5-1.1,0.8-1.2,1.5c-0.1,1,0.2,2.9,3,2.8"></path>
<path class="st3 BdtfwOBA_28" d="M263,104.3c0,1.6,1.4,3.4,3,3.3c1.8-0.1,19.1-21.3,28-22c4.5-0.5-1.2,7.7-3.7,13.5c-0.6,1.3-1,2.5-1,3.4
c-0.2,4.2,4.4,3,12.9-2.4c28.4-17.8,93.8-78.8,93.5-84.1c-0.3-4.7-8.5-3.8-14.4,2.1c-32.1,32.5-98.6,137.2-107.8,151
c-0.5,0.8-1.1,1.2-1.6,1.6c-0.7,0.5-1.1,0.7-1.2,1.5c-0.1,0.9,0.3,2.9,3.3,2.9"></path>
<path class="st3 BdtfwOBA_29" d="M263,104.3c0,1.7,1.4,3.7,3,3.7c1.8,0,19.2-21.6,28-22.1c4.4-0.3-1.8,8.2-4.3,14.1c-0.6,1.3-1,2.5-1,3.4
c-0.1,4.2,4.9,2.6,13.6-2.9C331.2,82,396.1,21.6,395.9,16c-0.2-4.9-8.6-4.1-14.5,1.8c-32.5,32.9-100,139.3-108.2,151.4
c-0.5,0.8-1.1,1.2-1.6,1.6c-0.7,0.5-1.2,0.7-1.2,1.5c-0.1,0.9,0.5,2.9,3.6,2.9"></path>
<path class="st3 BdtfwOBA_30" d="M263,104.3c0,1.8,1.4,4,3,4c1.9,0,19.3-22,27.9-22.3c4.3-0.2-2.3,8.7-5,14.6c-0.6,1.4-1,2.6-1,3.5
c-0.1,4.1,5.5,2.2,14.4-3.5C331.8,81.7,396.2,21.7,396,16c-0.1-5.1-8.7-4.3-14.5,1.5C348.6,50.7,280.1,158.9,273,169.2
c-0.6,0.8-1.1,1.2-1.6,1.6c-0.7,0.5-1.2,0.7-1.2,1.5c0,0.9,0.6,2.9,3.9,2.9"></path>
<path class="st3 BdtfwOBA_31" d="M263,104.3c0,2,1.4,4.3,3.1,4.3c1.9,0,19.4-22.3,27.9-22.4c5.1,0-6.7,14-6.7,18.7
c0.2,17.5,108.9-81.3,108.9-89c0-5.2-8.8-4.6-14.6,1.2c-33.3,33.6-102.8,143.5-108.9,152.1c-1.4,2-2.9,1.7-2.9,3.1
c0,0.9,0.7,3,4.2,2.9"></path>
</g>
<g class="edward-hopper-stroke8">
<path class="st3 pgrjCHsz_0" d="M337,93.3c0,1.9,5-1.6,8.3-1.6c2.1,0,2.5,2.8,2.5,3.4c0.1,7.1-16.7,20.8-9.5,20.8c19.8-0.2,79.7-42.1,60.2-42
c-8.3,0.1-50.7,35.7-25.9,35.5c31.4-0.3,70.1-38.6,52-38.5C410,71,410,92.7,420,92.6c7-0.1,41.6-9.1,43.4-9.1c1,0,1.6-2,1.6-3.8"></path>
<path class="st3 pgrjCHsz_1" d="M337,93.3c0,0.7,0.7,0.6,1.8,0.2c1.8-0.6,4.4-1.9,6.5-2c2.1,0,2.5,2.7,2.6,3.3c0,0.2,0,0.3,0,0.5
c-0.1,1.6-0.9,3.5-2.1,5.5c-4.2,6.8-12.6,14.8-7.2,14.8c19.4-0.2,78.9-41.8,59.9-41.6c-7.6,0.1-44.6,30.7-29.7,34.7
c1.1,0.3,2.5,0.4,4.2,0.4c31.1-0.3,69.3-38.2,51.7-38.1c-9.1,0.1-12.4,9-10.8,15.1c0.8,3.5,3.1,6.2,6.7,6.1
c6.6-0.1,36.1-7.8,41.9-8.9c0.5-0.1,0.8-0.1,1-0.1c1,0,1.6-1.9,1.6-3.6"></path>
<path class="st3 pgrjCHsz_2" d="M337,93.3c0,0.7,0.7,0.5,1.8,0.1c1.7-0.6,4.4-1.9,6.5-2c2.1-0.1,2.6,2.5,2.6,3.1c0,0.2,0,0.3,0,0.5
c0,1.5-0.7,3.5-1.9,5.5c-4,6.7-12.6,14.9-7.3,14.9c19-0.2,78.1-41.4,59.6-41.2c-7.5,0.1-44.2,30.5-29.4,34.3
c1.1,0.3,2.5,0.4,4.1,0.4c30.8-0.4,68.6-37.9,51.4-37.7c-8.9,0.1-12.1,9-10.2,14.9c0.8,3.4,3.1,6,6.7,5.9
c6.7-0.2,35.7-7.8,41.5-8.9c0.5-0.1,0.8-0.1,0.9-0.1c1,0,1.6-1.8,1.6-3.4"></path>
<path class="st3 pgrjCHsz_3" d="M337,93.3c0,0.6,0.7,0.4,1.8,0.1c1.7-0.6,4.4-2,6.5-2.1c2.1-0.1,2.6,2.4,2.7,3c0,0.2,0,0.3,0,0.5
c0,1.5-0.5,3.5-1.7,5.5c-3.9,6.5-12.7,15.1-7.4,15c18.6-0.2,77.3-41,59.3-40.8c-7.3,0.1-43.7,30.3-29,33.9c1.1,0.3,2.4,0.4,4.1,0.4
c30.5-0.5,67.8-37.5,51.1-37.3c-8.6,0.1-11.8,9-9.7,14.8c0.8,3.3,3.1,5.7,6.7,5.6c6.8-0.3,35.4-7.8,41-8.9c0.5-0.1,0.8-0.1,0.9-0.1
c0.9,0,1.6-1.7,1.6-3.2"></path>
<path class="st3 pgrjCHsz_4" d="M337,93.3c0,0.6,0.7,0.4,1.8,0c1.7-0.7,4.4-2,6.6-2.1c2.1-0.1,2.7,2.3,2.8,2.8c0,0.1,0,0.3,0.1,0.5
c0.1,1.4-0.4,3.5-1.5,5.5c-3.8,6.4-12.7,15.2-7.5,15.1c18.2-0.2,76.5-40.6,59-40.4c-7.2,0.1-43.3,30.1-28.6,33.6
c1.1,0.3,2.4,0.4,4,0.4c30.2-0.5,67.1-37.1,50.7-37c-8.4,0.1-11.5,9-9.1,14.6c0.8,3.1,3.2,5.5,6.7,5.4c6.9-0.4,35.1-7.8,40.5-8.8
c0.5-0.1,0.8-0.1,0.9-0.1c0.9,0,1.6-1.6,1.6-3"></path>
<path class="st3 pgrjCHsz_5" d="M337,93.3c0,0.5,0.7,0.3,1.7-0.1c1.7-0.7,4.4-2,6.6-2.2c2.1-0.1,2.7,2.2,2.9,2.7c0.1,0.1,0.1,0.3,0.1,0.4
c0.2,1.4-0.2,3.5-1.2,5.4c-3.6,6.3-12.7,15.3-7.6,15.2c17.7-0.2,75.7-40.2,58.7-40.1c-7.1,0.1-42.8,29.8-28.2,33.2
c1.1,0.3,2.4,0.4,4,0.3c29.9-0.6,66.3-36.7,50.4-36.6c-8.2,0.1-11.2,9.1-8.6,14.4c0.9,3,3.2,5.3,6.7,5.2c7-0.4,34.7-7.8,40.1-8.8
c0.5-0.1,0.8-0.1,0.9-0.1c0.9,0.1,1.6-1.5,1.5-2.8"></path>
<path class="st3 pgrjCHsz_6" d="M337,93.3c0,0.5,0.7,0.2,1.7-0.2c1.7-0.7,4.4-2.1,6.6-2.2c2.1-0.1,2.8,2,3,2.5c0.1,0.1,0.1,0.3,0.1,0.4
c0.3,1.3,0,3.5-1,5.4c-3.5,6.2-12.8,15.4-7.7,15.4c17.3-0.2,74.9-39.8,58.5-39.7c-7,0.1-42.4,29.6-27.9,32.9
c1.1,0.2,2.4,0.4,3.9,0.3c29.7-0.7,65.6-36.4,50.1-36.2c-8,0.1-10.8,9.1-8.1,14.2c0.9,2.9,3.2,5.1,6.7,4.9
c7.1-0.5,34.4-7.8,39.6-8.8c0.4-0.1,0.8-0.1,0.9-0.1c0.9,0.1,1.5-1.3,1.5-2.6"></path>
<path class="st3 pgrjCHsz_7" d="M337,93.3c0,0.5,0.7,0.2,1.7-0.3c1.7-0.7,4.4-2.1,6.6-2.2c2.1-0.2,2.8,1.9,3.1,2.4c0.1,0.1,0.1,0.3,0.1,0.4
c0.3,1.3,0.2,3.5-0.8,5.4c-3.3,6-12.8,15.5-7.8,15.5c16.9-0.2,74.1-39.4,58.2-39.3c-6.8,0.1-41.9,29.4-27.5,32.5
c1.1,0.2,2.4,0.3,3.9,0.3c29.4-0.7,64.8-36,49.7-35.8c-7.7,0.1-10.5,9.1-7.5,14c0.9,2.8,3.2,4.9,6.7,4.7c7.2-0.6,34-7.8,39.1-8.7
c0.4-0.1,0.7-0.1,0.9-0.1c0.9,0.1,1.5-1.2,1.5-2.4"></path>
<path class="st3 pgrjCHsz_8" d="M337,93.3c0,0.4,0.7,0.1,1.7-0.4c1.7-0.7,4.4-2.1,6.6-2.3c2.1-0.2,2.9,1.8,3.2,2.3c0.1,0.1,0.1,0.3,0.1,0.4
c0.4,1.2,0.4,3.4-0.6,5.3c-3.2,5.9-12.8,15.6-7.9,15.6c16.5-0.2,73.3-39.1,57.9-38.9c-6.7,0.1-41.5,29.2-27.1,32.1
c1.1,0.2,2.3,0.3,3.9,0.3c29.1-0.8,64.1-35.6,49.4-35.5c-7.5,0.1-10.2,9.1-7,13.8c0.9,2.7,3.2,4.6,6.7,4.4
c7.4-0.7,33.7-7.8,38.7-8.7c0.4-0.1,0.7-0.1,0.9-0.1c0.9,0.1,1.5-1.1,1.5-2.2"></path>
<path class="st3 pgrjCHsz_9" d="M337,93.3c0,0.4,0.7,0,1.7-0.4c1.7-0.8,4.4-2.1,6.6-2.3c2-0.2,2.8,1.7,3.3,2.1c0.1,0.1,0.1,0.2,0.2,0.4
c0.5,1.2,0.5,3.4-0.3,5.3c-3.1,5.8-12.8,15.7-8,15.7c16.1-0.1,72.5-38.7,57.6-38.5c-6.6,0.1-41,28.9-26.7,31.8
c1.1,0.2,2.3,0.3,3.8,0.3c28.8-0.8,63.3-35.2,49.1-35.1c-7.3,0.1-9.9,9.1-6.4,13.6c0.9,2.6,3.3,4.4,6.7,4.2
c7.5-0.8,33.4-7.8,38.2-8.6c0.4-0.1,0.7-0.1,0.9-0.1c0.9,0.1,1.5-1,1.5-1.9"></path>
<path class="st3 pgrjCHsz_10" d="M337,93.3c0,0.3,0.7-0.1,1.6-0.5c1.7-0.8,4.3-2.1,6.7-2.4c2-0.2,2.9,1.6,3.4,2c0.1,0.1,0.1,0.2,0.2,0.4
c0.5,1.1,0.7,3.4-0.1,5.3c-2.9,5.7-12.9,15.9-8.1,15.8c15.7-0.1,71.7-38.3,57.3-38.2c-6.4,0.1-40.6,28.7-26.3,31.4
c1.1,0.2,2.3,0.3,3.8,0.2c28.5-0.9,62.6-34.8,48.7-34.7c-7.1,0.1-9.6,9.2-5.9,13.5c1,2.4,3.3,4.2,6.7,3.9c7.6-0.8,33-7.8,37.7-8.6
c0.4-0.1,0.7-0.1,0.9-0.1c0.9,0.1,1.5-0.9,1.4-1.7"></path>
<path class="st3 pgrjCHsz_11" d="M337,93.3c0,0.3,0.7-0.1,1.6-0.6c1.6-0.8,4.3-2.2,6.7-2.4c2-0.2,2.9,1.5,3.5,1.8c0.1,0.1,0.1,0.2,0.2,0.3
c0.6,1.1,0.9,3.4,0.1,5.3c-2.8,5.6-12.9,16-8.2,15.9c15.3-0.1,70.9-37.9,57-37.8c-6.3,0.1-40.1,28.5-26,31.1
c1.1,0.2,2.3,0.3,3.7,0.2c28.2-1,61.8-34.5,48.4-34.4c-6.9,0.1-9.3,9.2-5.3,13.3c1,2.3,3.3,4,6.7,3.7c7.7-0.9,32.7-7.8,37.3-8.6
c0.4-0.1,0.7-0.1,0.8,0c0.9,0.1,1.4-0.8,1.4-1.5"></path>
<path class="st3 pgrjCHsz_12" d="M337,93.3c0,0.3,0.7-0.2,1.6-0.7c1.6-0.8,4.3-2.2,6.7-2.5c2-0.3,2.9,1.4,3.6,1.7c0.1,0.1,0.2,0.2,0.2,0.3
c0.7,1,1.1,3.4,0.3,5.2c-2.6,5.4-12.9,16.1-8.3,16c14.9-0.1,70.1-37.5,56.7-37.4c-6.2,0.1-39.7,28.3-25.6,30.7
c1,0.2,2.3,0.3,3.7,0.2c27.9-1,61.1-34.1,48.1-34c-6.6,0.1-9,9.2-4.8,13.1c1,2.2,3.3,3.7,6.7,3.4c7.8-1,32.4-7.8,36.8-8.5
c0.4-0.1,0.7-0.1,0.8,0c0.9,0.1,1.4-0.7,1.4-1.3"></path>
<path class="st3 pgrjCHsz_13" d="M337,93.3c0,0.2,0.7-0.3,1.6-0.8c1.6-0.9,4.3-2.2,6.7-2.5c2-0.3,3,1.2,3.7,1.6c0.1,0.1,0.2,0.2,0.2,0.3
c0.8,1,1.3,3.4,0.5,5.2c-2.5,5.3-12.9,16.2-8.3,16.2c14.5-0.1,69.3-37.1,56.4-37c-6.1,0.1-39.2,28-25.2,30.3c1,0.2,2.3,0.2,3.6,0.2
c27.6-1.1,60.3-33.7,47.7-33.6c-6.4,0.1-8.7,9.2-4.2,12.9c1,2.1,3.4,3.5,6.7,3.2c7.9-1.1,32-7.8,36.3-8.5c0.4-0.1,0.7-0.1,0.8,0
c0.9,0.2,1.4-0.5,1.4-1.1"></path>
<path class="st3 pgrjCHsz_14" d="M337,93.3c0,0.2,0.6-0.4,1.5-0.9c1.6-0.9,4.3-2.2,6.7-2.6c2-0.3,3,1.1,3.7,1.4c0.1,0.1,0.2,0.2,0.3,0.3
c0.9,0.9,1.4,3.4,0.8,5.2c-2.4,5.2-13,16.3-8.4,16.3c14-0.1,68.5-36.7,56.1-36.6c-5.9,0.1-38.8,27.8-24.8,30c1,0.2,2.2,0.2,3.6,0.2
c27.3-1.2,59.6-33.3,47.4-33.2c-6.2,0.1-8.4,9.3-3.7,12.7c1,2,3.4,3.3,6.7,3c8-1.1,31.7-7.8,35.9-8.5c0.4-0.1,0.7-0.1,0.8,0
c0.9,0.2,1.4-0.4,1.4-0.9"></path>
<path class="st3 pgrjCHsz_15" d="M337,93.3c0,0.1,0.6-0.4,1.5-0.9c1.6-0.9,4.3-2.3,6.7-2.6c2-0.3,3.1,0.9,3.8,1.3c0.1,0.1,0.2,0.2,0.3,0.3
c0.9,0.9,1.6,3.3,1,5.2c-2.2,5.1-13,16.4-8.5,16.4c13.6-0.1,67.7-36.4,55.8-36.3c-5.8,0.1-38.3,27.6-24.5,29.6
c1,0.2,2.2,0.2,3.6,0.2c27-1.2,58.8-33,47.1-32.9c-6,0.1-8,9.3-3.1,12.5c1.1,1.9,3.4,3.1,6.7,2.7c8.1-1.2,31.3-7.8,35.4-8.4
c0.4-0.1,0.6-0.1,0.8,0c0.9,0.2,1.4-0.3,1.4-0.7"></path>
<path class="st3 pgrjCHsz_16" d="M337,93.3c0,0.1,0.6-0.5,1.5-1c1.6-0.9,4.3-2.3,6.8-2.7c2-0.3,3.2,0.8,3.9,1.1c0.1,0.1,0.2,0.2,0.3,0.2
c1,0.8,1.8,3.3,1.2,5.1c-2.1,4.9-13,16.5-8.6,16.5c13.2-0.1,66.9-36,55.5-35.9c-5.7,0.1-37.9,27.4-24.1,29.3c1,0.1,2.2,0.2,3.5,0.1
c26.8-1.3,58.1-32.6,46.7-32.5c-5.7,0.1-7.7,9.3-2.6,12.3c1.1,1.7,3.4,2.9,6.7,2.5c8.3-1.3,31-7.8,34.9-8.4c0.4,0,0.6,0,0.8,0
c0.8,0.2,1.3-0.2,1.3-0.5"></path>
<path class="st3 pgrjCHsz_17" d="M337,93.3c0,0.1,0.6-0.6,1.5-1.1c1.6-1,4.3-2.3,6.8-2.7c2-0.3,3.2,0.6,4,1c0.1,0.1,0.2,0.2,0.3,0.2
c1.1,0.8,2,3.3,1.4,5.1c-1.9,4.8-13.1,16.7-8.7,16.6c12.8-0.1,66.1-35.6,55.2-35.5c-5.6,0.1-37.4,27.1-23.7,28.9
c1,0.1,2.2,0.2,3.5,0.1c26.5-1.3,57.3-32.2,46.4-32.1c-5.5,0.1-7.4,9.3-2,12.2c1.1,1.6,3.4,2.6,6.7,2.2c8.4-1.4,30.7-7.8,34.5-8.3
c0.4,0,0.6,0,0.8,0c0.8,0.2,1.3-0.1,1.3-0.3"></path>
<path class="st3 pgrjCHsz_18" d="M337,93.3c0,0,0.6-0.7,1.5-1.2c1.6-1,4.3-2.3,6.8-2.8c2-0.3,3.2,0.5,4.1,0.9c0.1,0,0.2,0.1,0.4,0.2
c1.2,0.7,2.2,3.3,1.6,5.1c-1.8,4.7-13.1,16.8-8.8,16.7c12.4-0.1,65.3-35.2,54.9-35.1c-5.4,0-37,26.9-23.3,28.5
c1,0.1,2.2,0.2,3.4,0.1c26.2-1.4,56.6-31.8,46.1-31.7c-5.3,0-7.1,9.3-1.5,12c1.1,1.5,3.5,2.4,6.7,2c8.5-1.4,30.3-7.8,34-8.3
c0.3,0,0.6,0,0.8,0c0.8,0.2,1.3,0,1.3,0"></path>
<path class="st3 pgrjCHsz_19" d="M337,93.3c0,0,0.6-0.7,1.4-1.3c1.5-1,4.3-2.3,6.8-2.8c1.9-0.4,3.3,0.4,4.2,0.7c0.1,0,0.3,0.1,0.4,0.2
c1.3,0.7,2.3,3.3,1.9,5.1c-1.7,4.6-13.1,16.9-8.9,16.8c12-0.1,64.5-34.8,54.6-34.7c-5.3,0-36.5,26.7-23,28.2c1,0.1,2.1,0.1,3.4,0.1
c25.9-1.5,55.8-31.5,45.7-31.4c-5.1,0-6.8,9.4-0.9,11.8c1.1,1.4,3.5,2.2,6.7,1.7c8.6-1.5,30-7.8,33.5-8.3c0.3,0,0.6,0,0.8,0
c0.8,0.2,1.3,0.1,1.3,0.2"></path>
<path class="st3 pgrjCHsz_20" d="M337,93.3c0-0.1,0.6-0.8,1.4-1.4c1.5-1,4.3-2.4,6.8-2.9c1.9-0.4,3.3,0.3,4.3,0.6c0.1,0,0.3,0.1,0.4,0.2
c1.3,0.6,2.5,3.3,2.1,5c-1.5,4.5-13.1,17-9,17c11.6-0.1,63.7-34.4,54.4-34.4c-5.2,0-36.1,26.5-22.6,27.8c1,0.1,2.1,0.1,3.3,0.1
c25.6-1.5,55.1-31.1,45.4-31c-4.9,0-6.5,9.4-0.4,11.6c1.2,1.3,3.5,2,6.7,1.5c8.7-1.6,29.6-7.8,33.1-8.2c0.3,0,0.6,0,0.7,0
c0.8,0.2,1.3,0.2,1.3,0.4"></path>
<path class="st3 pgrjCHsz_21" d="M337,93.3c0-0.1,0.6-0.9,1.4-1.4c1.5-1,4.2-2.4,6.9-2.9c1.9-0.4,3.3,0.2,4.4,0.4c0.1,0,0.3,0.1,0.4,0.2
c1.4,0.6,2.7,3.3,2.3,5c-1.4,4.3-13.2,17.1-9.1,17.1c11.2-0.1,62.9-34.1,54.1-34c-5.1,0-35.6,26.2-22.2,27.5c1,0.1,2.1,0.1,3.3,0
c25.3-1.6,54.3-30.7,45.1-30.6c-4.6,0-6.2,9.4,0.2,11.4c1.2,1.2,3.5,1.7,6.7,1.2c8.8-1.7,29.3-7.8,32.6-8.2c0.3,0,0.6,0,0.7,0
c0.8,0.3,1.2,0.4,1.2,0.6"></path>
<path class="st3 pgrjCHsz_22" d="M337,93.3c0-0.1,0.6-1,1.4-1.5c1.5-1.1,4.2-2.4,6.9-3c1.9-0.4,3.4,0.1,4.5,0.3c0.2,0,0.3,0.1,0.4,0.1
c1.5,0.5,2.9,3.2,2.5,5c-1.2,4.2-13.2,17.2-9.2,17.2c10.8-0.1,62.1-33.7,53.8-33.6c-4.9,0-35.2,26-21.8,27.1c1,0.1,2.1,0.1,3.3,0
c25-1.7,53.6-30.3,44.8-30.3c-4.4,0-5.9,9.4,0.7,11.2c1.2,1,3.6,1.5,6.7,1c8.9-1.8,29-7.8,32.1-8.2c0.3,0,0.6,0,0.7,0.1
c0.8,0.3,1.2,0.5,1.2,0.8"></path>
<path class="st3 pgrjCHsz_23" d="M337,93.3c0-0.2,0.6-1,1.3-1.6c1.5-1.1,4.2-2.4,6.9-3c1.9-0.4,3.4,0,4.6,0.1c0.2,0,0.3,0.1,0.5,0.1
c1.6,0.4,3.1,3.2,2.8,5c-1.1,4.1-13.2,17.3-9.3,17.3c10.3-0.1,61.3-33.3,53.5-33.2c-4.8,0-34.7,25.8-21.4,26.7c1,0.1,2.1,0.1,3.2,0
c24.7-1.7,52.8-30,44.4-29.9c-4.2,0-5.6,9.5,1.3,11c1.2,0.9,3.6,1.3,6.7,0.8c9-1.8,28.6-7.8,31.7-8.1c0.3,0,0.5,0,0.7,0.1
c0.8,0.3,1.2,0.6,1.2,1"></path>
<path class="st3 pgrjCHsz_24" d="M337,93.3c0-0.2,0.6-1.1,1.3-1.7c1.5-1.1,4.2-2.4,6.9-3.1c1.9-0.4,3.4-0.1,4.7,0c0.2,0,0.3,0.1,0.5,0.1
c1.6,0.4,3.2,3.2,3,4.9c-1,4-13.2,17.5-9.4,17.4c9.9-0.1,60.5-32.9,53.2-32.8c-4.7,0-34.3,25.6-21.1,26.4c1,0.1,2,0.1,3.2,0
c24.4-1.8,52.1-29.6,44.1-29.5c-4,0-5.3,9.5,1.8,10.9c1.2,0.8,3.6,1.1,6.7,0.5c9.1-1.9,28.3-7.8,31.2-8.1c0.3,0,0.5,0,0.7,0.1
c0.8,0.3,1.2,0.7,1.2,1.2"></path>
<path class="st3 pgrjCHsz_25" d="M337,93.3c0-0.3,0.6-1.2,1.3-1.8c1.5-1.1,4.2-2.5,6.9-3.1c1.9-0.5,3.5-0.2,4.8-0.1c0.2,0,0.3,0.1,0.5,0.1
c1.7,0.3,3.4,3.2,3.2,4.9c-0.8,3.8-13.3,17.6-9.4,17.5c9.5-0.1,59.7-32.5,52.9-32.5c-4.6,0-33.8,25.3-20.7,26c1,0.1,2,0,3.1,0
c24.2-1.8,51.3-29.2,43.8-29.1c-3.7,0-4.9,9.5,2.4,10.7c1.2,0.7,3.6,0.9,6.7,0.3c9.3-2,27.9-7.8,30.8-8c0.3,0,0.5,0,0.7,0.1
c0.8,0.3,1.2,0.8,1.2,1.4"></path>
<path class="st3 pgrjCHsz_26" d="M337,93.3c0-0.3,0.6-1.3,1.3-1.9c1.5-1.2,4.2-2.5,6.9-3.2c1.9-0.5,3.5-0.4,4.8-0.3c0.2,0,0.4,0,0.5,0.1
c1.8,0.3,3.6,3.2,3.4,4.9c-0.7,3.7-13.3,17.7-9.5,17.6c9.1-0.1,58.9-32.1,52.6-32.1c-4.4,0-33.4,25.1-20.3,25.7c1,0,2,0,3.1-0.1
c23.9-1.9,50.6-28.8,43.4-28.8c-3.5,0-4.6,9.5,2.9,10.5c1.3,0.6,3.6,0.6,6.7,0c9.4-2.1,27.6-7.8,30.3-8c0.3,0,0.5,0,0.7,0.1
c0.8,0.3,1.1,0.9,1.2,1.6"></path>
<path class="st3 pgrjCHsz_27" d="M337,93.3c0-0.3,0.5-1.3,1.3-1.9c1.4-1.2,4.2-2.5,7-3.2c1.9-0.5,3.6-0.5,4.9-0.4c0.2,0,0.4,0,0.5,0.1
c1.9,0.2,3.8,3.2,3.6,4.9c-0.5,3.6-13.3,17.8-9.6,17.8c8.7-0.1,58.1-31.7,52.3-31.7c-4.3,0-32.9,24.9-19.9,25.3c1,0,2,0,3-0.1
c23.6-2,49.8-28.4,43.1-28.4c-3.3,0-4.3,9.5,3.5,10.3c1.3,0.5,3.7,0.4,6.7-0.2c9.5-2.1,27.3-7.8,29.8-8c0.3,0,0.5,0,0.7,0.1
c0.8,0.3,1.1,1,1.1,1.8"></path>
<path class="st3 pgrjCHsz_28" d="M337,93.3c0-0.4,0.5-1.4,1.2-2c1.4-1.2,4.2-2.5,7-3.3c1.9-0.5,3.6-0.6,5-0.6c0.2,0,0.4,0,0.6,0
c2,0.2,4,3.2,3.9,4.8c-0.4,3.5-13.3,17.9-9.7,17.9c8.3-0.1,57.3-31.4,52-31.3c-4.2,0-32.5,24.7-19.6,24.9c1,0,2,0,3-0.1
c23.3-2,49-28.1,42.8-28c-3.1,0-4,9.6,4,10.1c1.3,0.3,3.7,0.2,6.7-0.5c9.6-2.2,26.9-7.8,29.4-7.9c0.3,0,0.5,0,0.7,0.1
c0.8,0.3,1.1,1.2,1.1,2.1"></path>
<path class="st3 pgrjCHsz_29" d="M337,93.3c0-0.4,0.5-1.5,1.2-2.1c1.4-1.3,4.2-2.5,7-3.3c1.9-0.5,3.6-0.7,5.1-0.7c0.2,0,0.4,0,0.6,0
c2,0.1,4.1,3.1,4.1,4.8c-0.3,3.4-13.4,18-9.8,18c7.9-0.1,56.5-31,51.7-30.9c-4.1,0-32,24.4-19.2,24.6c1,0,1.9,0,3-0.1
c23-2.1,48.3-27.7,42.4-27.6c-2.8,0-3.7,9.6,4.6,9.9c1.3,0.2,3.7,0,6.7-0.7c9.7-2.3,26.6-7.8,28.9-7.9c0.3,0,0.5,0,0.7,0.1
c0.8,0.4,1.1,1.3,1.1,2.3"></path>
<path class="st3 pgrjCHsz_30" d="M337,93.3c0-0.5,0.5-1.6,1.2-2.2c1.4-1.3,4.2-2.5,7-3.3c1.8-0.5,3.7-0.8,5.2-0.8c0.2,0,0.4,0,0.6,0
c2.1,0,4.3,3.1,4.3,4.8c-0.1,3.2-13.4,18.1-9.9,18.1c7.5-0.1,55.7-30.6,51.4-30.5c-3.9,0-31.6,24.2-18.8,24.2c1,0,1.9,0,2.9-0.1
c22.7-2.2,47.5-27.3,42.1-27.3c-2.6,0-3.4,9.6,5.1,9.7c1.3,0.1,3.7-0.3,6.7-1c9.8-2.4,26.3-7.8,28.4-7.9c0.2,0,0.5,0,0.6,0.1
c0.7,0.4,1.1,1.4,1.1,2.5"></path>
<path class="st3 pgrjCHsz_31" d="M337,93.3c0-0.5,0.5-1.6,1.2-2.3c2.4-2.3,8.9-4.4,13-4.4c2.2,0,4.5,3.1,4.5,4.7c0,3.1-13.4,18.3-10,18.2
c7.1-0.1,54.9-30.2,51.1-30.2c-3.8,0-31.1,24-18.4,23.9c23.1-0.2,49.9-27.1,44.6-27.1c-2.4,0-3.1,9.6,5.7,9.6c6-0.1,32-9,34.6-9
c1.2,0,1.7,1.3,1.7,2.8"></path>
</g>
<g class="edward-hopper-stroke9">
<path class="st3 FDgoQcPE_0" d="M464.9,79.6c-0.1,1.7-0.7,3.6-1.1,3.6c-5.3,0-18.6,14.9-18.6,21.9s30.1,2.2,34.3,2.1c6-0.1,3.9,3.7,0.3,6.7"></path>
<path class="st3 FDgoQcPE_1" d="M464.9,79.6c-0.1,1.6-0.7,3.3-1.1,3.4c-5.4,0-19,15.1-18.9,22.3c0.1,7.1,30.3,2.3,34.4,2.3
c5.9,0,4,3.6,0.5,6.3"></path>
<path class="st3 FDgoQcPE_2" d="M464.9,79.6c-0.1,1.5-0.7,3.1-1.2,3.1c-5.4,0-19.3,15.4-19.3,22.6c0.1,7.3,30.4,2.3,34.5,2.4
c5.7,0.1,4.1,3.5,0.8,6"></path>
<path class="st3 FDgoQcPE_3" d="M464.9,79.6c-0.1,1.4-0.7,2.9-1.2,2.9c-5.5,0-19.7,15.6-19.6,23c0.1,7.4,30.5,2.4,34.6,2.6
c5.6,0.2,4.1,3.3,1.1,5.7"></path>
<path class="st3 FDgoQcPE_4" d="M464.9,79.6c-0.1,1.3-0.7,2.7-1.2,2.7c-5.5,0.1-20,15.8-19.9,23.4c0.1,7.6,30.6,2.5,34.6,2.7
c5.4,0.3,4.2,3.2,1.4,5.4"></path>
<path class="st3 FDgoQcPE_5" d="M464.9,79.6c0,1.2-0.6,2.5-1.2,2.5c-5.5,0.1-20.4,16-20.3,23.7s30.7,2.6,34.7,2.9c5.3,0.4,4.2,3.1,1.6,5.1"></path>
<path class="st3 FDgoQcPE_6" d="M464.9,79.6c0,1.1-0.6,2.3-1.2,2.3C458.1,82,443,98.1,443,106c0.1,7.9,30.8,2.6,34.8,3
c5.1,0.5,4.3,2.9,1.9,4.8"></path>
<path class="st3 FDgoQcPE_7" d="M464.9,79.6c0,1-0.6,2.1-1.2,2.1c-5.6,0.1-21,16.4-21,24.5s30.9,2.7,34.9,3.2c5,0.6,4.3,2.8,2.2,4.5"></path>
<path class="st3 FDgoQcPE_8" d="M464.9,79.6c0,0.9-0.6,1.9-1.3,1.9c-5.7,0.1-21.4,16.7-21.3,24.8c0.1,8.2,31,2.8,35,3.3
c4.8,0.6,4.4,2.7,2.5,4.2"></path>
<path class="st3 FDgoQcPE_9" d="M464.9,79.6c0,0.8-0.6,1.7-1.3,1.7c-5.7,0.1-21.7,16.9-21.7,25.2c0.1,8.3,31.1,2.9,35.1,3.5
c4.7,0.7,4.5,2.5,2.8,3.9"></path>
<path class="st3 FDgoQcPE_10" d="M464.9,79.6c0,0.7-0.6,1.5-1.3,1.5c-5.8,0.1-22.1,17.1-22,25.6s31.3,2.9,35.2,3.6c4.5,0.8,4.5,2.4,3,3.6"></path>
<path class="st3 FDgoQcPE_11" d="M464.9,79.6c0,0.6-0.6,1.3-1.3,1.3c-5.8,0.1-22.4,17.3-22.4,25.9s31.4,3,35.2,3.8c4.4,0.9,4.6,2.3,3.3,3.3"></path>
<path class="st3 FDgoQcPE_12" d="M464.9,79.6c0,0.5-0.5,1-1.3,1c-5.9,0.1-22.8,17.5-22.7,26.3c0.1,8.8,31.5,3.1,35.3,3.9c4.2,0.9,4.6,2.1,3.6,3
"></path>
<path class="st3 FDgoQcPE_13" d="M464.9,79.6c0,0.4-0.5,0.8-1.3,0.8c-5.9,0.1-23.1,17.8-23,26.7c0.1,8.9,31.6,3.1,35.4,4.1c4.1,1,4.7,2,3.9,2.7
"></path>
<path class="st3 FDgoQcPE_14" d="M464.9,79.6c0,0.3-0.5,0.6-1.4,0.6c-6,0.1-23.5,18-23.4,27c0.1,9.1,31.7,3.2,35.5,4.2c3.9,1,4.8,1.9,4.1,2.4"></path>
<path class="st3 FDgoQcPE_15" d="M464.9,79.6c0,0.2-0.5,0.4-1.4,0.4c-6,0.1-23.8,18.2-23.7,27.4s31.8,3.3,35.6,4.4c3.7,1.1,4.8,1.7,4.4,2.1"></path>
<path class="st3 FDgoQcPE_16" d="M464.9,79.6c0,0-0.5,0.2-1.4,0.2c-6.1,0.1-24.2,18.4-24.1,27.8s31.9,3.3,35.7,4.5c3.6,1.1,4.9,1.6,4.7,1.8"></path>
<path class="st3 FDgoQcPE_17" d="M464.9,79.6c0-0.1-0.5,0-1.4,0c-6.1,0.1-24.5,18.6-24.4,28.1c0.1,9.5,32,3.4,35.7,4.7c3.4,1.2,4.9,1.5,5,1.5"></path>
<path class="st3 FDgoQcPE_18" d="M464.9,79.6c0-0.2-0.5-0.2-1.4-0.2c-6.2,0.1-24.9,18.8-24.8,28.5s32.1,3.4,35.8,4.8c3.3,1.2,5,1.3,5.2,1.1"></path>
<path class="st3 FDgoQcPE_19" d="M464.9,79.6c0-0.3-0.5-0.4-1.4-0.4c-6.2,0.1-25.2,19.1-25.1,28.9c0.1,9.8,32.2,3.5,35.9,5
c3.1,1.3,5.1,1.2,5.5,0.8"></path>
<path class="st3 FDgoQcPE_20" d="M464.9,79.6c0-0.4-0.4-0.6-1.5-0.6c-6.3,0.1-25.5,19.3-25.5,29.2s32.3,3.5,36,5.1c3,1.3,5.1,1.1,5.8,0.5"></path>
<path class="st3 FDgoQcPE_21" d="M464.9,79.6c0-0.5-0.4-0.8-1.5-0.8c-6.3,0.1-25.9,19.5-25.8,29.6s32.4,3.6,36.1,5.3c2.8,1.3,5.2,1,6.1,0.2"></path>
<path class="st3 FDgoQcPE_22" d="M464.9,79.6c0-0.6-0.4-1.1-1.5-1c-6.4,0.1-26.2,19.7-26.1,30c0.1,10.3,32.5,3.6,36.2,5.4
c2.7,1.3,5.2,0.8,6.4-0.1"></path>
<path class="st3 FDgoQcPE_23" d="M464.9,79.6c0-0.7-0.4-1.3-1.5-1.3c-6.4,0.1-26.6,19.9-26.5,30.3c0.1,10.4,32.6,3.6,36.3,5.6
c2.6,1.4,5.3,0.7,6.6-0.4"></path>
<path class="st3 FDgoQcPE_24" d="M464.9,79.6c0-0.8-0.4-1.5-1.5-1.5c-6.4,0.1-26.9,20.1-26.8,30.7c0.1,10.6,32.8,3.6,36.3,5.7
c2.4,1.4,5.3,0.6,6.9-0.7"></path>
<path class="st3 FDgoQcPE_25" d="M464.9,79.6c0-0.9-0.4-1.7-1.5-1.7c-6.5,0.1-27.3,20.4-27.2,31.1s32.9,3.7,36.4,5.8c2.3,1.4,5.4,0.4,7.2-1"></path>
<path class="st3 FDgoQcPE_26" d="M464.9,79.6c0-1-0.4-1.9-1.6-1.9c-6.5,0.1-27.6,20.6-27.5,31.4s33,3.7,36.5,6c2.1,1.4,5.5,0.3,7.5-1.3"></path>
<path class="st3 FDgoQcPE_27" d="M464.9,79.6c0-1.1-0.4-2.1-1.6-2.1c-6.6,0.1-28,20.8-27.9,31.8c0.1,11,33.2,3.7,36.6,6.1
c2,1.4,5.5,0.2,7.7-1.6"></path>
<path class="st3 FDgoQcPE_28" d="M464.9,79.6c0.1-1.2-0.3-2.3-1.6-2.3c-6.6,0.1-28.3,21-28.2,32.2c0.1,11.2,33.3,3.7,36.7,6.3
c1.9,1.5,5.6,0,8-1.9"></path>
<path class="st3 FDgoQcPE_29" d="M464.9,79.6c0.1-1.3-0.3-2.5-1.6-2.5c-6.7,0.1-28.7,21.2-28.6,32.5s33.5,3.7,36.8,6.4c1.8,1.5,5.6-0.1,8.3-2.2
"></path>
<path class="st3 FDgoQcPE_30" d="M464.9,79.6c0.1-1.4-0.3-2.7-1.6-2.7c-6.7,0.1-29,21.4-28.9,32.9c0.1,11.5,33.6,3.7,36.9,6.6
c1.6,1.5,5.7-0.2,8.6-2.5"></path>
<path class="st3 FDgoQcPE_31" d="M464.9,79.6c0.1-1.5-0.3-2.9-1.6-2.9c-6.8,0.1-29.4,21.7-29.2,33.3s33.8,3.7,36.9,6.7c1.5,1.5,5.8-0.4,8.8-2.8
"></path>
</g>
</svg>