<!--?xml version="1.0" encoding="utf-8"?-->
<!-- Generator: Adobe Illustrator 19.0.0, SVG Export Plug-In . SVG Version: 6.00 Build 0)  -->
<svg version="1.1" id="ruth-orkin" xmlns="http://www.w3.org/2000/svg" xmlns:xlink="http://www.w3.org/1999/xlink" x="0px" y="0px" viewBox="0 0 500 191" style="" xml:space="preserve">
<style type="text/css">
	.st0{fill:none;stroke:#2c599b;stroke-width:5;stroke-linecap:round;stroke-linejoin:round;stroke-miterlimit:10;}
</style>
<g class="ruth-orkin-stroke1">
	<path class="st0 tzUnchrj_0" d="M46.4,85.2c13.3,5.7,19.2,44.6,13.1,44.6c-4.3,0-8.7-16.4-8.7-32.3c0-21.9,30.6-39.3,48.3-39.3
		c7.2,0,12.3,2.9,12.3,9.6c0,9.9-15.8,24.2-39.5,24.2c0,9.1,19.1,24.5,28.2,24.5c9.4,0,12.3-16.2,8.9-16.2c-3.4,0-3.4,17,8.9,17
		c15.2,0,21.1-15.6,17.2-15.6c-4,0-2.8,13.7,9.4,13.7s19.5-15,15-15c-4.5,0-2.1,16,10.6,16c12.6,0,22.3-9.9,22.3-17
		c0-7.1-5.1-11.9-9-11.9c-9.5,0-6.9,30.4,7.6,30.4c6.5,0,11.9-11,13.8-11c3.1,0,3.7,15.5,11,17.9"></path>
</g>
<g class="ruth-orkin-stroke2">
	<path class="st0 NmutIavg_0" d="M138.8,103.1c10.8,0.3,29.8-1.2,40.1-4.3"></path>
</g>
<g class="ruth-orkin-stroke3">
	<path class="st0 MtklKHMT_0" d="M276.9,81.3c-17.1-2.5-38.1,9.3-38.1,22.1c0,7.5,9.1,13.5,21.5,13.5c27,0,40.2-14.9,40.2-22.8
			s-12.7-19.2-23.8-19.2c-4.9,0-26.6,9.7-26.6,22.5s15,17.6,22.9,17.6c7.9,0,16.7-6.9,16.7-6.9"></path>
</g>
<g class="ruth-orkin-stroke4">
	<path class="st0 eGwxviKH_0" d="M313.4,110.8c0,0-5.4,0-5.4-3.1c0-3.1,13.8-25.1,15.5-25.1c1.7,0-1.8,5.5,3.8,7.5c5.6,2,11.4,2,11.4,5.8
		c0,3.8-3.9,7.6-3.9,7.6s22-10.5,22-24.3c0-6.5-1.4-9.8-2.9-9.8c-2.1,0-5.6,6.8-5.6,12.1s1.8,17.4-1.5,27.6
		c12.4-37.3,36.2-38.4,36.2-29.9c0,4.3-4.4,10.2-11.6,10.2c-8.7,0-7.8-4-5.7-4c4.1,0,2.5,16.5,11.3,16.9
		c10.8,0,15.7-10.4,15.7-10.4S387.7,103,396,103c12.4,0,26.3-10.3,26.3-10.3s-0.8,9.3,7,9.3c8.1,0,18.3-5.9,18.3-5.9
		s-0.5,12.2,14.3,10.7"></path>
</g>
<g class="ruth-orkin-stroke5">
	<path class="st0 rOhccnBu_0" d="M441.2,50.6c-1.9,0-0.7,4.5,0.9,4.5c1.6,0-0.8-3.7-0.8-3.7"></path>
</g>

<style>.tzUnchrj_0{stroke-dasharray:530 532;stroke-dashoffset:531;animation:tzUnchrj_draw 1500ms ease-out 0ms forwards;}@keyframes tzUnchrj_draw{100%{stroke-dashoffset:0;}}@keyframes tzUnchrj_fade{0%{stroke-opacity:1;}92.98245614035088%{stroke-opacity:1;}100%{stroke-opacity:0;}}</style>
<style>.NmutIavg_0{stroke-dasharray:41 43;stroke-dashoffset:42;animation:NmutIavg_draw 200ms ease 0ms forwards;}@keyframes NmutIavg_draw{100%{stroke-dashoffset:0;}}@keyframes NmutIavg_fade{0%{stroke-opacity:1;}90.9090909090909%{stroke-opacity:1;}100%{stroke-opacity:0;}}</style>
<style>.MtklKHMT_0{stroke-dasharray:247 249;stroke-dashoffset:248;animation:MtklKHMT_draw 500ms ease-in-out 0ms forwards;}@keyframes MtklKHMT_draw{100%{stroke-dashoffset:0;}}@keyframes MtklKHMT_fade{0%{stroke-opacity:1;}91.48936170212767%{stroke-opacity:1;}100%{stroke-opacity:0;}}</style>
<style>.eGwxviKH_0{stroke-dasharray:377 379;stroke-dashoffset:378;animation:eGwxviKH_draw 1333ms ease-out 0ms forwards;}@keyframes eGwxviKH_draw{100%{stroke-dashoffset:0;}}@keyframes eGwxviKH_fade{0%{stroke-opacity:1;}93.54838709677419%{stroke-opacity:1;}100%{stroke-opacity:0;}}</style>
<style>.rOhccnBu_0{stroke-dasharray:11 13;stroke-dashoffset:12;animation:rOhccnBu_draw 133ms linear 0ms forwards;}@keyframes rOhccnBu_draw{100%{stroke-dashoffset:0;}}@keyframes rOhccnBu_fade{0%{stroke-opacity:1;}90.9090909090909%{stroke-opacity:1;}100%{stroke-opacity:0;}}</style>
<style>
.ruth-orkin-stroke1 path {animation-delay: 0.5s}
.ruth-orkin-stroke2 path {animation-delay: 2s}
.ruth-orkin-stroke3 path {animation-delay: 2.5s}
.ruth-orkin-stroke4 path {animation-delay: 3.1s}
.ruth-orkin-stroke5 path {animation-delay: 4.5s}
</style>
</svg>
