<?xml version="1.0" encoding="utf-8"?>
<!-- Generator: Adobe Illustrator 19.0.0, SVG Export Plug-In . SVG Version: 6.00 Build 0)  -->
<svg version="1.1" id="signmylogo" xmlns="http://www.w3.org/2000/svg" xmlns:xlink="http://www.w3.org/1999/xlink" x="0px" y="0px"
	 viewBox="10 18 140 140" xml:space="preserve">
<style type="text/css">
	.st0{fill:none;stroke:#231F20;stroke-linecap:round;stroke-linejoin:round;stroke-miterlimit:10;}
	.st1{fill:none;stroke:#af3618;stroke-linecap:round;stroke-linejoin:round;stroke-miterlimit:10;}
	.st2{fill:none;stroke:#094877;stroke-linecap:round;stroke-linejoin:round;stroke-miterlimit:10;}
</style>
<g id="XMLID_5_">
	<path id="XMLID_8_" class="st0" d="M108.9,68.5c0,0-7.6,12.3-9.4,15.1c-2.3,3.6-1.4,5.4,0.5,5.4c5.5,0,12.1-10.6,12.1-10.6"/>
	<path id="XMLID_16_" class="st0" d="M124.5,68.5c-8.1,0-21.4,20.7-12.8,20.7C118.9,89.2,132.5,68.5,124.5,68.5z"/>
	<path id="XMLID_19_" class="st0" d="M128.4,77.5c0,0,6.1-4.1,9-8.9l-12.8,20.7"/>
	<path id="XMLID_21_" class="st0" d="M128.1,83.5c2.3-3.7,11.1-14.9,16.1-14.9c1.9,0,3,1.4-0.5,7.1c-0.8,1.3-1.8,3-3.8,6.2
		c-2,3.2-4.4,7.3-1,7.3c3.1,0,5.3-3.9,5.3-3.9"/>
	<path id="XMLID_31_" class="st0" d="M130.3,68.5c0,0-7.7,12.4-12.4,20c-4.1,6.7-21.8,40.5-37.6,40.5"/>
</g>
<g id="XMLID_3_">
	<g id="XMLID_11_">
		<polyline id="XMLID_18_" class="st0" points="64.6,138.7 67.3,136.6 67.3,146.3 		"/>
		<line id="XMLID_17_" class="st0" x1="65.1" y1="146.3" x2="69.5" y2="146.3"/>
		<line id="XMLID_15_" class="st0" x1="72.2" y1="146.3" x2="76.6" y2="146.3"/>
		<line id="XMLID_14_" class="st0" x1="79.2" y1="146.3" x2="83.6" y2="146.3"/>
		<path id="XMLID_13_" class="st0" d="M67.3,140.7c0-4.7,7-4.8,7,0c0,3,0,5.6,0,5.6"/>
		<path id="XMLID_12_" class="st0" d="M74.4,140.7c0-4.7,7-4.8,7,0c0,3,0,5.6,0,5.6"/>
	</g>
	<g id="XMLID_24_">
		<path id="XMLID_23_" class="st0" d="M83.1,138.7l2.8-2c0,0,0,4.4,0,6c0,5,8.1,5.2,8.1-0.5"/>
		<path id="XMLID_22_" class="st0" d="M91.3,138.6l2.6-1.5c0,0,0,7.2,0,10.5c0,4.6-5.9,6-8.5,3.3"/>
	</g>
	<g id="XMLID_26_">
		<polyline id="XMLID_29_" class="st0" points="101.2,130.8 104,128.8 104,146.3 		"/>
		<line id="XMLID_28_" class="st0" x1="101.8" y1="146.3" x2="106.2" y2="146.3"/>
	</g>
	<g id="XMLID_35_">
		<ellipse id="XMLID_34_" class="st0" cx="126.6" cy="141.4" rx="5.2" ry="4.9"/>
		<ellipse id="XMLID_33_" class="st0" cx="126.1" cy="151.8" rx="5.2" ry="3.5"/>
		<path id="XMLID_32_" class="st0" d="M130.1,137.7c0,0,2.6-6.2,6.9-5"/>
		<line id="XMLID_30_" class="st0" x1="127.3" y1="142.7" x2="124.6" y2="151.1"/>
	</g>
	<ellipse id="XMLID_36_" class="st0" cx="113" cy="141.2" rx="5.8" ry="5.1"/>
	<ellipse id="XMLID_37_" class="st0" cx="140.2" cy="141.2" rx="5.8" ry="5.1"/>
</g>
<g class="signmylogo-stroke3">
	<path id="XMLID_56_" class="st1 KFThoDDT_0" d="M113.2,63.7c0.2,1-0.5,2-1.5,2.2c-1,0.2-2-0.5-2.2-1.5c-0.2-1,0.5-2,1.5-2.2
	S113.1,62.7,113.2,63.7c11.3-2.1,26.2-15.5,26.2-26.4c0-10.3-10.5-15.5-22.7-15.5c-16.8,0-38.6,9.7-38.6,28.8
	c0,14,12.3,26.7,12.3,44.2c0,14.5-12.4,30-30.2,33.4"></path>
</g>
<g class="signmylogo-stroke4">
	<path id="XMLID_7_" class="st1 AmGCHOhW_0" d="M45.6,128.5c-43.1-6-39.6-64.4,5.5-75.7"></path>
</g>
<g class="signmylogo-stroke1" id="XMLID_1_">
	<path id="XMLID_5_" class="st2 BYmjNPRl_0" d="M46.2,146.9c0-14.8-1.8-34-4.2-40.9c0-1.7,1.2-3.4,3-3.4h7.9"></path>
	<path id="XMLID_6_" class="st2 BYmjNPRl_1" d="M59.6,146.9c0-14.8,1.8-34,4.2-40.9c0-1.7-1.2-3.4-3-3.4h-7.9"></path>
</g>
<g class="signmylogo-stroke2" id="XMLID_3_">
	<path id="XMLID_27_" class="st2 hMniVvKr_0" d="M51.8,77.6A1.1,1.1 0,1,1 54,77.6A1.1,1.1 0,1,1 51.8,77.6"></path>
	<path id="XMLID_2_" class="st2 hMniVvKr_1" d="M52.9,76.5L52.9,61.5"></path>
	<path id="XMLID_9_" class="st2 hMniVvKr_2" d="M52.6,100.7h-5.5l-4.1-26.6c5.2-3.6,8-13.4,9.1-19.9c-0.6-0.3-1.1-0.9-1.1-1.7
		c0-1,0.8-1.9,1.9-1.9"></path>
	<path id="XMLID_4_" class="st2 hMniVvKr_3" d="M52.6,100.7h6.1l4.1-26.6c-5.2-3.6-8-13.4-9.1-19.9c0.6-0.3,1.1-0.9,1.1-1.7
		c0-1-0.8-1.9-1.9-1.9"></path>
</g>
<style>.BYmjNPRl_0{stroke-dasharray:55 57;stroke-dashoffset:56;animation:BYmjNPRl_draw 500ms ease 0ms forwards;}.BYmjNPRl_1{stroke-dasharray:55 57;stroke-dashoffset:56;animation:BYmjNPRl_draw 500ms ease 0ms forwards;}@keyframes BYmjNPRl_draw{100%{stroke-dashoffset:0;}}@keyframes BYmjNPRl_fade{0%{stroke-opacity:1;}91.48936170212767%{stroke-opacity:1;}100%{stroke-opacity:0;}}</style>
<style>.hMniVvKr_0{stroke-dasharray:7 9;stroke-dashoffset:8;animation:hMniVvKr_draw 500ms ease 0ms forwards;}.hMniVvKr_1{stroke-dasharray:15 17;stroke-dashoffset:16;animation:hMniVvKr_draw 500ms ease 0ms forwards;}.hMniVvKr_2{stroke-dasharray:60 62;stroke-dashoffset:61;animation:hMniVvKr_draw 500ms ease 0ms forwards;}.hMniVvKr_3{stroke-dasharray:61 63;stroke-dashoffset:62;animation:hMniVvKr_draw 500ms ease 0ms forwards;}@keyframes hMniVvKr_draw{100%{stroke-dashoffset:0;}}@keyframes hMniVvKr_fade{0%{stroke-opacity:1;}91.48936170212767%{stroke-opacity:1;}100%{stroke-opacity:0;}}</style>
<style>.KFThoDDT_0{stroke-dasharray:231 233;stroke-dashoffset:232;animation:KFThoDDT_draw 700ms ease-in-out 0ms forwards;}@keyframes KFThoDDT_draw{100%{stroke-dashoffset:0;}}@keyframes KFThoDDT_fade{0%{stroke-opacity:1;}91.83673469387755%{stroke-opacity:1;}100%{stroke-opacity:0;}}</style>
<style>.AmGCHOhW_0{stroke-dasharray:110 112;stroke-dashoffset:111;animation:AmGCHOhW_draw 400ms ease 0ms forwards;}@keyframes AmGCHOhW_draw{100%{stroke-dashoffset:0;}}@keyframes AmGCHOhW_fade{0%{stroke-opacity:1;}91.30434782608695%{stroke-opacity:1;}100%{stroke-opacity:0;}}</style>
<style>
.signmylogo-stroke1 path {animation-delay: 0.8s}
.signmylogo-stroke2 path {animation-delay: 1.2s}
.signmylogo-stroke3 path {animation-delay: 0.5s}
.signmylogo-stroke4 path {animation-delay: 1.2s}
</style>
</svg>
