<?xml version="1.0" encoding="utf-8"?>
<!-- Generator: Adobe Illustrator 19.0.0, SVG Export Plug-In . SVG Version: 6.00 Build 0)  -->
<svg version="1.1" id="logo-inverted" xmlns="http://www.w3.org/2000/svg" xmlns:xlink="http://www.w3.org/1999/xlink" x="0px" y="0px"
	 viewBox="0 0 560 560" style="enable-background:new 0 0 560 560;" xml:space="preserve">
<style type="text/css">
	.st0{fill:#F9F6E8;}
</style>
<g>
	<path class="st0" d="M167.6,171.9v58.2c-2.6,0.8-4.4,3.2-4.4,6.1c0,3.5,2.9,6.4,6.4,6.4c3.5,0,6.4-2.9,6.4-6.4
		c0-2.8-1.9-5.2-4.4-6.1v-58.2c0-1.1-0.9-2-2-2C168.5,169.9,167.6,170.8,167.6,171.9z M169.6,238.6c-1.3,0-2.4-1.1-2.4-2.4
		c0-1.3,1.1-2.4,2.4-2.4c1.3,0,2.4,1.1,2.4,2.4C172,237.5,170.9,238.6,169.6,238.6z"/>
	<path class="st0" d="M491.8,228.1l16.7-26.9c0,0,0,0,0-0.1c0.6-0.9,0.3-2.2-0.6-2.7c-0.9-0.6-2.2-0.3-2.7,0.6l0,0
		c-11.5,18.5-35.2,34.9-35.5,35c-0.9,0.6-1.1,1.9-0.5,2.8c0.6,0.9,1.9,1.1,2.8,0.5c0.6-0.4,9.5-6.5,19.1-15.6l-37.1,59.8
		c-0.6,0.9-0.3,2.2,0.6,2.7c0.3,0.2,0.7,0.3,1.1,0.3c0.7,0,1.3-0.3,1.7-0.9l14.2-22.9c0,0,0,0,0,0c10-16.2,44.5-58.7,62.6-58.7
		c2.4,0,3.9,0.6,4.6,1.8c1.1,1.9,1.4,7.5-8.3,23.3L515,251.8c-7.2,11.6-13.4,22.5-10.1,28.5c1.4,2.4,4,3.7,8,3.7
		c13.4,0,22.7-15.9,23.1-16.6c0.5-1,0.2-2.2-0.7-2.7c-1-0.6-2.2-0.2-2.7,0.7c-0.1,0.1-8.5,14.6-19.6,14.6c-2.4,0-3.9-0.5-4.5-1.6
		c-2.4-4.4,6-17.9,10-24.5l15.3-24.6c8.5-13.7,11.2-22.4,8.4-27.3c-1-1.8-3.2-3.9-8.1-3.9C522,198.1,505.5,212.8,491.8,228.1z"/>
	<path class="st0" d="M321.5,305.3c0-37.4-13.6-68.8-26.8-99.1c-11.5-26.4-22.3-51.4-22.3-77.5c0-77.2,90.7-113.1,152-113.1
		c40.8,0,88.5,15.6,88.5,59.7c0,42-57.3,93.8-101.1,103.1c-0.7-1.6-1.8-3-3.4-4.1c-2.1-1.4-4.6-1.9-7-1.5c-2.5,0.5-4.6,1.9-6,3.9
		c-1.4,2.1-1.9,4.6-1.5,7c0.5,2.5,1.9,4.6,3.9,6c2.1,1.4,4.6,1.9,7,1.5c4.4-0.8,7.5-4.7,7.6-9c46.1-9.7,104.3-62.5,104.3-107
		c0-38.7-36.3-63.7-92.5-63.7c-62.9,0-156,37.2-156,117.1c0,26.9,11,52.2,22.7,79c13,29.9,26.5,60.9,26.5,97.5
		c0,59.8-50.7,116.7-115.9,130.8c2.9-36,7.7-69.3,13.5-85.4c0.1-0.2,0.1-0.4,0.1-0.7c0-7.6-5.6-15.6-14-15.6h-63.4
		c-8.4,0-14,8.1-14,15.6c0,0.2,0,0.5,0.1,0.7c5.9,16.3,10.7,50.1,13.6,86.5C55.9,424.5,23.8,365.7,21,314.3
		c-3.6-66.1,38.8-148.6,140-174.7c0.7,1.6,1.8,3.1,3.3,4.1c-2.8,15.7-12.7,61.1-35.3,76.7c-0.6,0.4-1,1.2-0.8,1.9l16.2,105.8
		c0.1,1,1,1.7,2,1.7h23.5h22.9c1,0,1.8-0.7,2-1.7L211,222.3c0.1-0.8-0.2-1.5-0.8-1.9c-18.3-12.6-30.2-47.6-35.2-76.7
		c2.6-1.7,4.1-4.5,4.1-7.7c0-5.6-3.7-9.8-8.6-9.8c-5.1,0-10,4.6-10.2,9.5C56.7,162.3,13.4,246.9,17,314.6
		c2.9,53.1,36.2,114,120.9,126.6c1.9,24.5,2.9,49.9,2.9,71.9c0,1.1,0.9,2,2,2c1.1,0,2-0.9,2-2c0-22.2-1-47.9-2.9-72.6
		c0.1-0.2,0.2-0.4,0.2-0.7c0.1-0.5-0.1-1.1-0.4-1.5c-2.9-36.8-7.7-71.3-13.9-88.7c0.2-5.5,4.1-11.3,10-11.3h63.4
		c5.9,0,9.9,5.8,10,11.3c-6.2,17.3-10.9,51.4-13.8,87.9c-0.3,0.4-0.5,1-0.4,1.6c0,0.2,0.1,0.3,0.2,0.5c-1.9,25-3,51.1-3,73.5
		c0,1.1,0.9,2,2,2c1.1,0,2-0.9,2-2c0-22.3,1.1-48.1,3-72.9C268.9,426.2,321.5,367.3,321.5,305.3z M409.4,181.1c0,1.4-0.5,2.8-1.3,4
		c-0.8,1.2-2.5,2-3.9,2.3c-1.4,0.3-2.9,0-4.1-0.8c-1.2-0.8-2-2-2.3-3.5c-0.3-1.4,0-2.9,0.8-4.1c0.8-1.2,2-2,3.5-2.3
		c0.3-0.1,0.7-0.1,1-0.1c1.1,0,2.6,0.3,3.5,0.9C407.9,178.4,409.4,179.6,409.4,181.1C409.4,181.1,409.4,181.1,409.4,181.1z
		 M170.4,130.2c3,0,4.6,3,4.6,5.8c0,2.1-1.2,3.9-3.2,4.8c-0.8,0.4-1.3,1.3-1.1,2.1c2.4,14.4,12.2,62.3,36.1,80l-15.8,102.9h-21.2
		h-21.8l-15.8-102.9c23.8-17.6,33.7-65.5,36.2-80c0.2-0.9-0.3-1.8-1.1-2.2c-2-0.9-3.2-2.7-3.2-4.8
		C164.2,133.1,167.3,130.2,170.4,130.2z"/>
	<path class="st0" d="M430.4,281.2l49.7-80c0.6-0.9,0.3-2.2-0.6-2.7c-0.9-0.6-2.2-0.3-2.7,0.6l-10.3,16.6c0.4-2,0.7-4,0.7-5.8
		c0-3.6-0.9-6.4-2.8-8.5c-2-2.2-5-3.3-8.8-3.3c-16.8,0-37.7,20-51.1,40.5c-0.1,0.1-0.1,0.1-0.2,0.2c-0.3,0.4-26.3,41.2-46.8,41.2
		c-1.6,0-3.8-0.4-4.8-2.2c-0.8-1.4-2-5.9,4.4-16.3l37.5-60.4l-3.4-2.1l-37.5,60.4c-6.9,11.1-6.3,17.2-4.5,20.3
		c1.5,2.8,4.5,4.3,8.3,4.3c12.6,0,26.4-12.8,36.3-24.4c-1.6,4.6-2.5,8.7-2.5,12.2c0,4,1.1,7.1,3.1,9.3c2.2,2.4,5.6,3.6,9.9,3.6
		c8.7,0,19.7-7.1,30.1-17.3l-7.2,11.7c-1.9,3-4.5,7.5-7.7,13c-23.5,40.4-85.9,147.7-140.8,147.7c-1.1,0-2,0.9-2,2s0.9,2,2,2
		c57.2,0,118.2-104.9,144.3-149.6C426,288.6,428.6,284.2,430.4,281.2z M404.3,280.7c-3.2,0-5.5-0.8-7-2.3c-1.4-1.5-2.1-3.7-2.1-6.6
		c0-7.4,4.5-18.3,11.4-29.3c0.6-0.8,0.9-1.4,1-1.5c0,0,0-0.1,0-0.1c12.6-19.5,32.4-38.7,47.8-38.7c2.7,0,4.7,0.7,5.9,2
		c1.2,1.3,1.7,3.2,1.7,5.8C463.1,231,425.1,280.7,404.3,280.7z"/>
	<path class="st0" d="M292.1,508.8h-6.8v-20.4c0-10.7-8-16.2-16-16.2c-5.6,0-11.2,2.8-14.1,8.1c-2.9-5.3-8.4-8.1-14-8.1
		c-4.5,0-9,1.8-12.1,5.3v-5.4c0-0.8-0.4-1.4-1.1-1.8c-0.7-0.3-1.5-0.3-2.1,0.2l-11,8c-0.9,0.6-1.1,1.9-0.4,2.8
		c0.7,0.9,1.9,1.1,2.8,0.4l7.9-5.7v32.8h-6.8c-1.1,0-2,0.9-2,2s0.9,2,2,2h17.5c1.1,0,2-0.9,2-2s-0.9-2-2-2h-6.7v-20.4
		c0-8.4,6.3-12.2,12.1-12.2c6,0,12,3.8,12,12.2v20.4h-6.8c-1.1,0-2,0.9-2,2s0.9,2,2,2h17.5c1.1,0,2-0.9,2-2s-0.9-2-2-2h-6.8v-20.4
		c0-8.4,6.3-12.2,12.1-12.2c6,0,12,3.8,12,12.2v20.4h-6.7c-1.1,0-2,0.9-2,2s0.9,2,2,2h17.5c1.1,0,2-0.9,2-2S293.2,508.8,292.1,508.8
		z"/>
	<path class="st0" d="M334.3,472.2c-0.6-0.4-1.4-0.4-2,0l-10.5,6.1c-1,0.5-1.3,1.8-0.7,2.7c0.5,1,1.8,1.3,2.7,0.7l7.6-4.3v16.9
		c0,4.7-1.5,8.5-4.5,11.1c-2.6,2.3-6.1,3.6-9.9,3.6c-6.6,0-13.8-4-13.8-12.9v-24c0-0.8-0.4-1.4-1.1-1.8c-0.7-0.3-1.5-0.3-2.1,0.2
		l-11.1,8.1c-0.9,0.6-1.1,1.9-0.4,2.8c0.6,0.9,1.9,1.1,2.8,0.4l7.9-5.8v20.1c0,11.1,9,16.9,17.8,16.9c4.8,0,9.3-1.6,12.6-4.6
		c0.7-0.6,1.2-1.3,1.8-2v9.6c0,7-3.9,12.5-10.6,15.2c-7.1,2.8-15.2,1.4-19.8-3.5c-0.8-0.8-2-0.8-2.8-0.1c-0.8,0.8-0.8,2-0.1,2.8
		c3.8,4.1,9.4,6.2,15.2,6.2c3,0,6.1-0.6,9-1.7c8.2-3.2,13.1-10.3,13.1-18.9v-42C335.3,473.2,335,472.6,334.3,472.2z"/>
	<path class="st0" d="M382.1,508.8h-6.8v-68c0-0.7-0.4-1.4-1.1-1.8c-0.7-0.3-1.5-0.3-2.1,0.1l-11.2,7.9c-0.9,0.6-1.1,1.9-0.5,2.8
		c0.6,0.9,1.9,1.1,2.8,0.5l8.1-5.7v64.1h-6.8c-1.1,0-2,0.9-2,2s0.9,2,2,2h17.5c1.1,0,2-0.9,2-2S383.3,508.8,382.1,508.8z"/>
	<path class="st0" d="M504.4,458.2c1.1,0.3,2.2-0.3,2.5-1.4c0.3-1.1-0.3-2.2-1.4-2.5c-15.5-4.5-25.6,12.5-28.8,18.9
		c-3.7-2.5-8.2-3.9-13-3.9c-12.5,0-22.8,9.7-22.8,21.7c0,10.5,8,19.3,18.5,21.3l-1.5,4.8c-10.7,1.3-18.9,7.8-18.9,15.6
		c0,8.7,10.2,15.8,22.8,15.8s22.8-7.1,22.8-15.8c0-8.6-10-15.7-22.4-15.8l1.3-4.1c0.1,0,0.2,0,0.2,0c12.5,0,22.8-9.7,22.8-21.7
		c0-5.9-2.5-11.3-6.5-15.2C482.2,471,491.4,454.5,504.4,458.2z M461.8,520.7c10.2,0,18.8,5.4,18.8,11.8c0,6.4-8.6,11.9-18.8,11.9
		c-10.2,0-18.8-5.4-18.8-11.9c0-5.3,5.8-9.8,13.5-11.3l-2.5,7.9c-0.3,1,0.2,2.2,1.3,2.5c0.2,0.1,0.4,0.1,0.6,0.1
		c0.8,0,1.6-0.5,1.9-1.4l3-9.6C461.2,520.8,461.5,520.7,461.8,520.7z M464.8,508.5l3.7-11.7c0.3-1-0.2-2.2-1.3-2.5
		c-1.1-0.3-2.2,0.2-2.5,1.3l-4,12.7c-8.9-1.4-15.7-8.6-15.7-17.4c0-9.7,8.4-17.7,18.8-17.7c10.3,0,18.8,7.9,18.8,17.7
		C482.5,500.4,474.6,508,464.8,508.5z"/>
	<path class="st0" d="M409.3,468.1c-13.9,0-25.2,10-25.2,22.3c0,12.3,11.3,22.3,25.2,22.3s25.2-10,25.2-22.3
		C434.5,478.1,423.2,468.1,409.3,468.1z M409.3,508.8c-11.7,0-21.2-8.2-21.2-18.3c0-10.1,9.5-18.3,21.2-18.3s21.2,8.2,21.2,18.3
		C430.5,500.6,421,508.8,409.3,508.8z"/>
	<path class="st0" d="M518,468c-13.9,0-25.2,10-25.2,22.3c0,12.3,11.3,22.3,25.2,22.3c13.9,0,25.2-10,25.2-22.3
		C543.2,478.1,531.9,468,518,468z M518,508.7c-11.7,0-21.2-8.2-21.2-18.3c0-10.1,9.5-18.3,21.2-18.3c11.7,0,21.2,8.2,21.2,18.3
		C539.2,500.5,529.7,508.7,518,508.7z"/>
</g>
<style>
svg:hover path {
  fill: #af3618;
  transition: all ease 0.3s;
}

svg path {
  transition: all ease 0.3s;
}
</style>
<a xmlns="http://www.w3.org/2000/svg" id="anchor" xlink:href="../index" xmlns:xlink="http://www.w3.org/1999/xlink" target="_top">
    <rect x="0" y="0" width="100%" height="100%" fill-opacity="0"/>
</a>
</svg>
